<svg xmlns="http://www.w3.org/2000/svg" xmlns:xlink="http://www.w3.org/1999/xlink">
  <!-- To add a new symbol to this sprite:
   - Create a new symbol markup
   - Paste the content of the svg
   - Paste the viewBox content of the svg in the symbol markup
   - assign an id to symbol
   - call this svg via:
    <svg class="icon">
      <use href='assets/sprite_icons.svg#mynewid' />
    </svg>
  
  -->
  <symbol id="home" viewBox="0 0 576 512">
    <path d="M570.24 247.41L512 199.52V104a8 8 0 0 0-8-8h-32a8 8 0 0 0-7.95 7.88v56.22L323.87 45a56.06 56.06 0 0 0-71.74 0L5.76 247.41a16 16 0 0 0-2 22.54L14 282.25a16 16 0 0 0 22.53 2L64 261.69V448a32.09 32.09 0 0 0 32 32h128a32.09 32.09 0 0 0 32-32V344h64v104a32.09 32.09 0 0 0 32 32h128a32.07 32.07 0 0 0 32-31.76V261.67l27.53 22.62a16 16 0 0 0 22.53-2L572.29 270a16 16 0 0 0-2.05-22.59zM463.85 432H368V328a32.09 32.09 0 0 0-32-32h-96a32.09 32.09 0 0 0-32 32v104h-96V222.27L288 77.65l176 144.56z"></path>
  </symbol>


  <symbol id="map-marked-alt" viewBox="0 0 576 512">
    <path d="M344 126c0-13.3-10.7-24-24-24s-24 10.7-24 24c0 13.2 10.7 24 24 24s24-10.8 24-24zm-24 226c5 0 10-2 13.5-6.1 35.3-40 127.3-150.1 127.3-210.6C460.8 60.6 397.8 0 320 0S179.2 60.6 179.2 135.3c0 60.4 92 170.6 127.3 210.6C310 350 315 352 320 352zm0-304c51.2 0 92.8 39.2 92.8 87.3 0 21.4-31.8 79.1-92.8 152.6-61-73.5-92.8-131.2-92.8-152.6 0-48.1 41.6-87.3 92.8-87.3zm240 112c-2 0-4 .4-6 1.2l-73.5 27.2c-8.2 20.4-20.2 42-34.2 63.8L528 222v193l-128 44.5V316.3c-13.7 17.3-27.9 34.3-42.5 50.8-1.7 1.9-3.6 3.5-5.5 5.1v81.4l-128-45.2v-113c-18.1-24.1-34.8-48.8-48-72.8v180.2l-.6.2L48 450V257l123.6-43c-8-15.4-14.1-30.3-18.3-44.5L20.1 216C8 220.8 0 232.6 0 245.7V496c0 9.2 7.5 16 16 16 2 0 4-.4 6-1.2L192 448l172 60.7c13 4.3 27 4.4 40 .2L555.9 456c12.2-4.9 20.1-16.6 20.1-29.7V176c0-9.2-7.5-16-16-16z"></path>
  </symbol>


  <symbol id="mars" viewBox="0 0 384 512">
    <path d="M372 64h-63c-10.7 0-16 12.9-8.5 20.5L315 99l-87.6 87.6C203.9 169.9 175.1 160 144 160 64.5 160 0 224.5 0 304s64.5 144 144 144 144-64.5 144-144c0-31.1-9.9-59.9-26.6-83.4L349 133l14.5 14.5c7.6 7.6 20.5 2.2 20.5-8.5V76c0-6.6-5.4-12-12-12zM144 400c-52.9 0-96-43.1-96-96s43.1-96 96-96 96 43.1 96 96-43.1 96-96 96z"></path>
  </symbol>


  <symbol id="square" viewBox="0 0 448 512">
    <path d="M400 32H48C21.5 32 0 53.5 0 80v352c0 26.5 21.5 48 48 48h352c26.5 0 48-21.5 48-48V80c0-26.5-21.5-48-48-48zm-6 400H54c-3.3 0-6-2.7-6-6V86c0-3.3 2.7-6 6-6h340c3.3 0 6 2.7 6 6v340c0 3.3-2.7 6-6 6z"></path>
  </symbol>


  <symbol id="venus" viewBox="0 0 288 512">
    <path d="M288 176c0-79.5-64.5-144-144-144S0 96.5 0 176c0 71.4 51.9 130.6 120 142v58H76c-6.6 0-12 5.4-12 12v24c0 6.6 5.4 12 12 12h44v44c0 6.6 5.4 12 12 12h24c6.6 0 12-5.4 12-12v-44h44c6.6 0 12-5.4 12-12v-24c0-6.6-5.4-12-12-12h-44v-58c68.1-11.4 120-70.6 120-142zm-240 0c0-52.9 43.1-96 96-96s96 43.1 96 96-43.1 96-96 96-96-43.1-96-96z"></path>
  </symbol>
</svg>
