<svg xmlns="http://www.w3.org/2000/svg" xmlns:xlink="http://www.w3.org/1999/xlink">
  <!-- To add a new symbol to this sprite:
   - Create a new symbol markup
   - Paste the content of the svg
   - Paste the viewBox content of the svg in the symbol markup
   - assign an id to symbol
   - call this svg via:
    <svg class="icon">
      <use href='assets/sprite_icons.svg#mynewid' />
    </svg>
  
  -->
  <symbol id="results-background" viewBox="0 0 500 500">
      <g transform="translate(-146.04 -321.71)">
      <g fill="#000000" font-family="sans-serif" letter-spacing="0px" word-spacing="0px">
        <text x="583.18134" y="577.16998" font-size="13.907px" stroke-width="1.2271px" style="line-height:791.3%" xml:space="preserve"><tspan x="583.18134" y="577.16998" font-size="13.907px" stroke-width="1.2271px">Créatif</tspan></text>
        <text transform="matrix(1.037 0 0 1.037 4.6425 -103.4)" x="164.60614" y="785.45337" font-size="13.411px" stroke-width="1.1833px" style="inline-size:0;line-height:791.3%;white-space:pre" xml:space="preserve"><tspan x="164.60614" y="785.45337" font-size="13.411px" stroke-width="1.1833px">Planificateur</tspan></text>
        <text x="147.0687" y="576.8916" font-size="13.907px" stroke-width="1.2271px" style="line-height:791.3%" xml:space="preserve"><tspan x="147.0687" y="576.8916" font-size="13.907px" stroke-width="1.2271px">Bricoleur</tspan></text>
        <text x="181.25383" y="440.76242" font-size="13.907px" stroke-width="1.2271px" style="line-height:791.3%" xml:space="preserve"><tspan x="181.25383" y="440.76242" font-size="13.907px" stroke-width="1.2271px">Explorateur</tspan></text>
        <text x="366.23117" y="769.26093" font-size="13.505px" stroke-width=".40515px" style="line-height:791.3%" xml:space="preserve"><tspan x="366.23117" y="769.26093" font-size="13.907px" stroke-width=".40515px">Idéaliste</tspan></text>
        <g stroke-width="1.2271px">
          <text x="371.5141" y="382.1738" font-size="40.902px" style="line-height:791.3%" xml:space="preserve"><tspan x="371.5141" y="382.1738" font-size="13.907px" stroke-width="1.2271px">Leader</tspan></text>
          <text x="532.54913" y="442.11032" font-size="13.907px" style="line-height:791.3%" xml:space="preserve"><tspan x="532.54913" y="442.11032" font-size="13.907px" stroke-width="1.2271px">Audacieux</tspan></text>
          <text x="531.87689" y="710.01648" font-size="13.907px" style="line-height:791.3%" xml:space="preserve"><tspan x="531.87689" y="710.01648" font-size="13.907px" stroke-width="1.2271px">Coéquipier</tspan></text>
        </g>
      </g>
      <g fill="none">
        <g stroke="#ffabab" stroke-width="3.3762">
          <path d="m218.41 571.71h360.31"/>
          <path d="m396.04 749.43v-360.31"/>
          <path d="m268.74 698.87 254.78-254.78"/>
          <path d="m525.97 701.64-254.78-254.78"/>
        </g>
        <path transform="matrix(3.7037 .011417 -.011417 3.7037 491.46 -1338)" d="m10.364 549.98c-2.6241 2.6434-30.635 14.367-34.359 14.38-3.7247 0.0137-31.821-11.503-34.464-14.127-2.6434-2.6241-14.367-30.635-14.38-34.359-0.01369-3.7247 11.503-31.821 14.127-34.464 2.6241-2.6434 30.635-14.367 34.359-14.38 3.7247-0.0137 31.821 11.503 34.464 14.127 2.6434 2.6241 14.367 30.635 14.38 34.359 0.01369 3.7247-11.503 31.821-14.127 34.464z" stroke="#800000" stroke-dashoffset="5" stroke-linecap="round" stroke-linejoin="round" stroke-width="2.8931"/>
        <g stroke="#ffabab" stroke-dashoffset="5" stroke-linecap="round" stroke-linejoin="round">
          <path transform="matrix(2.7615 .0085126 -.0085126 2.7615 467.19 -852.21)" d="m10.364 549.98c-2.6241 2.6434-30.635 14.367-34.359 14.38-3.7247 0.0137-31.821-11.503-34.464-14.127-2.6434-2.6241-14.367-30.635-14.38-34.359-0.01369-3.7247 11.503-31.821 14.127-34.464 2.6241-2.6434 30.635-14.367 34.359-14.38 3.7247-0.0137 31.821 11.503 34.464 14.127 2.6434 2.6241 14.367 30.635 14.38 34.359 0.01369 3.7247-11.503 31.821-14.127 34.464z" stroke-width="1.2226"/>
          <path transform="matrix(2.1983 .0067764 -.0067764 2.1983 452.68 -561.8)" d="m10.364 549.98c-2.6241 2.6434-30.635 14.367-34.359 14.38-3.7247 0.0137-31.821-11.503-34.464-14.127-2.6434-2.6241-14.367-30.635-14.38-34.359-0.01369-3.7247 11.503-31.821 14.127-34.464 2.6241-2.6434 30.635-14.367 34.359-14.38 3.7247-0.0137 31.821 11.503 34.464 14.127 2.6434 2.6241 14.367 30.635 14.38 34.359 0.01369 3.7247-11.503 31.821-14.127 34.464z" stroke-width="1.5358"/>
          <path transform="matrix(1.5386 .0047429 -.0047429 1.5386 435.68 -221.65)" d="m10.364 549.98c-2.6241 2.6434-30.635 14.367-34.359 14.38-3.7247 0.0137-31.821-11.503-34.464-14.127-2.6434-2.6241-14.367-30.635-14.38-34.359-0.01369-3.7247 11.503-31.821 14.127-34.464 2.6241-2.6434 30.635-14.367 34.359-14.38 3.7247-0.0137 31.821 11.503 34.464 14.127 2.6434 2.6241 14.367 30.635 14.38 34.359 0.01369 3.7247-11.503 31.821-14.127 34.464z" stroke-width="2.1943"/>
          <path transform="matrix(3.2842 .010124 -.010124 3.2842 480.65 -1121.7)" d="m10.364 549.98c-2.6241 2.6434-30.635 14.367-34.359 14.38-3.7247 0.0137-31.821-11.503-34.464-14.127-2.6434-2.6241-14.367-30.635-14.38-34.359-0.01369-3.7247 11.503-31.821 14.127-34.464 2.6241-2.6434 30.635-14.367 34.359-14.38 3.7247-0.0137 31.821 11.503 34.464 14.127 2.6434 2.6241 14.367 30.635 14.38 34.359 0.01369 3.7247-11.503 31.821-14.127 34.464z" stroke-width="1.028"/>
        </g>
      </g>
      <path transform="matrix(.97123 .0029938 -.0029938 .97123 421.06 70.919)" d="m10.364 549.98c-2.6241 2.6434-30.635 14.367-34.359 14.38-3.7247 0.0137-31.821-11.503-34.464-14.127-2.6434-2.6241-14.367-30.635-14.38-34.359-0.01369-3.7247 11.503-31.821 14.127-34.464 2.6241-2.6434 30.635-14.367 34.359-14.38 3.7247-0.0137 31.821 11.503 34.464 14.127 2.6434 2.6241 14.367 30.635 14.38 34.359 0.01369 3.7247-11.503 31.821-14.127 34.464z" fill="#fff" stroke="#ffabab" stroke-dashoffset="5" stroke-linecap="round" stroke-linejoin="round" stroke-width="3.4762"/>
    </g>
  </symbol>
</svg>
