<svg xmlns="http://www.w3.org/2000/svg" xmlns:xlink="http://www.w3.org/1999/xlink">
  <!-- To add a new symbol to this sprite:
   - Create a new symbol markup
   - Paste the content of the svg
   - Paste the viewBox content of the svg in the symbol markup
   - assign an id to symbol
   - call this svg via:
    <svg class="icon">
      <use href='assets/sprite_icons.svg#mynewid' />
    </svg>
  
  -->
  <symbol id="results-background" viewBox="0 0 550 550">
    <g transform="matrix(4.0421 0 0 4.0421 -.8927 12.471)" fill="none" stroke="#f00" stroke-dashoffset="5" stroke-linecap="round" stroke-linejoin="round">
    <path transform="matrix(.17043 -.023724 .023724 .17043 139.01 72.587)" d="m-248.38 101.54-187.71 48.785-167.23-98.233-48.785-187.71 98.233-167.23 187.71-48.785 167.23 98.233 48.785 187.71z" stroke-width="7.6882"/>
    <path transform="matrix(.11917 -.016589 .016589 .11917 117.63 70.39)" d="m-248.38 101.54-187.71 48.785-167.23-98.233-48.785-187.71 98.233-167.23 187.71-48.785 167.23 98.233 48.785 187.71z" stroke-width="2.2215"/>
    <path transform="matrix(.14324 -.019939 .019939 .14324 127.72 71.368)" d="m-248.38 101.54-187.71 48.785-167.23-98.233-48.785-187.71 98.233-167.23 187.71-48.785 167.23 98.233 48.785 187.71z" stroke-width="1.8295"/>
    <path transform="matrix(.093818 -.01306 .01306 .093818 107.2 69.153)" d="m-248.38 101.54-187.71 48.785-167.23-98.233-48.785-187.71 98.233-167.23 187.71-48.785 167.23 98.233 48.785 187.71z" stroke-width="2.7932"/>
    <path transform="matrix(.068767 -.0095725 .0095725 .068767 96.803 68.031)" d="m-248.38 101.54-187.71 48.785-167.23-98.233-48.785-187.71 98.233-167.23 187.71-48.785 167.23 98.233 48.785 187.71z" stroke-width="3.4481"/>
    <path transform="matrix(.044113 -.0061406 .0061406 .044113 86.568 66.926)" d="m-248.38 101.54-187.71 48.785-167.23-98.233-48.785-187.71 98.233-167.23 187.71-48.785 167.23 98.233 48.785 187.71z" stroke-width="4.4792"/>
  </g>
  <g fill="#545454">
    <g transform="matrix(1.5198 0 0 1.5198 -18.614 61.132)">
      <path class="cls-3" d="m171 10.261h2.18v8.5h4.24v2h-6.42z"/>
      <path class="cls-3" d="m178.2 16.831v-0.14c0-2.38 1.48-4.12 3.51-4.12 2.29 0 3.42 1.87 3.42 4.27v0.69h-4.8a1.71 1.71 0 0 0 1.73 1.62 2.33 2.33 0 0 0 1.68-0.8l1.1 1.29a3.69 3.69 0 0 1-2.89 1.3 3.78 3.78 0 0 1-3.75-4.11zm4.87-0.71c-0.09-1.11-0.57-1.8-1.36-1.8s-1.29 0.66-1.41 1.8z"/>
      <path class="cls-3" d="m186.1 18.461v-0.09c0-1.77 1.16-2.56 2.81-2.56a4.3 4.3 0 0 1 1.68 0.33v-0.25c0-0.92-0.56-1.4-1.52-1.4a4.52 4.52 0 0 0-1.84 0.45l-0.59-1.67a5.76 5.76 0 0 1 2.75-0.65 3.37 3.37 0 0 1 2.44 0.83 3.33 3.33 0 0 1 0.83 2.43v4.87h-2.09v-0.87a2.47 2.47 0 0 1-2.08 1 2.29 2.29 0 0 1-2.39-2.42zm4.52-0.34v-0.68a2.9 2.9 0 0 0-1.19-0.25c-0.78 0-1.27 0.39-1.27 1.12a0.94 0.94 0 0 0 1 1 1.27 1.27 0 0 0 1.46-1.19z"/>
      <path class="cls-3" d="m194.01 16.851v-0.23c0-2.75 1.45-4 3.06-4a2.61 2.61 0 0 1 2.17 1.18v-3.87h2.13v10.82h-2.13v-1.11a2.52 2.52 0 0 1-2.17 1.26c-1.59 0-3.06-1.3-3.06-4.05zm5.26 0v-0.15c0-1.37-0.69-2.23-1.57-2.23s-1.56 0.86-1.56 2.23v0.15c0 1.36 0.67 2.23 1.56 2.23s1.57-0.91 1.57-2.27z"/>
      <path class="cls-3" d="m202.75 16.831v-0.14c0-2.38 1.49-4.12 3.51-4.12 2.3 0 3.42 1.87 3.42 4.27v0.69h-4.8a1.72 1.72 0 0 0 1.74 1.62 2.33 2.33 0 0 0 1.68-0.8l1.09 1.29a3.67 3.67 0 0 1-2.86 1.3 3.79 3.79 0 0 1-3.78-4.11zm4.88-0.71c-0.09-1.11-0.57-1.8-1.37-1.8s-1.29 0.66-1.41 1.8z"/>
      <path class="cls-3" d="m211.08 12.721h2.13v1.42a2.11 2.11 0 0 1 2.17-1.56v2.31h-0.09c-1.3 0-2.08 0.81-2.08 2.49v3.37h-2.13z"/>
    </g>
    <g transform="matrix(1.5198 0 0 1.5198 -23.081 62.03)">
      <path class="cls-3" d="m284.16 46.27h2.07l3.76 10.55h-2.23l-0.78-2.27h-3.61l-0.76 2.27h-2.2zm2.14 6.36-1.14-3.42-1.16 3.42z"/>
      <path class="cls-3" d="m290.97 54.26v-5.47h2.12v4.84c0 0.94 0.42 1.42 1.14 1.42s1.17-0.48 1.17-1.42v-4.84h2.13v8h-2.13v-1.05a2.42 2.42 0 0 1-2.06 1.23c-1.51 0-2.37-1.05-2.37-2.71z"/>
      <path class="cls-3" d="m298.95 52.92v-0.23c0-2.75 1.46-4 3.07-4a2.63 2.63 0 0 1 2.14 1.13v-3.82h2.13v10.82h-2.13v-1.11a2.53 2.53 0 0 1-2.17 1.26c-1.56 0-3.04-1.3-3.04-4.05zm5.27 0v-0.15c0-1.37-0.69-2.23-1.58-2.23s-1.56 0.86-1.56 2.23v0.15c0 1.36 0.68 2.23 1.56 2.23s1.58-0.91 1.58-2.27z"/>
      <path class="cls-3" d="m307.61 54.53v-0.09c0-1.77 1.16-2.56 2.8-2.56a4.22 4.22 0 0 1 1.68 0.33v-0.25c0-0.92-0.55-1.4-1.51-1.4a4.52 4.52 0 0 0-1.84 0.45l-0.58-1.67a5.76 5.76 0 0 1 2.75-0.65 2.9 2.9 0 0 1 3.25 3.26v4.87h-2.08v-0.87a2.47 2.47 0 0 1-2.09 1 2.29 2.29 0 0 1-2.38-2.42zm4.51-0.34v-0.68a2.85 2.85 0 0 0-1.18-0.25c-0.78 0-1.28 0.39-1.28 1.12a0.94 0.94 0 0 0 1 1 1.26 1.26 0 0 0 1.5-1.19z"/>
      <path class="cls-3" d="m315.49 52.92v-0.18c0-2.38 1.54-4.1 3.71-4.1a3.47 3.47 0 0 1 2.63 1.07l-1.16 1.55a1.91 1.91 0 0 0-1.43-0.72c-1 0-1.64 0.93-1.64 2.24v0.06c0 1.33 0.61 2.26 1.68 2.26a1.92 1.92 0 0 0 1.46-0.74l1.12 1.42a3.44 3.44 0 0 1-2.7 1.23c-2.16 0-3.67-1.71-3.67-4.09z"/>
      <path class="cls-3" d="m323.09 46h2.22v1.93h-2.22zm0 2.79h2.13v8h-2.06z"/>
      <path class="cls-3" d="m326.74 52.9v-0.14c0-2.38 1.48-4.12 3.5-4.12 2.3 0 3.42 1.87 3.42 4.27v0.69h-4.8a1.72 1.72 0 0 0 1.74 1.62 2.33 2.33 0 0 0 1.68-0.8l1.09 1.29a3.67 3.67 0 0 1-2.86 1.3 3.78 3.78 0 0 1-3.77-4.11zm4.87-0.71c-0.09-1.11-0.57-1.8-1.37-1.8s-1.29 0.66-1.41 1.8z"/>
      <path class="cls-3" d="m335.01 54.26v-5.47h2.15v4.84c0 0.94 0.42 1.42 1.14 1.42s1.17-0.48 1.17-1.42v-4.84h2.13v8h-2.13v-1.05a2.42 2.42 0 0 1-2.06 1.23c-1.54 0-2.4-1.05-2.4-2.71z"/>
      <path class="cls-3" d="m346.29 51.11 1.28-2.35h2.2l-2.32 3.91 2.41 4.12h-2.26l-1.34-2.5-1.35 2.5h-2.22l2.4-4.09-2.31-3.94h2.26z"/>
    </g>
    <g transform="matrix(1.5198 0 0 1.5198 -25.769 55.788)">
      <path class="cls-3" d="m317.29 144.65v-0.13c0-3.19 2-5.34 4.76-5.34a4.38 4.38 0 0 1 3.37 1.39l-1.3 1.68a2.94 2.94 0 0 0-2.14-1c-1.41 0-2.45 1.3-2.45 3.35 0 2.08 1.08 3.36 2.47 3.36a3 3 0 0 0 2.16-1.09l1.31 1.54a4.59 4.59 0 0 1-3.56 1.58c-2.75-0.01-4.62-2.13-4.62-5.34z"/>
      <path class="cls-3" d="m326.73 141.79h2.13v1.42a2.12 2.12 0 0 1 2.17-1.56v2.31h-0.09c-1.3 0-2.08 0.81-2.08 2.49v3.37h-2.13z"/>
      <path class="cls-3" d="m331.68 145.9v-0.14c0-2.38 1.48-4.12 3.51-4.12 2.29 0 3.42 1.87 3.42 4.27v0.69h-4.8a1.72 1.72 0 0 0 1.74 1.62 2.33 2.33 0 0 0 1.68-0.8l1.1 1.3a3.71 3.71 0 0 1-2.87 1.28 3.77 3.77 0 0 1-3.78-4.1zm4.87-0.71c-0.09-1.11-0.57-1.8-1.36-1.8s-1.29 0.66-1.41 1.8zm-0.69-6.72 1.79 0.83-1.82 1.69h-1.53z"/>
      <path class="cls-3" d="m339.62 147.53v-0.09c0-1.77 1.16-2.56 2.81-2.56a4.3 4.3 0 0 1 1.68 0.33v-0.24c0-0.93-0.56-1.41-1.52-1.41a4.7 4.7 0 0 0-1.84 0.44l-0.59-1.66a5.76 5.76 0 0 1 2.75-0.65 2.92 2.92 0 0 1 3.27 3.26v4.87h-2.09v-0.87a2.48 2.48 0 0 1-2.08 1 2.3 2.3 0 0 1-2.39-2.42zm4.52-0.34v-0.68a2.9 2.9 0 0 0-1.19-0.26c-0.78 0-1.27 0.4-1.27 1.13a0.94 0.94 0 0 0 1 1 1.27 1.27 0 0 0 1.42-1.19z"/>
      <path class="cls-3" d="m348.03 147.82v-4.24h-0.81v-1.79h0.81v-2.06h2.13v2.06h1.59v1.79h-1.59v3.8c0 0.46 0.21 0.69 0.66 0.69a2 2 0 0 0 0.91-0.23v1.7a3.09 3.09 0 0 1-1.57 0.42 1.87 1.87 0 0 1-2.13-2.14z"/>
      <path class="cls-3" d="m353.17 138.99h2.22v1.94h-2.22zm0.05 2.8h2.13v8h-2.13z"/>
      <path class="cls-3" d="m357.48 143.58h-0.81v-1.73h0.81v-0.54a2.42 2.42 0 0 1 0.6-1.8 2.34 2.34 0 0 1 1.75-0.61 4.4 4.4 0 0 1 1.32 0.18v1.76a2.71 2.71 0 0 0-0.78-0.13c-0.49 0-0.78 0.25-0.78 0.82v0.32h1.56v1.73h-1.53v6.24h-2.13z"/>
    </g>
    <g transform="matrix(1.5198 0 0 1.5198 -28.096 57.042)">
      <path class="cls-3" d="m283.04 234.29v-0.13c0-3.19 2-5.34 4.76-5.34a4.38 4.38 0 0 1 3.37 1.39l-1.3 1.68a2.94 2.94 0 0 0-2.14-1.05c-1.41 0-2.45 1.3-2.45 3.35 0 2.08 1.08 3.36 2.47 3.36a3 3 0 0 0 2.16-1.09l1.31 1.54a4.59 4.59 0 0 1-3.56 1.58c-2.75 0.04-4.62-2.08-4.62-5.29z"/>
      <path class="cls-3" d="m291.97 235.55v-0.17a3.84 3.84 0 0 1 3.79-4.1 3.8 3.8 0 0 1 3.77 4.09v0.17a3.79 3.79 0 1 1-7.56 0zm5.46 0v-0.1c0-1.31-0.66-2.3-1.68-2.3s-1.68 1-1.68 2.28v0.1c0 1.29 0.68 2.3 1.69 2.3s1.67-1 1.67-2.31z"/>
      <path class="cls-3" d="m300.61 235.54v-0.14c0-2.38 1.48-4.12 3.51-4.12 2.29 0 3.42 1.87 3.42 4.27v0.69h-4.8a1.73 1.73 0 0 0 1.74 1.62 2.33 2.33 0 0 0 1.68-0.8l1.1 1.3a3.71 3.71 0 0 1-2.87 1.28 3.78 3.78 0 0 1-3.78-4.1zm4.88-0.71c-0.1-1.11-0.58-1.8-1.37-1.8s-1.29 0.66-1.41 1.8zm-0.7-6.72 1.79 0.83-1.82 1.69h-1.52z"/>
      <path class="cls-3" d="m313.88 238.36a2.54 2.54 0 0 1-2.17 1.26c-1.59 0-3.06-1.31-3.06-4.06v-0.23c0-2.75 1.45-4.05 3.06-4.05a2.61 2.61 0 0 1 2.17 1.18v-1h2.13v10.29h-2.13zm0-2.84v-0.15c0-1.37-0.69-2.24-1.57-2.24s-1.56 0.87-1.56 2.24v0.15c0 1.36 0.67 2.23 1.56 2.23s1.6-0.87 1.6-2.23z"/>
      <path class="cls-3" d="m317.68 236.9v-5.47h2.11v4.84c0 0.94 0.42 1.43 1.14 1.43s1.17-0.49 1.17-1.43v-4.84h2.13v8h-2.13v-1.08a2.42 2.42 0 0 1-2.05 1.24c-1.51 0.03-2.37-1.03-2.37-2.69z"/>
      <path class="cls-3" d="m325.97 228.63h2.22v1.94h-2.22zm0 2.8h2.13v8h-2.13z"/>
      <path class="cls-3" d="m329.95 231.43h2.13v1.11a2.52 2.52 0 0 1 2.17-1.26c1.59 0 3.06 1.3 3.06 4.05v0.23c0 2.75-1.45 4.06-3.06 4.06a2.6 2.6 0 0 1-2.17-1.19v3.32h-2.13zm5.23 4.09v-0.15c0-1.37-0.67-2.24-1.56-2.24s-1.57 0.87-1.57 2.24v0.15c0 1.36 0.69 2.23 1.57 2.23s1.56-0.87 1.56-2.23z"/>
      <path class="cls-3" d="m338.77 228.63h2.22v1.94h-2.22zm0 2.8h2.13v8h-2.13z"/>
      <path class="cls-3" d="m342.37 235.54v-0.14c0-2.38 1.49-4.12 3.51-4.12 2.3 0 3.42 1.87 3.42 4.27v0.69h-4.8a1.72 1.72 0 0 0 1.74 1.62 2.33 2.33 0 0 0 1.68-0.8l1.09 1.3a3.69 3.69 0 0 1-2.86 1.28 3.78 3.78 0 0 1-3.78-4.1zm4.88-0.71c-0.09-1.11-0.57-1.8-1.37-1.8s-1.29 0.66-1.41 1.8z"/>
      <path class="cls-3" d="m350.74 231.43h2.13v1.42a2.11 2.11 0 0 1 2.17-1.56v2.31h-0.09c-1.3 0-2.08 0.81-2.08 2.49v3.37h-2.13z"/>
    </g>
    <g transform="matrix(1.5198 0 0 1.5198 -15.797 40.996)">
      <path class="cls-3" d="m163.84 272.02h2.18v10.5h-2.18z"/>
      <path class="cls-3" d="m167.72 278.62v-0.23c0-2.75 1.46-4.05 3.06-4.05a2.64 2.64 0 0 1 2.18 1.18v-3.83h2.13v10.83h-2.13v-1.1a2.56 2.56 0 0 1-2.18 1.26c-1.6 0-3.06-1.31-3.06-4.06zm5.27 0v-0.15c0-1.37-0.69-2.24-1.58-2.24s-1.56 0.87-1.56 2.24v0.15c0 1.36 0.68 2.23 1.56 2.23s1.57-0.91 1.57-2.27z"/>
      <path class="cls-3" d="m176.46 278.6v-0.14c0-2.38 1.48-4.12 3.51-4.12 2.29 0 3.42 1.87 3.42 4.27v0.69h-4.8a1.72 1.72 0 0 0 1.74 1.62 2.33 2.33 0 0 0 1.68-0.8l1.1 1.3a3.72 3.72 0 0 1-2.87 1.28 3.78 3.78 0 0 1-3.78-4.1zm4.87-0.71c-0.09-1.11-0.57-1.8-1.36-1.8s-1.29 0.66-1.41 1.8zm-0.69-6.72 1.79 0.83-1.82 1.69h-1.53z"/>
      <path class="cls-3" d="m184.37 280.23v-0.09c0-1.77 1.15-2.56 2.8-2.56a4.3 4.3 0 0 1 1.68 0.33v-0.24c0-0.93-0.56-1.41-1.52-1.41a4.7 4.7 0 0 0-1.84 0.44l-0.58-1.66a5.69 5.69 0 0 1 2.74-0.65 2.92 2.92 0 0 1 3.27 3.26v4.87h-2.09v-0.87a2.48 2.48 0 0 1-2.08 1 2.29 2.29 0 0 1-2.38-2.42zm4.51-0.34v-0.68a2.9 2.9 0 0 0-1.19-0.26c-0.78 0-1.27 0.4-1.27 1.13a0.94 0.94 0 0 0 1 1 1.27 1.27 0 0 0 1.46-1.19z"/>
      <path class="cls-3" d="m192.63 271.69h2.09v10.83h-2.13z"/>
      <path class="cls-3" d="m196.59 271.69h2.22v1.94h-2.22zm0 2.8h2.13v8h-2.13z"/>
      <path class="cls-3" d="m199.95 281.56 0.93-1.5a3.71 3.71 0 0 0 2.14 0.9c0.6 0 0.86-0.28 0.86-0.61 0-0.47-0.6-0.66-1.47-1-1.14-0.49-2.12-1.06-2.12-2.43a2.49 2.49 0 0 1 2.76-2.47 4.77 4.77 0 0 1 2.66 0.88l-0.86 1.53a3.56 3.56 0 0 0-1.83-0.69c-0.51 0-0.78 0.25-0.78 0.56 0 0.42 0.6 0.66 1.46 1.05 1.17 0.55 2.13 1.13 2.13 2.41 0 1.67-1.23 2.51-2.84 2.51a4.84 4.84 0 0 1-3.04-1.14z"/>
      <path class="cls-3" d="m207.33 280.52v-4.24h-0.81v-1.79h0.81v-2.06h2.13v2.06h1.59v1.79h-1.59v3.8c0 0.46 0.21 0.69 0.66 0.69a2 2 0 0 0 0.91-0.23v1.7a3.09 3.09 0 0 1-1.57 0.42 1.87 1.87 0 0 1-2.13-2.14z"/>
      <path class="cls-3" d="m211.9 278.6v-0.14c0-2.38 1.49-4.12 3.51-4.12 2.3 0 3.42 1.87 3.42 4.27v0.69h-4.8a1.72 1.72 0 0 0 1.74 1.62 2.33 2.33 0 0 0 1.68-0.8l1.09 1.3a3.69 3.69 0 0 1-2.86 1.28 3.78 3.78 0 0 1-3.78-4.1zm4.88-0.71c-0.09-1.11-0.57-1.8-1.37-1.8s-1.29 0.66-1.41 1.8z"/>
    </g>
    <g transform="matrix(1.5198 0 0 1.5198 -16.968 51.695)">
      <path class="cls-3" d="m22.065 233.32h3.49c2.36 0 3.84 1.37 3.84 3.6 0 2.41-1.72 3.62-3.93 3.67h-1.22v3.19h-2.18zm3.39 5.36a1.6 1.6 0 0 0 1.75-1.68 1.57 1.57 0 0 0-1.78-1.7h-1.18v3.39z"/>
      <path class="cls-3" d="m30.705 232.99h2.13v10.83h-2.13z"/>
      <path class="cls-3" d="m34.215 241.53v-0.09c0-1.77 1.15-2.56 2.8-2.56a4.31 4.31 0 0 1 1.69 0.33v-0.24c0-0.93-0.56-1.41-1.52-1.41a4.7 4.7 0 0 0-1.84 0.44l-0.59-1.66a5.74 5.74 0 0 1 2.74-0.65 2.9 2.9 0 0 1 3.27 3.26v4.87h-2.08v-0.87a2.48 2.48 0 0 1-2.09 1 2.3 2.3 0 0 1-2.38-2.42zm4.51-0.34v-0.68a2.85 2.85 0 0 0-1.18-0.26c-0.78 0-1.28 0.4-1.28 1.13a0.94 0.94 0 0 0 1 1 1.26 1.26 0 0 0 1.46-1.19z"/>
      <path class="cls-3" d="m42.405 235.79h2.13v1.07a2.45 2.45 0 0 1 2.07-1.22c1.5 0 2.37 1.05 2.37 2.71v5.47h-2.13v-4.84c0-0.94-0.42-1.42-1.14-1.42s-1.17 0.48-1.17 1.42v4.84h-2.13z"/>
      <path class="cls-3" d="m50.655 232.99h2.22v1.94h-2.22zm0 2.8h2.13v8h-2.09z"/>
      <path class="cls-3" d="m54.955 237.58h-0.81v-1.73h0.81v-0.54a2.42 2.42 0 0 1 0.6-1.8 2.37 2.37 0 0 1 1.76-0.61 4.5 4.5 0 0 1 1.32 0.18v1.76a2.77 2.77 0 0 0-0.78-0.13c-0.5 0-0.78 0.25-0.78 0.82v0.32h1.56v1.73h-1.55v6.24h-2.13zm4.76-4.59h2.22v1.94h-2.22zm0 2.8h2.13v8h-2.09z"/>
      <path class="cls-3" d="m63.355 239.92v-0.18a3.78 3.78 0 0 1 3.72-4.1 3.45 3.45 0 0 1 2.63 1.08l-1.16 1.54a1.91 1.91 0 0 0-1.44-0.72c-1 0-1.63 0.93-1.63 2.24v0.05c0 1.34 0.61 2.27 1.68 2.27a1.9 1.9 0 0 0 1.45-0.74l1.13 1.42a3.43 3.43 0 0 1-2.72 1.22c-2.14 0-3.66-1.7-3.66-4.08z"/>
      <path class="cls-3" d="m70.515 241.53v-0.09c0-1.77 1.15-2.56 2.8-2.56a4.22 4.22 0 0 1 1.68 0.33v-0.24c0-0.93-0.55-1.41-1.51-1.41a4.79 4.79 0 0 0-1.85 0.44l-0.62-1.66a5.74 5.74 0 0 1 2.74-0.65 2.9 2.9 0 0 1 3.27 3.26v4.87h-2.01v-0.87a2.48 2.48 0 0 1-2.09 1 2.29 2.29 0 0 1-2.41-2.42zm4.51-0.34v-0.68a2.85 2.85 0 0 0-1.18-0.26c-0.78 0-1.28 0.4-1.28 1.13a0.94 0.94 0 0 0 1 1 1.26 1.26 0 0 0 1.45-1.19z"/>
      <path class="cls-3" d="m78.955 241.82v-4.24h-0.81v-1.79h0.81v-2.06h2.13v2.06h1.6v1.79h-1.6v3.8c0 0.46 0.21 0.69 0.66 0.69a2 2 0 0 0 0.92-0.23v1.7a3.1 3.1 0 0 1-1.58 0.42 1.87 1.87 0 0 1-2.13-2.14z"/>
      <path class="cls-3" d="m83.535 239.9v-0.14c0-2.38 1.48-4.12 3.51-4.12 2.29 0 3.42 1.87 3.42 4.27v0.69h-4.8a1.72 1.72 0 0 0 1.74 1.62 2.33 2.33 0 0 0 1.68-0.8l1.1 1.3a3.72 3.72 0 0 1-2.87 1.28 3.77 3.77 0 0 1-3.78-4.1zm4.87-0.71c-0.09-1.11-0.57-1.8-1.36-1.8s-1.29 0.66-1.41 1.8z"/>
      <path class="cls-3" d="m91.815 241.26v-5.47h2.11v4.84c0 0.94 0.42 1.43 1.14 1.43s1.17-0.49 1.17-1.43v-4.84h2.13v8h-2.13v-1.08a2.43 2.43 0 0 1-2 1.24c-1.57 0.03-2.42-1.03-2.42-2.69z"/>
      <path class="cls-3" d="m100.07 235.79h2.13v1.42a2.12 2.12 0 0 1 2.18-1.56v2.31h-0.09c-1.31 0-2.09 0.81-2.09 2.49v3.37h-2.13z"/>
    </g>
    <g transform="matrix(1.5198 0 0 1.5198 -12.575 53.354)">
      <path class="cls-3" d="m10.173 139.32h3.95a3.82 3.82 0 0 1 2.74 0.92 2.42 2.42 0 0 1 0.71 1.79 2.45 2.45 0 0 1-1.45 2.33 2.51 2.51 0 0 1 1.88 2.51v0.07c0 1.89-1.52 2.88-3.8 2.88h-4zm5.2 3.09c0-0.76-0.54-1.17-1.47-1.17h-1.61v2.37h1.51c1 0 1.57-0.38 1.57-1.18zm-1.18 3h-1.9v2.46h1.94c1 0 1.59-0.41 1.59-1.23 0-0.73-0.55-1.2-1.63-1.2z"/>
      <path class="cls-3" d="m19.353 141.79h2.13v1.42a2.12 2.12 0 0 1 2.17-1.56v2.31h-0.09c-1.3 0-2.08 0.81-2.08 2.49v3.37h-2.13z"/>
      <path class="cls-3" d="m24.883 138.99h2.24v1.94h-2.24zm0.05 2.8h2.13v8h-2.13z"/>
      <path class="cls-3" d="m28.543 145.92v-0.18a3.78 3.78 0 0 1 3.72-4.1 3.45 3.45 0 0 1 2.63 1.08l-1.16 1.54a1.91 1.91 0 0 0-1.44-0.72c-1 0-1.63 0.93-1.63 2.24v0.05c0 1.34 0.61 2.27 1.68 2.27a1.9 1.9 0 0 0 1.45-0.74l1.13 1.42a3.43 3.43 0 0 1-2.73 1.22c-2.13 0-3.65-1.7-3.65-4.08z"/>
      <path class="cls-3" d="m35.603 145.91v-0.17a3.79 3.79 0 1 1 7.56 0v0.17a3.79 3.79 0 1 1-7.56 0zm5.45 0v-0.1c0-1.31-0.66-2.3-1.68-2.3s-1.67 1-1.67 2.28v0.1c0 1.29 0.67 2.3 1.69 2.3s1.66-1 1.66-2.31z"/>
      <path class="cls-3" d="m44.643 138.99h2.13v10.83h-2.13z"/>
      <path class="cls-3" d="m48.243 145.9v-0.14c0-2.38 1.48-4.12 3.51-4.12 2.29 0 3.42 1.87 3.42 4.27v0.69h-4.8a1.73 1.73 0 0 0 1.75 1.62 2.33 2.33 0 0 0 1.68-0.8l1.1 1.3a3.72 3.72 0 0 1-2.87 1.28 3.77 3.77 0 0 1-3.79-4.1zm4.87-0.71c-0.09-1.11-0.57-1.8-1.36-1.8s-1.29 0.66-1.41 1.8z"/>
      <path class="cls-3" d="m56.523 147.26v-5.47h2.11v4.84c0 0.94 0.42 1.43 1.14 1.43s1.17-0.49 1.17-1.43v-4.84h2.18v8h-2.18v-1.08a2.42 2.42 0 0 1-2 1.24c-1.57 0.03-2.42-1.03-2.42-2.69z"/>
      <path class="cls-3" d="m64.783 141.79h2.13v1.42a2.12 2.12 0 0 1 2.21-1.56v2.31h-0.09c-1.31 0-2.09 0.81-2.09 2.49v3.37h-2.16z"/>
    </g>
    <g transform="matrix(1.5198 0 0 1.5198 -8.3293 58.649)">
      <path class="cls-3" d="m26.148 47.505h6.76v2h-4.6v2.27h4.05v2h-4.05v2.34h4.66v2h-6.82z"/>
      <path class="cls-3" d="m37.498 52.285 1.28-2.35h2.2l-2.36 3.94 2.41 4.12h-2.22l-1.34-2.5-1.35 2.5h-2.22l2.4-4.09-2.31-3.94h2.25z"/>
      <path class="cls-3" d="m42.198 49.965h2.13v1.11a2.52 2.52 0 0 1 2.17-1.26c1.59 0 3.06 1.3 3.06 4v0.23c0 2.75-1.45 4-3.06 4a2.6 2.6 0 0 1-2.17-1.18v3.42h-2.13zm5.23 4.09v-0.15c0-1.37-0.67-2.23-1.56-2.23s-1.57 0.86-1.57 2.23v0.15c0 1.36 0.69 2.23 1.57 2.23s1.56-0.87 1.56-2.23z"/>
      <path class="cls-3" d="m51.058 47.175h2.13v10.82h-2.13z"/>
      <path class="cls-3" d="m54.678 54.085v-0.17a3.84 3.84 0 0 1 3.79-4.1 3.8 3.8 0 0 1 3.77 4.09v0.17a3.79 3.79 0 1 1-7.56 0zm5.46 0v-0.1c0-1.31-0.66-2.3-1.68-2.3s-1.68 1-1.68 2.28v0.1c0 1.29 0.67 2.3 1.69 2.3s1.67-1 1.67-2.31z"/>
      <path class="cls-3" d="m63.618 49.965h2.13v1.42a2.11 2.11 0 0 1 2.17-1.56v2.31h-0.09c-1.3 0-2.08 0.81-2.08 2.49v3.37h-2.13z"/>
      <path class="cls-3" d="m68.428 55.705v-0.09c0-1.77 1.16-2.56 2.81-2.56a4.3 4.3 0 0 1 1.68 0.33v-0.25c0-0.92-0.56-1.4-1.52-1.4a4.52 4.52 0 0 0-1.84 0.45l-0.59-1.67a5.76 5.76 0 0 1 2.75-0.65 3.37 3.37 0 0 1 2.44 0.83 3.33 3.33 0 0 1 0.83 2.43v4.87h-2.09v-0.87a2.47 2.47 0 0 1-2.08 1 2.29 2.29 0 0 1-2.39-2.42zm4.52-0.34v-0.68a2.9 2.9 0 0 0-1.19-0.25c-0.78 0-1.27 0.39-1.27 1.12a0.94 0.94 0 0 0 1 1 1.27 1.27 0 0 0 1.46-1.19z"/>
      <path class="cls-3" d="m76.878 55.995v-4.23h-0.81v-1.8h0.81v-2.06h2.13v2.06h1.61v1.8h-1.61v3.79c0 0.46 0.21 0.69 0.66 0.69a2 2 0 0 0 0.91-0.23v1.7a3.09 3.09 0 0 1-1.57 0.42 1.87 1.87 0 0 1-2.13-2.14z"/>
      <path class="cls-3" d="m81.448 54.075v-0.14c0-2.38 1.49-4.12 3.51-4.12 2.3 0 3.42 1.87 3.42 4.27v0.69h-4.76a1.72 1.72 0 0 0 1.74 1.62 2.33 2.33 0 0 0 1.68-0.8l1.09 1.29a3.67 3.67 0 0 1-2.86 1.3 3.79 3.79 0 0 1-3.82-4.11zm4.88-0.71c-0.09-1.11-0.57-1.8-1.37-1.8s-1.29 0.66-1.41 1.8z"/>
      <path class="cls-3" d="m89.728 55.435v-5.47h2.12v4.84c0 0.94 0.42 1.42 1.14 1.42s1.17-0.48 1.17-1.42v-4.84h2.13v8h-2.13v-1.05a2.42 2.42 0 0 1-2.06 1.23c-1.48 0-2.37-1.05-2.37-2.71z"/>
      <path class="cls-3" d="m97.998 49.965h2.13v1.42a2.11 2.11 0 0 1 2.17-1.56v2.31h-0.09c-1.3 0-2.08 0.81-2.08 2.49v3.37h-2.13z"/>
    </g>
  </g>
  </symbol>
</svg>
