<svg xmlns="http://www.w3.org/2000/svg" xmlns:xlink="http://www.w3.org/1999/xlink">
  <!-- To add a new symbol to this sprite:
   - Create a new symbol markup
   - Paste the content of the svg
   - Paste the viewBox content of the svg in the symbol markup
   - assign an id to symbol
   - call this svg via:
    <svg class="icon">
      <use href='assets/sprite_icons.svg#mynewid' />
    </svg>
  
  -->
  <symbol id="mars" viewBox="0 0 384 512">
    <path d="M372 64h-63c-10.7 0-16 12.9-8.5 20.5L315 99l-87.6 87.6C203.9 169.9 175.1 160 144 160 64.5 160 0 224.5 0 304s64.5 144 144 144 144-64.5 144-144c0-31.1-9.9-59.9-26.6-83.4L349 133l14.5 14.5c7.6 7.6 20.5 2.2 20.5-8.5V76c0-6.6-5.4-12-12-12zM144 400c-52.9 0-96-43.1-96-96s43.1-96 96-96 96 43.1 96 96-43.1 96-96 96z"></path>
  </symbol>

  <symbol id="venus" viewBox="0 0 288 512">
    <path d="M288 176c0-79.5-64.5-144-144-144S0 96.5 0 176c0 71.4 51.9 130.6 120 142v58H76c-6.6 0-12 5.4-12 12v24c0 6.6 5.4 12 12 12h44v44c0 6.6 5.4 12 12 12h24c6.6 0 12-5.4 12-12v-44h44c6.6 0 12-5.4 12-12v-24c0-6.6-5.4-12-12-12h-44v-58c68.1-11.4 120-70.6 120-142zm-240 0c0-52.9 43.1-96 96-96s96 43.1 96 96-43.1 96-96 96-96-43.1-96-96z"></path>
  </symbol>
</svg>
