<?xml version="1.0" encoding="UTF-8"?>
<svg width="596.89" height="288.53" version="1.1" viewBox="0 0 596.89 288.53" xmlns="http://www.w3.org/2000/svg">
  <g transform="translate(-103.61 -131.68)" stroke-width=".13333">
    <path d="m324.41 310.14h-220.79v-144.26h220.79v144.26" fill="#234f9f"/>
    <g fill="#f5f021">
      <path d="m215.78 183.43 6.3825-0.0213-5.1212 3.8586 2.0146 6.1092-5.1372-3.7839-5.0839 3.7839 1.9986-6.0932-5.1745-3.8372 6.3452-0.016 1.9066-5.9412 1.8693 5.9412"/>
      <path d="m216 287 6.3678-0.024-5.1145 3.8451 1.992 6.0878-5.1225-3.7316-5.0825 3.7608 1.9973-6.0848-5.1665-3.8534h6.3532l1.876-5.9505 1.9 5.9505"/>
      <path d="m164.13 235.33 6.3518-0.0613-5.1372 3.8679 1.9986 6.0945-5.1052-3.7239-5.0919 3.7532 2.0213-6.1092-5.1972-3.8146 6.3518-0.0213 1.9-5.9425 1.908 5.9572"/>
      <path d="m267.68 235.1h6.3678l-5.1225 3.8532 2.0213 6.0718-5.1292-3.7546-5.1052 3.7772 2.0133-6.0945-5.1825-3.8292 6.3598-0.024 1.908-5.9252 1.8693 5.9252"/>
      <path d="m190.25 190.21 6.3452-7e-3 -5.0985 3.8519 2.0213 6.0958-5.1225-3.7706-5.0905 3.7772 1.9906-6.1025-5.1519-3.8212 6.3065-0.024 1.916-5.9572 1.884 5.9572"/>
      <path d="m171.04 209.35 6.3452-0.024-5.0839 3.8372 1.9826 6.0718-5.1052-3.7226-5.0839 3.7839 1.9906-6.1092-5.1665-3.8372h6.3225l1.884-5.9585 1.9146 5.9585"/>
      <path d="m171.15 261.26 6.3598-7e-3 -5.1065 3.8519 1.984 6.0798-5.0985-3.7239-5.0985 3.7386 1.9906-6.0945-5.1452-3.8132h6.3078l1.9-5.9505 1.9066 5.9185"/>
      <path d="m239.48 184.18 1.9226 5.9425 6.3518-0.032-5.1665 3.8532 2.0066 6.1012-5.1145-3.7452-5.0612 3.7532 1.976-6.1092-5.1585-3.8212h6.3825l1.8613-5.9425"/>
      <path d="m258.74 203.23 1.9453 5.9425 6.3518-0.0227-5.1665 3.8746 2.0213 6.0492-5.1065-3.7306-5.0919 3.7679 1.976-6.0865-5.1279-3.8292 6.3598-0.0227 1.8386-5.9425"/>
      <path d="m190.05 280.1 6.3905-0.0227-5.1225 3.8452 1.9906 6.1025-5.0985-3.7626-5.1052 3.7772 1.9986-6.0945-5.1599-3.8226 6.3292-0.0227 1.908-5.9425 1.8693 5.9425"/>
      <path d="m258.84 255.14 1.9453 5.9585 6.3292-0.0293-5.1732 3.8826 2.02 6.0638-5.1132-3.7466-5.0759 3.7466 1.9826-6.0638-5.1292-3.8532h6.3532l1.8613-5.9585"/>
      <path d="m240 274.06 1.9373 5.9198h6.3305l-5.1759 3.8599 2.0373 6.0718-5.1065-3.7319-5.0825 3.7772 1.968-6.1172-5.1065-3.8146 6.3212-0.0307 1.8773-5.9345"/>
    </g>
    <g fill="#323236">
      <path d="m131.36 320.31v6.5269c-0.0987 2.3395-0.88931 2.8795-2.3399 2.9634-1.2453-0.0839-2.0973-0.54625-2.1733-2.9634v-6.5269h-2.3319v6.5269c0 1.7557 0.48532 3.0847 1.344 3.9666 0.84397 0.83584 1.976 1.1932 3.0932 1.1932h0.0307c1.192 0 2.4013-0.35733 3.2972-1.2536 0.90398-0.88131 1.3986-2.2266 1.3986-3.9676v-6.4654h-2.3186"/>
      <path d="m143.92 320.31v7.0816c-0.144-0.21253-0.312-0.42559-0.47199-0.65358l-4.7252-6.428h-1.8773v11.518h2.3093v-7.0972c0.21333 0.28959 0.42666 0.57078 0.64665 0.87491l4.5586 6.2222h1.8693v-11.518h-2.3093"/>
      <path d="m150.89 320.3h-1.5106v11.518h2.3239v-11.518h-0.81331"/>
      <path d="m159.91 329.8h-0.0147c-2.0973-8e-3 -3.3519-1.651-3.3746-3.6332 0.0613-2.1578 1.0946-3.7922 3.4279-3.8135 2.2866 0 3.3506 1.7922 3.3959 3.6307-0.0533 2.3186-1.276 3.7915-3.4346 3.816m0.076-9.6587c-3.2519 7e-3 -5.8278 2.5599-5.8278 6.0624 0 3.2827 2.4853 5.7759 5.7212 5.7905h0.016c2.9399-0.0147 5.7892-2.2103 5.8052-6.064-0.016-3.2128-2.3786-5.7821-5.7145-5.7889"/>
      <path d="m175.2 320.31v7.0972c-0.152-0.21306-0.31866-0.44119-0.47866-0.66918l-4.7186-6.428h-1.8853v11.518h2.3106v-7.1034c0.212 0.29586 0.42533 0.57705 0.63866 0.88118l4.5586 6.2222h1.8773v-11.518h-2.3026"/>
      <path d="m186.38 320.3v11.518h7.2118v-2.2109h-4.9079v-2.7197h4.4146v-2.1896h-4.4146v-2.1797h4.6652v-2.2186h-6.9692"/>
      <path d="m202.9 320.31v6.5269c-0.0907 2.3395-0.88931 2.8795-2.3319 2.9634-1.2386-0.0755-2.0973-0.54625-2.1813-2.9634v-6.5269h-2.3253v6.5269c0 1.7557 0.47866 3.0847 1.3373 3.9666 0.84398 0.83584 1.984 1.1932 3.0933 1.1932h0.0307c1.192 0 2.4079-0.35733 3.2972-1.2536 0.90397-0.88131 1.4053-2.2266 1.4053-3.9676v-6.4654h-2.3253"/>
      <path d="m210.72 322.47c0.23599-0.0229 0.53198-0.0391 0.85864-0.0391 1.4973 0.0844 2.0666 0.35719 2.0746 1.3374-0.0227 0.77451-0.45599 1.2625-1.8386 1.3224h-1.0946zm4.7799 5.6076c-0.144-0.64678-0.42533-1.2385-0.83598-1.7333 0.79865-0.61451 1.3306-1.5572 1.3226-2.6957-8e-3 -0.87505-0.34266-1.7188-0.95864-2.3109-0.78131-0.76771-1.9213-1.1026-3.4412-1.1026-0.81331 0-1.7933 0.0771-2.5613 0.22813l-0.64531 0.13066v11.229h2.3399v-4.528h1.08c0.99464 0.1292 1.1466 0.2656 1.5106 1.5265 0.31999 1.2693 0.48799 2.0521 0.75331 2.5761l0.236 0.42545h2.6133l-0.68399-1.2c-0.14399-0.22812-0.37199-1.0025-0.72931-2.5453"/>
      <path d="m223.8 329.8h-8e-3c-2.0973 0-3.3586-1.651-3.3812-3.6332 0.0533-2.1578 1.1093-3.7922 3.4279-3.8135 2.3013 0 3.3572 1.7922 3.3959 3.6307-0.0453 2.3186-1.2773 3.7915-3.4346 3.816m0.068-9.6587c-3.2372 7e-3 -5.8052 2.5599-5.8052 6.0624 0 3.2827 2.4853 5.7759 5.7145 5.7905h0.0147c2.9399-0.0147 5.8052-2.2103 5.8052-6.064 0-3.229-2.3933-5.7821-5.7292-5.7889"/>
      <path d="m235.02 325.55c-0.25066 0-0.49333-0.0145-0.69865-0.0308v-3.0546c0.23599-0.0224 0.50932-0.0301 0.82931-0.0301 1.4653 0.1 2.096 0.36506 2.1266 1.4905-0.0533 1.0548-0.49332 1.5182-2.2573 1.625m0.13066-5.3187c-0.95864 0-1.8013 0.0912-2.4853 0.1964l-0.66132 0.13693v11.261h2.3173v-4.0879c0.20532 8e-3 0.39465 8e-3 0.60798 8e-3 1.444-8e-3 2.7893-0.38026 3.6852-1.3084 0.66132-0.65212 0.98798-1.5786 0.98798-2.6051 0-1.0026-0.38799-1.8854-1.0493-2.4999-0.79731-0.75212-1.968-1.0864-3.4026-1.1016"/>
      <path d="m242.25 320.3v11.518h7.2185v-2.2109h-4.9092v-2.7197h4.4226v-2.1896h-4.4226v-2.1797h4.6586v-2.2186h-6.9678"/>
      <path d="m251.93 320.3v11.518h7.2185v-2.2109h-4.9092v-2.7197h4.3999v-2.1896h-4.3999v-2.1797h4.6586v-2.2186h-6.9678"/>
      <path d="m268.69 320.31v7.0816c-0.15066-0.21253-0.31066-0.42559-0.48532-0.65358l-4.7266-6.428h-1.8693v11.518h2.3093v-7.1034c0.20533 0.29586 0.41866 0.57705 0.63865 0.88118l4.5599 6.2222h1.876v-11.518h-2.3026"/>
      <path d="m281.24 320.31v7.0972c-0.14533-0.21306-0.31199-0.44119-0.47865-0.66918l-4.7119-6.428h-1.8773v11.518h2.3106v-6.1009c0-0.33479 0-0.66918-0.0147-0.97238 0.204 0.26573 0.41733 0.55479 0.63865 0.85105l4.5586 6.2222h1.884v-11.518h-2.3093"/>
      <path d="m286.7 320.3v11.518h7.2105v-2.2109h-4.8999v-2.7197h4.4146v-2.1896h-4.4066v-2.1797h4.6572v-2.2186h-6.9758"/>
    </g>
    <g fill="#234f9f">
      <path d="m107.91 134.98v9.4091h10.864v1.8893h-10.864v11.692h-1.992v-24.951h15.545v1.9613h-13.553"/>
      <path d="m139.17 139.69c-0.52399-3.3146-3.2132-5.3119-6.6372-5.3119-3.5972 0-6.2172 1.7466-6.2172 4.6692 0 3.0306 3.6319 3.9919 6.9505 4.9199 3.3892 0.96265 8.2438 2.3506 8.2438 7.3772 0 4.0986-3.4919 7.1292-8.7664 7.1292-5.2759 0-8.4891-3.2079-9.0131-7.3078l1.9213-0.53332c0.27999 3.2079 2.7946 5.9518 7.1612 5.9518 4.0519 0 6.6025-2.2093 6.6025-5.2039 0-4.1346-4.6119-4.9185-8.0345-5.9532-2.7946-0.81998-7.1265-2.0306-7.1265-6.3078 0-3.8852 3.5279-6.5945 8.3491-6.5945 4.3666 0 7.7891 2.6026 8.5224 6.6292l-1.956 0.53599"/>
      <path d="m162.19 156.01v1.9613h-16.105v-24.951h15.894v1.9613h-13.902v8.6971h11.213v1.888h-11.213v10.444h14.113"/>
    </g>
    <g fill="#231f20">
      <path d="m118.56 387.1v1.4625h-11.597v-18.613h1.4853v17.15h10.112"/>
      <path d="m133.65 387.1v1.4625h-12.014v-18.613h11.858v1.4625h-10.373v6.4878h8.3664v1.4077h-8.3664v7.7921h10.529"/>
      <path d="m145.77 371.41v7.0185h8.1051v1.4104h-8.1051v8.7212h-1.4866v-18.613h11.598v1.4625h-10.112"/>
      <path d="m166.96 387.45c4.4306 0 7.9491-3.3504 7.9491-8.1905 0-4.892-3.5186-8.1894-7.9491-8.1894-4.4572 0-7.9225 3.2974-7.9225 8.1894 0 4.84 3.4652 8.1905 7.9225 8.1905zm0-17.868c5.2385 0 9.4864 4.0666 9.4864 9.6774 0 5.6103-4.2479 9.6795-9.4864 9.6795-5.2372 0-9.4598-4.0692-9.4598-9.6795 0-5.6108 4.2226-9.6774 9.4598-9.6774"/>
      <path d="m194.5 369.95v18.613h-1.4066l-9.3038-12.79c-1.564-2.1813-2.3453-3.377-2.3719-3.377h-0.0253c-0.0267 0 0.052 2.1812 0.052 4.8395v11.328h-1.4853v-18.613h1.4066l9.2784 12.737c1.4333 1.9666 2.3719 3.2963 2.3973 3.2963h0.0267c0.0253 0-0.0787-2.2322-0.0787-4.7322v-11.301h1.5106"/>
      <path d="m207.38 387.1c4.1186 0 7.6891-2.9255 7.6891-7.7373 0-4.8932-3.5706-7.9503-7.8971-7.9503h-6.0985v15.688zm-0.208-17.15c5.2119 0 9.4344 3.8275 9.4344 9.4128 0 5.4775-4.1706 9.1998-9.2264 9.1998h-7.7918v-18.613h7.5838"/>
      <path d="m230.37 374.92c-0.39066-2.4734-2.3973-3.9614-4.9519-3.9614-2.6839 0-4.6386 1.3016-4.6386 3.4827 0 2.2598 2.7106 2.977 5.1865 3.6692 2.5279 0.71864 6.1505 1.7546 6.1505 5.5051 0 3.0571-2.6066 5.3171-6.5412 5.3171-3.9359 0-6.3332-2.3933-6.7238-5.4515l1.4333-0.39745c0.20799 2.3917 2.084 4.4411 5.3425 4.4411 3.0226 0 4.9252-1.6505 4.9252-3.8838 0-3.0843-3.4399-3.6691-5.9945-4.4415-2.0839-0.61052-5.3159-1.5146-5.3159-4.7051 0-2.8985 2.6319-4.9187 6.2292-4.9187 3.2573 0 5.8105 1.9416 6.3585 4.9452l-1.46 0.39892"/>
      <path d="m252.29 374.92c-0.39066-2.4734-2.3973-3.9614-4.9519-3.9614-2.6839 0-4.6386 1.3016-4.6386 3.4827 0 2.2598 2.7106 2.977 5.1865 3.6692 2.5279 0.71864 6.1505 1.7546 6.1505 5.5051 0 3.0571-2.6066 5.3171-6.5412 5.3171-3.9359 0-6.3332-2.3933-6.7238-5.4515l1.4333-0.39745c0.20799 2.3917 2.084 4.4411 5.3425 4.4411 3.0226 0 4.9252-1.6505 4.9252-3.8838 0-3.0843-3.4399-3.6691-5.9945-4.4415-2.084-0.61052-5.3159-1.5146-5.3159-4.7051 0-2.8985 2.6319-4.9187 6.2292-4.9187 3.2572 0 5.8105 1.9416 6.3585 4.9452l-1.46 0.39892"/>
      <path d="m265.78 387.45c4.4306 0 7.9491-3.3504 7.9491-8.1905 0-4.892-3.5186-8.1894-7.9491-8.1894-4.4559 0-7.9225 3.2974-7.9225 8.1894 0 4.84 3.4666 8.1905 7.9225 8.1905zm0-17.868c5.2385 0 9.4864 4.0666 9.4864 9.6774 0 5.6103-4.2479 9.6795-9.4864 9.6795-5.2372 0-9.4598-4.0692-9.4598-9.6795 0-5.6108 4.2226-9.6774 9.4598-9.6774"/>
      <path d="m294.3 374.84c-1.356-2.3399-3.9092-3.7759-6.7758-3.7759-4.4826 0-7.9225 3.2974-7.9225 8.1894 0 4.84 3.4919 8.1638 7.9225 8.1638 3.1013 0 5.7599-1.7014 7.0625-4.3066l1.4853 0.42385c-1.512 3.2984-4.7426 5.3984-8.5478 5.3984-5.2385 0-9.4611-4.0692-9.4611-9.6795 0-5.6108 4.2226-9.6774 9.4611-9.6774 3.5706 0 6.6452 1.9134 8.2878 4.8655l-1.512 0.39839"/>
      <path d="m299.08 388.57v-18.613h1.4853v18.613h-1.4853"/>
      <path d="m316.5 381.78-3.3626-7.8441c-0.39066-0.95731-0.80798-2.153-0.83332-2.153h-0.0267c-0.0253 0-0.44266 1.1957-0.83331 2.153l-3.3626 7.8441zm0.59998 1.3573h-9.6171l-2.3199 5.4239h-1.6413l8.1051-18.613h1.3293l8.1051 18.613h-1.6426l-2.3186-5.4239"/>
      <path d="m335.61 387.1v1.4625h-11.597v-18.613h1.4853v17.15h10.112"/>
      <path d="m357.22 387.1v1.4625h-12.014v-18.613h11.858v1.4625h-10.372v6.4878h8.3651v1.4077h-8.3651v7.7921h10.528"/>
      <path d="m375.17 369.95v11.061c0 5.1587-2.6066 7.9509-7.3238 7.9509-4.7692 0-7.3238-2.7922-7.3238-7.9509v-11.061h1.4866v11.114c0 4.2812 1.9813 6.4342 5.8372 6.4342 3.8572 0 5.8119-2.153 5.8119-6.4342v-11.114h1.512"/>
      <path d="m384.74 380.03c3.3106 0 5.0825-1.7828 5.0825-4.3348 0-2.7401-1.9546-4.2811-5.0825-4.2811h-3.7786v8.6159zm5.4999 8.5342-4.3519-7.2588c-0.39199 0.0536-0.80798 0.0792-1.2253 0.0792h-3.7012v7.1796h-1.4853v-18.613h5.1865c4.1692 0 6.6972 2.2062 6.6972 5.7436 0 2.7119-1.4586 4.5718-3.9612 5.3171l4.5346 7.552h-1.6933"/>
      <path d="m403.27 387.45c4.4292 0 7.9478-3.3504 7.9478-8.1905 0-4.892-3.5186-8.1894-7.9478-8.1894-4.4572 0-7.9238 3.2974-7.9238 8.1894 0 4.84 3.4666 8.1905 7.9238 8.1905zm0-17.868c5.2372 0 9.4851 4.0666 9.4851 9.6774 0 5.6103-4.2479 9.6795-9.4851 9.6795-5.2385 0-9.4611-4.0692-9.4611-9.6795 0-5.6108 4.2226-9.6774 9.4611-9.6774"/>
      <path d="m421.46 380.14c3.3359 0 5.1599-1.675 5.1599-4.3614 0-2.8453-2.0066-4.3598-5.1599-4.3598h-3.7012v8.7211zm0-10.184c4.1959 0 6.6972 2.1797 6.6972 5.8222 0 3.616-2.5013 5.8228-6.6972 5.8228h-3.7012v6.9676h-1.4853v-18.613h5.1865"/>
      <path d="m435.54 368.86-0.52132-0.93011 5.3945-2.9786 0.59866 1.1437zm7.9745 18.241v1.4625h-12.014v-18.613h11.858v1.4625h-10.373v6.4878h8.3665v1.4077h-8.3665v7.7921h10.529"/>
      <path d="m459.64 387.1v1.4625h-12.013v-18.613h11.857v1.4625h-10.372v6.4878h8.3651v1.4077h-8.3651v7.7921h10.528"/>
      <path d="m478.3 369.95v18.613h-1.4066l-9.3038-12.79c-1.564-2.1813-2.3466-3.377-2.372-3.377h-0.0267c-0.0253 0 0.052 2.1812 0.052 4.8395v11.328h-1.4853v-18.613h1.408l9.2771 12.737c1.4346 1.9666 2.3719 3.2963 2.3986 3.2963h0.0253c0.0267 0-0.0773-2.2322-0.0773-4.7322v-11.301h1.5106"/>
      <path d="m501.91 387.1v1.4625h-12.014v-18.613h11.858v1.4625h-10.373v6.4878h8.3664v1.4077h-8.3664v7.7921h10.529"/>
      <path d="m518.15 369.95v1.4625h-6.2545v17.15h-1.512v-17.15h-6.2278v-1.4625h13.994"/>
      <path d="m539.5 387.1v1.4625h-11.597v-18.613h1.4853v17.15h10.112"/>
      <path d="m553.6 381.78-3.3612-7.8441c-0.39066-0.95731-0.80798-2.153-0.83465-2.153h-0.0253c-0.0267 0-0.44266 1.1957-0.83465 2.153l-3.3612 7.8441zm0.59998 1.3573h-9.6171l-2.3186 5.4239h-1.6426l8.1051-18.613h1.3293l8.1051 18.613h-1.6413l-2.32-5.4239"/>
      <path d="m589.56 369.95-6.3318 18.613h-1.252l-3.1266-10.132c-0.88664-2.8177-1.0173-3.7478-1.0426-3.7478h-0.0267c-0.0253 0-0.20799 0.93011-1.068 3.7478l-3.1013 10.132h-1.2773l-6.3332-18.613h1.5386l4.6386 13.614c0.49465 1.5693 0.75598 2.6318 0.78131 2.6318h0.0267c0.0253 0 0.23466-1.0625 0.72931-2.6318l3.4399-10.902h1.252l3.4399 10.902c0.49465 1.5693 0.70265 2.6318 0.72931 2.6318h0.0253c0.0267 0 0.28666-1.0625 0.80798-2.6318l4.6132-13.614h1.5373"/>
      <path d="m603.87 381.78-3.3612-7.8441c-0.39066-0.95731-0.80798-2.153-0.83465-2.153h-0.0253c-0.0267 0-0.44266 1.1957-0.83465 2.153l-3.3612 7.8441zm0.59998 1.3573h-9.6171l-2.3186 5.4239h-1.6426l8.1051-18.613h1.3293l8.1051 18.613h-1.6413l-2.32-5.4239"/>
      <path d="m623.19 387.1v1.4625h-11.597v-18.613h1.4853v17.15h10.112"/>
      <path d="m637.85 387.1v1.4625h-11.597v-18.613h1.4853v17.15h10.112"/>
      <path d="m649.04 387.45c4.4292 0 7.9478-3.3504 7.9478-8.1905 0-4.892-3.5186-8.1894-7.9478-8.1894-4.4572 0-7.9238 3.2974-7.9238 8.1894 0 4.84 3.4666 8.1905 7.9238 8.1905zm0-17.868c5.2372 0 9.4851 4.0666 9.4851 9.6774 0 5.6103-4.2479 9.6795-9.4851 9.6795-5.2386 0-9.4611-4.0692-9.4611-9.6795 0-5.6108 4.2225-9.6774 9.4611-9.6774"/>
      <path d="m676.83 369.95v18.613h-1.4079l-9.3038-12.79c-1.5639-2.1813-2.3453-3.377-2.3706-3.377h-0.027c-0.027 0 0.052 2.1812 0.052 4.8395v11.328h-1.4853v-18.613h1.4067l9.2784 12.737c1.4333 1.9666 2.3719 3.2963 2.3973 3.2963h0.027c0.025 0-0.079-2.2322-0.079-4.7322v-11.301h1.5119"/>
      <path d="m681.91 388.57v-18.613h1.4853v18.613h-1.4853"/>
      <path d="m700.51 387.1v1.4625h-12.014v-18.613h11.858v1.4625h-10.372v6.4878h8.3651v1.4077h-8.3651v7.7921h10.528"/>
      <path d="m106.96 419.84v-18.613h1.4853v18.613h-1.4853"/>
      <path d="m128.09 401.23v18.613h-1.4066l-9.3038-12.79c-1.564-2.1811-2.3466-3.3775-2.3719-3.3775h-0.0267c-0.0253 0 0.052 2.1817 0.052 4.84v11.328h-1.4853v-18.613h1.408l9.2771 12.737c1.4333 1.9666 2.3719 3.2958 2.3986 3.2958h0.0253c0.0267 0-0.0787-2.2317-0.0787-4.7316v-11.301h1.512"/>
      <path d="m148.72 401.23-8.0011 18.613h-1.46l-8.0265-18.613h1.616l6.0732 14.173c0.46932 1.1161 1.016 2.6854 1.0413 2.6854h0.0267c0.0253 0 0.59998-1.5693 1.0426-2.6854l6.0718-14.173h1.616"/>
      <path d="m163.88 418.38v1.4625h-12.014v-18.613h11.857v1.463h-10.372v6.4878h8.3665v1.4093h-8.3665v7.7905h10.529"/>
      <path d="m178.01 406.2c-0.39066-2.4734-2.3973-3.9614-4.9519-3.9614-2.6839 0-4.6386 1.301-4.6386 3.4827 0 2.26 2.7106 2.9771 5.1865 3.6692 2.5279 0.71879 6.1505 1.7546 6.1505 5.5051 0 3.0572-2.6066 5.3171-6.5412 5.3171-3.9359 0-6.3332-2.3931-6.7238-5.452l1.4333-0.39687c0.20799 2.3917 2.0839 4.4411 5.3425 4.4411 3.0226 0 4.9252-1.6505 4.9252-3.8838 0-3.0843-3.4399-3.6682-5.9945-4.4415-2.0839-0.61039-5.3159-1.5145-5.3159-4.7051 0-2.8983 2.6319-4.9187 6.2292-4.9187 3.2573 0 5.8105 1.9417 6.3585 4.9452l-1.46 0.39892"/>
      <path d="m195.52 401.23v1.463h-6.2545v17.15h-1.512v-17.15h-6.2278v-1.463h13.994"/>
      <path d="m198.76 419.84v-18.613h1.4853v18.613h-1.4853"/>
      <path d="m215.36 406.2c-0.39066-2.4734-2.3973-3.9614-4.9519-3.9614-2.6839 0-4.6386 1.301-4.6386 3.4827 0 2.26 2.7106 2.9771 5.1865 3.6692 2.5279 0.71879 6.1505 1.7546 6.1505 5.5051 0 3.0572-2.6066 5.3171-6.5425 5.3171-3.9346 0-6.3318-2.3931-6.7238-5.452l1.4346-0.39687c0.20799 2.3917 2.084 4.4411 5.3412 4.4411 3.0239 0 4.9265-1.6505 4.9265-3.8838 0-3.0843-3.4399-3.6682-5.9945-4.4415-2.084-0.61039-5.3159-1.5145-5.3159-4.7051 0-2.8983 2.6319-4.9187 6.2278-4.9187 3.2586 0 5.8119 1.9417 6.3598 4.9452l-1.46 0.39892"/>
      <path d="m230.76 406.2c-0.39066-2.4734-2.3973-3.9614-4.9519-3.9614-2.6839 0-4.6386 1.301-4.6386 3.4827 0 2.26 2.7106 2.9771 5.1865 3.6692 2.5279 0.71879 6.1505 1.7546 6.1505 5.5051 0 3.0572-2.6066 5.3171-6.5412 5.3171-3.9359 0-6.3332-2.3931-6.7238-5.452l1.4333-0.39687c0.208 2.3917 2.084 4.4411 5.3425 4.4411 3.0226 0 4.9252-1.6505 4.9252-3.8838 0-3.0843-3.4399-3.6682-5.9945-4.4415-2.084-0.61039-5.3159-1.5145-5.3159-4.7051 0-2.8983 2.6319-4.9187 6.2292-4.9187 3.2572 0 5.8105 1.9417 6.3585 4.9452l-1.46 0.39892"/>
      <path d="m248.17 418.38v1.4625h-12.014v-18.613h11.858v1.463h-10.373v6.4878h8.3665v1.4093h-8.3665v7.7905h10.529"/>
      <path d="m266.84 401.23v18.613h-1.408l-9.3038-12.79c-1.5626-2.1811-2.3453-3.3775-2.3706-3.3775h-0.0267c-0.0267 0 0.052 2.1817 0.052 4.84v11.328h-1.4853v-18.613h1.4066l9.2784 12.737c1.4333 1.9666 2.3719 3.2958 2.3973 3.2958h0.0267c0.0253 0-0.0787-2.2317-0.0787-4.7316v-11.301h1.512"/>
      <path d="m284.04 401.23v1.463h-6.2545v17.15h-1.512v-17.15h-6.2278v-1.463h13.994"/>
      <path d="m301.57 418.38c4.1186 0 7.6891-2.9254 7.6891-7.7373 0-4.8931-3.5706-7.9503-7.8971-7.9503h-6.0985v15.688zm-0.208-17.15c5.2119 0 9.4344 3.828 9.4344 9.4134 0 5.4775-4.1706 9.1998-9.2264 9.1998h-7.7918v-18.613h7.5838"/>
      <path d="m325.58 413.06-3.3626-7.8441c-0.39066-0.95718-0.80798-2.153-0.83331-2.153h-0.0267c-0.0253 0-0.44265 1.1958-0.83331 2.153l-3.3626 7.8441zm0.59865 1.3573h-9.6171l-2.3186 5.4239h-1.6413l8.1038-18.613h1.3293l8.1065 18.613h-1.6426l-2.32-5.4239"/>
      <path d="m347.83 401.23v18.613h-1.4066l-9.3038-12.79c-1.564-2.1811-2.3466-3.3775-2.3719-3.3775h-0.0267c-0.0253 0 0.052 2.1817 0.052 4.84v11.328h-1.4853v-18.613h1.408l9.2771 12.737c1.4346 1.9666 2.3719 3.2958 2.3986 3.2958h0.0253c0.0267 0-0.0773-2.2317-0.0773-4.7316v-11.301h1.5106"/>
      <path d="m362.93 406.2c-0.39065-2.4734-2.3973-3.9614-4.9519-3.9614-2.6839 0-4.6386 1.301-4.6386 3.4827 0 2.26 2.7106 2.9771 5.1865 3.6692 2.5279 0.71879 6.1505 1.7546 6.1505 5.5051 0 3.0572-2.6066 5.3171-6.5412 5.3171-3.9359 0-6.3332-2.3931-6.7238-5.452l1.4333-0.39687c0.208 2.3917 2.084 4.4411 5.3425 4.4411 3.0226 0 4.9252-1.6505 4.9252-3.8838 0-3.0843-3.4399-3.6682-5.9945-4.4415-2.084-0.61039-5.3159-1.5145-5.3159-4.7051 0-2.8983 2.6319-4.9187 6.2292-4.9187 3.2572 0 5.8105 1.9417 6.3585 4.9452l-1.46 0.39892"/>
      <path d="m390.37 401.23-8.0011 18.613h-1.46l-8.0265-18.613h1.616l6.0718 14.173c0.46933 1.1161 1.016 2.6854 1.0426 2.6854h0.0253c0.0267 0 0.59998-1.5693 1.0426-2.6854l6.0732-14.173h1.616"/>
      <path d="m401.63 418.72c4.4292 0 7.9478-3.351 7.9478-8.1905 0-4.8904-3.5186-8.1894-7.9478-8.1894-4.4572 0-7.9238 3.299-7.9238 8.1894 0 4.8395 3.4666 8.1905 7.9238 8.1905zm0-17.868c5.2372 0 9.4851 4.0666 9.4851 9.6774 0 5.6103-4.2479 9.6795-9.4851 9.6795-5.2399 0-9.4611-4.0692-9.4611-9.6795 0-5.6108 4.2212-9.6774 9.4611-9.6774"/>
      <path d="m426.98 401.23v1.463h-6.2545v17.15h-1.512v-17.15h-6.2278v-1.463h13.994"/>
      <path d="m435.49 411.31c3.3106 0 5.0825-1.7822 5.0825-4.3343 0-2.7399-1.9546-4.2811-5.0825-4.2811h-3.7786v8.6154zm5.4999 8.5347-4.3519-7.2586c-0.39199 0.0537-0.80798 0.0787-1.2253 0.0787h-3.7012v7.1801h-1.4853v-18.613h5.1865c4.1692 0 6.6972 2.2068 6.6972 5.7441 0 2.7119-1.4586 4.5718-3.9612 5.3171l4.5346 7.552h-1.6933"/>
      <path d="m458.5 418.38v1.4625h-12.014v-18.613h11.857v1.463h-10.372v6.4878h8.3651v1.4093h-8.3651v7.7905h10.529"/>
      <path d="m480.15 413.06-3.3612-7.8441c-0.39066-0.95718-0.80798-2.153-0.83464-2.153h-0.0253c-0.0267 0-0.44265 1.1958-0.83464 2.153l-3.3612 7.8441zm0.59999 1.3573h-9.6171l-2.3186 5.4239h-1.6426l8.1051-18.613h1.3293l8.1051 18.613h-1.6413l-2.3199-5.4239"/>
      <path d="m503.4 401.23-8.0011 18.613h-1.46l-8.0265-18.613h1.616l6.0718 14.173c0.46932 1.1161 1.016 2.6854 1.0426 2.6854h0.0253c0.0267 0 0.59999-1.5693 1.0426-2.6854l6.0732-14.173h1.616"/>
      <path d="m518.56 418.38v1.4625h-12.014v-18.613h11.858v1.463h-10.372v6.4878h8.3651v1.4093h-8.3651v7.7905h10.528"/>
      <path d="m537.23 401.23v18.613h-1.4066l-9.3038-12.79c-1.564-2.1811-2.3466-3.3775-2.372-3.3775h-0.0267c-0.0253 0 0.052 2.1817 0.052 4.84v11.328h-1.4853v-18.613h1.408l9.2771 12.737c1.4333 1.9666 2.3719 3.2958 2.3986 3.2958h0.0253c0.0267 0-0.0787-2.2317-0.0787-4.7316v-11.301h1.512"/>
      <path d="m542.31 419.84v-18.613h1.4866v18.613h-1.4866"/>
      <path d="m554.16 411.31c3.3092 0 5.0812-1.7822 5.0812-4.3343 0-2.7399-1.9533-4.2811-5.0812-4.2811h-3.7786v8.6154zm5.4985 8.5347-4.3519-7.2586c-0.39065 0.0537-0.80798 0.0787-1.2253 0.0787h-3.6999v7.1801h-1.4853v-18.613h5.1852c4.1706 0 6.6985 2.2068 6.6985 5.7441 0 2.7119-1.46 4.5718-3.9612 5.3171l4.5346 7.552h-1.6946"/>
    </g>
    <path d="m509.02 284.7c0.83598 1.6586 4.6839 3.7786 5.3199 5.3385 0.0293 0.0733 0.0773 0.13333 0.144 0.17466 1.4333 0.91318 1.8933 2.6454 1.148 4.0063-0.19199 0.34852-0.72398 0.21093-0.72131-0.1864 7e-3 -0.89584-0.11067-1.764-0.89065-1.8469-0.75198-0.0823-1.6826 0.20573-2.5919-0.0557-1.0386-0.29893-1.86-1.3145-2.2613-2.3173-0.0627-0.15733-0.21466-0.25599-0.38266-0.24266-2.6159 0.188-5.2185-0.47999-7.8318-0.0773-0.11867 0.0187-0.22533 0.0947-0.28133 0.20266-1.2933 2.4534-2.9653 5.6091-6.2252 5.3825-0.15999-0.012-0.31999 0.0683-0.38132 0.21453-0.33599 0.80945-0.19733 1.548-0.0467 2.3417 0.0533 0.2796-0.21066 0.51719-0.48398 0.43959-0.51866-0.14906-0.97731-0.46932-1.24-0.86517-0.37333-0.56239-0.39733-0.93065-0.36533-1.4786 0.148-2.5691 2.06-4.1227 3.8492-5.7905 0.188-0.17599 0.15333-0.49198-0.0747-0.61198-1.0253-0.53599-1.6946-0.172-3.0359-0.34266-0.49332-0.06-1.22 0.21466-1.7693 0.096-0.17199-0.036-0.35332 0.02-0.43465 0.17599-0.46666 0.90532-1.492 1.3693-2.4853 1.1026-0.54532-0.14666-0.79998 0.29986-0.91998 0.53586-0.27333 0.54678-0.0427 1.1604 0.0827 1.7786 0.0667 0.32706-0.28399 0.58012-0.57065 0.40572-0.34532-0.20946-0.67598-0.31879-0.91998-0.78438-0.29732-0.56772-0.69465-1.6265-0.84798-2.0425-0.0413-0.11333-0.0267-0.23466 0.0387-0.33599 0.25999-0.40399 0.95731-1.46 1.308-1.792 1.4226-1.3466 3.0919-1.7946 5.1505-1.7946 3.1239 0 6.4732-0.36132 9.6131-0.53332 0.52132 0 3.3759-4.2972 4.3146-5.9385 2.5839-4.0226 4.6492-7.5318 6.3918-11.95 0.42665-1.0813 0.70265-2.6853 0.58398-4.2412-0.0147-0.20533 0.13067-0.39466 0.33599-0.41466 1.5186-0.13866 1.756 1.9453 2.7746 2.4506 0.95464 0.47198 2.4426-0.38933 3.6546-0.0747 0.29332 0.0747 0.37732 0.45332 0.14933 0.65332-4.4706 3.9559-8.9891 9.1184-10.265 14.588-0.27733 1.1893-0.52399 2.4533 0.168 3.8306m6.0332-7.2638c-0.88665-0.016-1.8893-1e-3 -2.6493-0.10533-0.15733-0.0227-0.31332 0.044-0.38932 0.18132-0.17466 0.31333-0.33599 0.67599-0.49066 1.02-0.11599 0.26133 0.0827 0.55465 0.36666 0.53865 1.1106-0.0587 2.3386-0.35732 3.3466-0.91864 0.33866-0.18933 0.20267-0.70932-0.18399-0.71598m-32.066-28.605c-0.51465-1.928-2.4439-2.5039-2.9493-4.2972-0.044-0.15733-0.17199-0.27599-0.33199-0.29066-1.9933-0.19199-3.8986-0.51465-6.0838-1.0786-3.8519-0.99331-7.1758-2.1919-10.53-4.0186-1.6613-0.90531-3.5066-1.2386-5.3612-1.4453-1.4773-0.16133-3.1959-0.088-4.2412-0.20399-1.0453-0.11467-1.6693 0.35465-2.4093 0.75064-0.74131 0.39599-7.7425 4.3306-11.453 4.5546-1.6533 0.0973-3.2892 1.8146-3.3452 3.2839-0.056 1.468 0.77065 3.6852 2.2266 3.6852-0.34533-0.71731-1.0333-1.7973-0.92931-2.0106 0.26799-0.51066 8.4131-4.0186 10.784-5.8812 0.10533-0.0813 0.24132-0.104 0.36532-0.06 0.072 0.0253 0.14133 0.0507 0.21199 0.0747 0.19733 0.068 0.30933 0.27732 0.24267 0.47599-0.59466 1.7666-3.4919 5.0385-4.0106 7.0492-0.48399 1.888 5e-3 3.6492 1.2146 4.3092 0.28265 0.15466 0.62798-0.0893 0.56265-0.40532-0.0947-0.45866-0.25066-0.80398-0.116-1.1773 0.37466-0.73198 1.3773-1.088 1.656-2.0133 0.77331-2.5653 0.58798-5.7505 2.8679-7.4572 0.0827-0.0627 0.19066-0.0867 0.29466-0.068 0.86398 0.14533 1.652 0.188 2.4626 0.17867 1.468-0.0187 2.8266-0.51199 3.5546-0.64532 0.18533-0.0333 0.37332 0.0667 0.43599 0.24533 0.85464 2.4266 0.34932 5.0492 1.0946 7.5838 0.37199 1.2573 1.036 2.2826 2.0613 3.0852 0.15866 0.12533 0.19466 0.30133 0.17866 0.50666-0.0333 0.41465 0.53866 0.58398 0.71998 0.20666 1.536-3.1933-0.81598-7.4558-1.364-11.298-0.0333-0.23466 0.15999-0.44532 0.39866-0.43065 2.1653 0.14399 4.7679 0.96131 5.9612 2.6106 0.54665 0.75731 0.66265 1.988 0.94531 3.1106 0.18133 0.72131 0.032 1.3786-0.0267 2.0573-0.0347 0.39199 0.48666 0.58665 0.69599 0.25333 0.79464-1.2693 0.79464-3.0039 0.79464-4.4932 0-0.38266 0.54132-0.39599 0.75065-0.38266 1.6693 0.10266 3.3012 0.57065 4.8186 1.12 2.8306 1.0253 5.1905 1.9013 7.2278 3.9919 0.22266 0.232 0.61465 0.10133 0.64931-0.21866 0.044-0.40799 0.0747-0.84931-0.024-1.2573m54.572-25.263c-0.88931-1.3826-3.3772-2.5586-5.4185-1.052-0.14 0.10266-0.18533 0.29732-0.11333 0.45732 0.54265 1.2053 1.2466 2.5106 1.832 3.5346 0.13333 0.23599 0.46665 0.25599 0.62931 0.0387 0.91731-1.2173 1.948-1.9293 2.9159-2.4333 0.19999-0.10533 0.27733-0.35465 0.15466-0.54532m19.616 16.466c-0.15199 0.32399 0.172 0.66931 0.49732 0.51865 4.5026-2.06 8.2478-6.7478 8.2478-14.214 0-8.8704-6.9878-18.585-17.23-18.585-9.2038 0-16.476 6.1798-19.274 9.0478-0.112 0.11333-0.13867 0.27999-0.0693 0.42399 0.53199 1.1186 1.1493 2.4946 1.68 3.6079 0.096 0.20399 0.34533 0.27066 0.54132 0.15733 2.9639-1.6946 5.5945-0.14933 6.3532 0.59331 2.9426 2.8853 1.9946 6.4625 0.72931 8.5771-0.16666 0.27466 0.0467 0.62665 0.36266 0.58665 2.7186-0.34265 6.0705-2.1706 7.7251-5.8038 0.14266-0.31466 0.59198-0.29999 0.70532 0.0253 1.036 2.9479 1.7826 6.0718 0.55198 9.6838-0.0827 0.24266 0.0827 0.50398 0.33733 0.51332 3.6612 0.14399 6.4812-1.2506 8.6598-4.0092 0.196-0.24799 0.59465-0.15733 0.66798 0.15067 0.67332 2.8039 0.60399 6.3998-0.48532 8.7264m0.79598-35.207c0.36933 0.052 0.58799-0.40399 0.31333-0.65599-2.6626-2.4333-5.9878-4.1559-10.726-4.1559-6.6212 0-14.233 5.3039-20.474 12.341-0.10799 0.12133-0.12799 0.296-0.0507 0.43866 0.26399 0.47865 0.54665 0.97731 0.81731 1.476 0.12133 0.22133 0.41866 0.264 0.59865 0.088 8.2531-8.0051 18.276-9.8931 24.158-9.8931 1.848 0 3.6066 0.10933 5.3639 0.36132m2.5853-10.468c1.38-8e-3 2.9186 0.0533 4.5546 0.228 0.43599 0.048 0.59066-0.56532 0.18533-0.73332-4.1986-1.748-8.7544-2.6226-13.32-2.5146-6.2852 0.14933-12.708 2.2146-18.084 5.8158-4.0506 2.7133-7.6118 6.6172-9.8864 10.805-0.072 0.13467-0.056 0.29866 0.04 0.41999 0.32666 0.40799 0.64798 0.82665 0.96131 1.2586l0.30132 0.42799c0.14 0.19733 0.42399 0.21599 0.58799 0.0373 4.0826-4.4106 9.0064-8.1238 14.372-10.79 6.4132-3.1866 13.429-4.8999 20.287-4.9545m-6.0998-6.9385c-0.84264-0.044-1.6866-0.0493-2.5306-0.02-0.0907 4e-3 -0.17333 0.036-0.23999 0.096-0.25866 0.23199-0.58532 0.51598-0.91731 0.79998-0.27466 0.23599-0.0987 0.68798 0.26532 0.67065 0.76398-0.0387 1.5826-0.052 2.2226-0.0373 0.0693 0 0.136-0.0147 0.19733-0.0507 0.41466-0.23467 0.81598-0.48933 1.2066-0.75865 0.30132-0.208 0.15999-0.67865-0.204-0.69998m5.3319-4.9426c0.80665-1.7266 1.404-3.7559 1.6213-5.4999 0.0293-0.22666-0.15599-0.42799-0.38799-0.42532-0.76664 0.0107-1.5373 0.0453-2.3119 0.10266-0.16533 0.0133-0.30266 0.13333-0.33999 0.29333-0.37199 1.5693-0.95331 3.0946-1.7226 4.5146-0.12 0.22133 0 0.49066 0.24399 0.54932 0.81998 0.19466 1.6333 0.41332 2.4413 0.66265 0.18 0.056 0.37599-0.0253 0.45599-0.19733m-27.919 6.3212c-3.2306 3.5879-5.3225 7.9398-6.5412 12.129-0.116 0.40265 0.40799 0.66665 0.67065 0.33866 1.5733-1.9586 3.3572-3.7839 5.3772-5.2785 0.0973-0.0707 0.15466-0.18533 0.15066-0.30799-0.0707-2.004 0.23199-4.2412 0.98931-6.5118 0.13333-0.39466-0.36799-0.67865-0.64665-0.36932m17.469-27.657c6.0185-1.0493 10.94-1.028 16.01-0.0187 0.072 0.0147 0.148 8e-3 0.216-0.0213 4.0986-1.6893 9.1624-4.1052 13.305-7.9838 0.30932-0.28933-4e-3 -0.79465-0.39733-0.63466-3.2946 1.328-6.8678 2.2613-11.557 2.0373-0.35599-0.016-0.50399-0.46266-0.224-0.68132 2.3933-1.864 7.7398-6.5105 9.9851-15.028 0.104-0.39066-0.39466-0.64932-0.65865-0.34533-9.0824 10.397-18.584 17.261-26.929 21.969-0.37199 0.21199-0.17066 0.78131 0.24932 0.70664m12.15 12.974c6.9798 0 13.532 1.7933 18.172 6.6732 3.6786 3.8679 5.3279 9.7718 5.0719 14.418-0.024 0.43332 0.57065 0.57199 0.73464 0.172 3.3692-8.2731 1.196-15.853-2.6973-21.191-5.5132-7.5558-15.066-11.478-25.419-11.478-15.58 0-27.019 8.5131-32.663 16.096-4.9945 6.7092-7.1825 15.388-6.2932 23.706 0.0107 0.0987 0.0587 0.18933 0.13466 0.25199 0.87464 0.73598 1.7213 1.5066 2.5346 2.3146 0.224 0.22133 0.59732 0.096 0.64265-0.216 2.7639-18.625 19.962-30.746 39.783-30.746m-66.488 53.837c6.3892 0 10.942-2.8573 13.984-6.7825 0.21866-0.28266-0.036-0.68532-0.38666-0.60932-1.2706 0.272-3.1572 0.49332-4.7639 0.42133-0.35466-0.0147-0.49466-0.45466-0.22-0.67865 2.5666-2.104 4.3746-5.6265 4.3746-9.5104 0-8.3118-8.0745-15.076-16.05-15.076-5.3919 0-8.4385 3.3092-10.092 5.5425-0.072 0.1-0.188 0.15333-0.31199 0.14933-4.5066-0.13066-8.0678 2.4773-8.0678 6.5892 0 5.6879 8.5451 19.954 21.534 19.954m14.066-3.3679c1.184 0.11467 2.4253 0.164 3.4399 0.1 0.20532-0.012 0.36132-0.19333 0.35465-0.39866-0.052-1.352-0.22399-2.6119-0.48532-3.9639-0.0667-0.34399-0.52398-0.42799-0.70265-0.12533-0.78931 1.3493-1.748 2.6093-2.8386 3.7359-0.224 0.23199-0.0893 0.62132 0.23199 0.65198m13.229 13.153c-4.3079 0.25466-11.508 0.22399-18.904-1.412-0.41466-0.0907-0.64799 0.46132-0.29466 0.69332 5.3319 3.4919 13.084 4.0212 18.97 3.7746 0.17466-7e-3 0.31866-0.13066 0.35732-0.30133 0.13867-0.62665 0.244-1.5626 0.27066-2.3573 8e-3 -0.22666-0.17332-0.41199-0.39999-0.39732m-17.396-9.9038c2.9586 0.53198 5.1825 1.4053 7.2745 2.4226 0.236 0.11467 0.51066-0.0333 0.54799-0.29199 0.12133-0.84398 0.152-1.664 0.14933-2.5986 0-0.20533-0.15866-0.37466-0.36399-0.38266-1.3733-0.0507-4.1026-0.31466-6.0158-0.81731-0.11466 0.024-0.20533 0.0413-0.31866 0.0653-0.40399 0.30666-0.90798 0.61998-1.3986 0.89998-0.30933 0.17466-0.22266 0.63998 0.12533 0.70264m-11.096 2.6959c6.3532 2.9972 11.985 4.1172 17.392 4.6466 0.17733 0.0173 0.34399-0.0893 0.40266-0.256 0.20133-0.57465 0.37599-1.164 0.52932-1.7586-0.072-0.16-0.12133-0.27599-0.192-0.43599-6.1225-3.3319-11.374-3.5759-13.465-3.2332-1.1053 0.17999-2.7186 0.37599-4.4919 0.31199-0.41066-0.0147-0.54665 0.55199-0.17466 0.72532m24.634 4.9719c1.236 0.0173 2.7746 0.0187 3.9732-0.0867 0.196-0.0173 0.34266-0.18 0.34399-0.37599 4e-3 -0.93998-0.11999-2.3613-0.37599-3.6212-0.0653-0.32265-0.48265-0.41332-0.67865-0.14799-0.88664 1.2026-1.9613 2.4346-3.4746 3.5412-0.29732 0.216-0.15733 0.68532 0.212 0.69065m-18.28 2.096c-1.2373-0.99731-2.3466-2.224-3.0239-3.0706-0.0427-0.052-0.096-0.0907-0.16-0.11333-5.3265-1.9786-9.8438-4.5799-14.705-8.4851-0.0373-0.0293-0.08-0.052-0.12667-0.0653-4.2292-1.2506-8.3638-3.0866-13.57-7.0692-0.30133-0.23066-0.71732 0.0747-0.59199 0.43332 4.3132 12.349 16.41 19.349 31.955 19.052 0.35733-7e-3 0.50132-0.45733 0.22266-0.68132m-2.4733 12.793c-2.4599-2.1186-5.7398-5.2425-7.4705-10.406-0.0427-0.12533-0.14933-0.22266-0.28132-0.24933-2.5479-0.51732-5.0919-1.268-7.4732-2.3306-0.26399-0.11733-0.56265 0.0813-0.53865 0.36799 0.11199 1.2453 0.73465 2.7213 0.87464 4.1666 0.11467 1.1786-0.37999 1.2533-0.89731 1.3466-0.62132 0.11199 0.16666 2.04 3.3852 4.0332 0.13866 0.088 0.21466 0.25066 0.17466 0.40932-0.31999 1.3066-0.46665 3.7799 1.7746 5.2305 1.4213 0.91864 3.4066 0.88798 6.1412-0.53865 1.368-0.71199 2.5666-1.0866 4.1239-1.3693 0.31466-0.0573 0.42932-0.45199 0.18666-0.65999m25.735 10.906c0.64132-2.2973-0.032-4.3772 0-6.4598 0.0187-1.2453 0.43199-2.6693 0.89864-4.0506 0.116-0.34532-0.27066-0.63998-0.57198-0.43599-2.0146 1.356-4.4012 2.5946-6.6598 3.5519-0.35999 0.152-0.68931-0.27999-0.44798-0.58665 2.1039-2.6693 4.0946-6.1505 5.0545-9.6584 0.0667-0.24266-0.11867-0.47866-0.36933-0.47866-4.7052 7e-3 -11.712-0.52932-17.232-2.8213-0.06-0.0253-0.12133-0.0333-0.18666-0.0253-2.4746 0.33732-6.3665 0.61865-10.378 0.028-0.29466-0.0427-0.53198 0.25332-0.41065 0.52665 2.0493 4.5906 5.8625 8.2465 11.953 12.017 2.7813 1.7226 6.0425 4.0612 6.8505 7.5518 0.052 0.224 0.28132 0.36 0.49865 0.284 1.2453-0.43466 1.7933-0.144 2.3306 0.87198 0.48265 0.90931 1.0933 1.832 1.7613 1.84 0.54532 7e-3 0.73065-0.14666 1.5546-0.31599 0.50932-0.0893 1.0013-0.0573 1.3466 0.0987 0.62665 0.28266 1.0546 0.38666 1.4186 0.32933 1.4-0.224 2.208-0.89865 2.5893-2.2666m15.689-10.088c-3.5132-4.1292-4.4986-8.1918-4.8332-12.274-0.0267-0.31999 0.32666-0.53199 0.59065-0.34799 2.12 1.46 4.6279 2.5653 7.3172 2.6666 0.35866 0.0147 0.52932-0.43466 0.25866-0.67199-5.5999-4.8892-10.16-11.196-13.796-19.594-2.9719-6.8652-6.6292-12.82-13.166-17.73-3.0426-2.2839-7.0638-4.5546-11.593-5.9198-0.39865-0.12-0.66398 0.39999-0.34132 0.66398 7.8211 6.3865 7.2705 14.868 4.8146 19.589-0.16133 0.31066 0.13599 0.65865 0.46265 0.53999 1.756-0.64265 3.0373-1.512 3.8986-2.2639 0.20666-0.18 0.53332-0.088 0.61598 0.17466 2.3346 7.4145 1.8306 14.454 0.51199 18.494-0.10533 0.32532 0.25333 0.61465 0.55332 0.44799 3.9812-2.2093 6.7558-6.0332 7.8825-9.5011 0.11333-0.348 0.59599-0.35733 0.72265-0.0107 3.1879 8.6838 2.0813 16.262-0.99731 22.861-0.16266 0.34666 0.22933 0.68798 0.54932 0.48132 1.204-0.77865 2.5266-1.784 3.6692-2.8306 0.25066-0.22932 0.65332-0.04 0.63599 0.29866-0.34266 6.3025 1.4546 11.338 4.2226 15.628 0.21066 0.32399 0.71598 0.16533 0.70131-0.21999-0.17866-5.1172 0.40266-10.093 0.97598-13.854 0.0533-0.35733 0.53732-0.45066 0.71198-0.13333 1.3906 2.5293 3.2866 3.6639 5.2519 4.1279 0.36132 0.0853 0.62132-0.33732 0.37999-0.61998m28.369-5.6105c-5.6079 3.3906-11.225 3.3906-15.417 2.2426-0.132-0.0373-0.27066 0-0.36666 0.1-2.2266 2.3039-5.0852 4.7972-9.6011 5.6332-0.38666 0.072-0.41866 0.62132-0.0427 0.73865 2.2839 0.72398 4.3679 0.53599 6.1745-0.20133 0.31866-0.13066 0.63199 0.22 0.47866 0.52932-1.5013 3.0439-3.8719 4.8826-6.1198 6.3332-0.33866 0.21866-0.156 0.74131 0.24533 0.70398 3.4359-0.32532 6.5878-1.964 8.7904-3.6492 0.276-0.212 0.66132 0.0213 0.60399 0.36532-1.036 6.4092-1.1093 11.92-0.26799 16.678 0.08 0.44666 0.72931 0.40933 0.75731-0.0427 0.47999-7.6745 3.5039-12.624 6.6292-16.173 0.20799-0.23733 0.59198-0.124 0.65731 0.18399 0.48666 2.2786 1.332 4.1506 2.2346 5.7079 0.18932 0.32533 0.67865 0.21733 0.71331-0.15733 0.76265-8.3531 3.0959-14.305 5.0759-18.51 0.16267-0.34133-0.21999-0.67732-0.54532-0.48266m11.658-14.548c0.45865-6.9318-1.8293-13.784-5.4652-19.461-3.2026-5.0025-9.7331-10.88-17.545-12.278-0.41999-0.0747-0.62399 0.50799-0.24666 0.71065 3.5319 1.892 6.4518 4.8345 8.2851 8.0225 0.18133 0.31333-0.13733 0.67732-0.47198 0.54266-1.816-0.71865-3.6426-1.148-5.5359-1.3973-0.41199-0.0547-0.60531 0.49332-0.24666 0.70398 6.9825 4.1226 10.449 11.665 10.449 18.624 0 10.69-7.5932 15.358-11.61 16.56-2.3119 0.69065-4.7972 0.81998-7.1905 0.42266-0.39065-0.0667-0.60798 0.45465-0.28266 0.68265 3.6372 2.5559 9.5851 2.7546 14.218 0.86664 2.9973-1.2186 5.6705-3.5266 7.2932-5.9758 0.19999-0.30132 0.66665-0.19066 0.70131 0.168 0.26933 2.7799-0.144 5.4852-0.75598 7.7011-0.10133 0.36799 0.34666 0.63465 0.62932 0.37599 3.5599-3.2492 7.2825-8.8371 7.7745-16.268m-11.129 40.511c-0.17732 0.39866-0.78264 0.24533-0.73064-0.18933 0.66931-5.6238 3.4772-11.27 6.5305-16.384 4.5639-7.6438 7.2758-16.126 7.8158-24.273 1.0173-15.38-11.028-30.694-24.666-33.595-0.43332-0.0907-0.40399-0.72132 0.0373-0.75732 7.4158-0.59865 15.894 1.4906 21.511 5.5905 6.2212 4.5426 12.333 14.814 12.333 27.646 0 12.474-3.6679 19.782-6.4985 27.231-3.0799 8.1051-5.1252 16.678-5.0439 24.807 4e-3 0.40399-0.55199 0.53466-0.72399 0.16667-3.1826-6.7705-2.7413-14.005-2.1399-18.96 0.0387-0.31999-0.31066-0.53332-0.58399-0.36532-3.1666 1.9586-5.8092 4.5199-7.8411 9.0811m-83.343-77.837c0.12 0.31333 0.56666 0.31733 0.69999 0.0107 1.6133-3.7119 4.2826-6.2238 6.8238-8.8051 1.7773-1.8026 3.1439-3.3839 4.2799-5.2972 0.168-0.28533 0.59332-0.22666 0.69065 0.0867 0.65732 2.144 1.1066 4.3799 1.0706 6.7332-0.0293 1.9613-0.06 3.4999 0.16933 4.7772 0.0747 0.42265 0.68798 0.40799 0.75065-0.016 0.63865-4.3479 2.6599-7.8025 3.7719-10.705 1.712-4.4599 2.24-7.5491 2.24-10.286 0-8.2531-4.7119-12.494-9.0851-12.494-3.0506 0-4.5306 2.0413-4.9652 4.5599-0.37599 2.1946-0.41866 4.9292-2.2359 8.5185-1.296 2.5626-3.7479 6.0358-8.7851 8.4144-0.33332 0.15733-0.27466 0.65065 0.088 0.72132 2.8479 0.55865 5.3412 0.36132 7.4825 0.0147 0.38132-0.0613 0.59599 0.41599 0.30133 0.66665-2.7199 2.2919-3.7132 4.9292-4.0786 7.8611-0.21066 1.6813 0.17866 3.6706 0.78131 5.2399m10.577-8.0798c-1.9466 2.0453-5.4412 5.2065-6.8012 7.8051-0.14933 0.28266 0.11066 0.60799 0.42132 0.53732 2.3786-0.53198 5.3025-0.36399 7.6158 0.30533 0.31466 0.0893 0.59732-0.22399 0.45599-0.51999-1.0693-2.2226-0.88131-5.2159-1.036-7.8825-0.02-0.33332-0.42533-0.48532-0.65599-0.24532m71.428 2.5359c-3.1066-2.3626-6.9505-4.0599-12.706-5.2265-0.27332-0.0547-0.39732-0.37199-0.23199-0.59865 1.0666-1.4666 1.9066-3.0706 2.4319-4.8826 0.0773-0.26399-0.15067-0.52399-0.42266-0.48265-4.7079 0.71198-10.672 2.6039-14.762 4.9159-3.5079 1.984-6.3545 6.0998-6.9718 11.618-0.0347 0.31466 0.29599 0.53332 0.57065 0.37466 3.4266-1.984 7.1732-3.4212 11.006-4.2239 0.0493-0.0107 0.0973-0.0307 0.13867-0.06 1.784-1.252 3.4732-2.5279 4.9719-3.9039 0.0667-0.0613 0.15333-0.096 0.24533-0.1 5.9385-0.20533 10.956 1.332 15.35 3.2252 0.41466 0.17867 0.73865-0.38265 0.37999-0.65598m-85.305-28.527c-0.31066 0.16667-0.25733 0.63466 0.0867 0.71865 1.1253 0.276 2.4999 0.35466 3.4199 0.252 0.63465-0.072 1.8186-0.38266 2.5133-0.56399 0.23332-0.0613 0.35865-0.31732 0.25466-0.53465-0.13333-0.28533-0.29866-0.58265-0.51199-0.87598-0.25599-0.34666-0.49732-0.66798-0.71598-0.97998-0.104-0.14666-0.28933-0.20532-0.45732-0.14133-1.0546 0.40533-2.0973 0.87332-3.1119 1.3706-0.39732 0.19466-0.94797 0.47332-1.4773 0.75464m-5.4932 7.0385c0 1.2533 0.82665 1.7613 1.6826 1.7613 1.24 0 1.7746-0.79864 2.6133-2.5226 0.56666-1.16 1.2533-2.0266 2.1386-2.7226 0.30399-0.23599 0.11999-0.71598-0.264-0.69198-2.3106 0.13866-4.1226 0.92398-5.3185 2.1746-0.53999 0.56399-0.81598 1.3373-0.85198 2.0013m12.504-3.8306c-0.028-0.33332-0.43332-0.47198-0.66932-0.23466-1.0373 1.044-2.2626 1.584-3.6919 2.2973-1.604 0.80131-2.8093 1.8-2.8093 3.4146 0 1.0333 0.87465 1.9973 2.2879 1.9973 1.412 0 2.6253-0.55865 3.6559-2.1306 1.1146-1.7013 1.3933-3.3866 1.2266-5.3439m2.6479-6.6745c-0.18266-0.14799-0.17999-0.41198-0.0133-0.57998 0.18-0.18 0.33466-0.40132 0.44799-0.65998 0.40799-0.93331 0.124-1.9573-0.63199-2.288-0.75598-0.33066-1.6986 0.15733-2.1066 1.0906-0.10266 0.236-0.16133 0.47866-0.17733 0.71198-0.016 0.23333-0.24266 0.39466-0.46932 0.33733-0.21066-0.0533-0.40532-0.0187-0.57199 0.21999-0.18666 0.26666-0.17066 0.74932 0.16133 1.3093 0.23066 0.39066 0.58799 0.81465 1.0226 1.144 0.37333 0.28265 0.74132 0.57598 1.0653 0.89997 0.16666 0.16667 0.43999 0.144 0.57732-0.048 0.31066-0.42665 0.69998-0.84264 1.088-1.176 0.156-0.13333 0.176-0.37465 0.0427-0.53332-0.136-0.15999-0.28799-0.30799-0.43466-0.42799m16.337-23.695c-2.168 0.20399-4.5479 1.1466-6.3865 3.0799-0.21733 0.22799-0.60532 0.11333-0.65865-0.19733-0.172-1.0346-0.064-2.3853-0.116-3.3279-0.016-0.29065-0.33732-0.45998-0.58532-0.30799-2.1813 1.332-4.3359 3.0559-5.9185 6.1652-0.15333 0.30266-0.61199 0.27333-0.70799-0.052-0.26932-0.91197-0.21466-2.0013-0.26266-2.7973-0.0187-0.32799-0.41199-0.48399-0.65331-0.25866-1.7226 1.6093-3.2666 4.0786-4.0706 6.4892-0.112 0.33199-0.57332 0.35466-0.71731 0.0347-0.30266-0.66398-0.45599-1.4893-0.68799-2.104-0.092-0.24132-0.40665-0.31866-0.60531-0.15066-3.7586 3.1852-5.4679 8.5438-4.7812 13.024 0.032 0.20533 0.22533 0.34666 0.43066 0.324 0.98264-0.10667 2.1946-0.59999 3.4359-0.48532 0.136 0.0107 0.26799-0.0453 0.34799-0.156 3.9279-5.4172 10.998-5.8492 15.865-2.7159 0.0787 0.0507 0.172 0.072 0.26399 0.06 4.0079-0.55332 6.6492-2.5893 7.6212-5.3252 1.092-3.0786 0.46665-8.0771-1.4466-11.118-0.0787-0.12533-0.22-0.19466-0.36666-0.18m-25.054 50.285c-4.3332-0.37199-6.7012-1.7093-8.1691-3.4079-0.188-0.21733-0.076-0.55998 0.20666-0.61998 2.2039-0.48266 6.0705-2.0546 7.8425-3.3826 0.87331-0.65865 1.6746-1.4066 2.3959-2.2239 0.23466-0.27066 9e-3 -0.67865-0.34399-0.64132-1.7466 0.18666-3.7892-0.41865-4.5866-2.028-0.12133-0.24399-0.43066-0.30666-0.62399-0.11466-1.3813 1.356-4.1519 2.7413-7.3078 3.5599-0.45866 0.12-1.3653 0.53999-1.744 0.83598-4.8186 3.7812-8.3038 11.117-8.5451 15.938-3e-3 0.0547-0.016 0.10266-0.04 0.14933-1.1773 2.1933-2.6906 6.1998-1.2946 12.378 1.7946 7.9411 6.0625 11.536 10.61 14.872 1.9146 1.4066 4.0506 2.4706 6.3238 3.3919 0.36266 0.14933 0.68265-0.28533 0.43865-0.59199-3.6946-4.6239-5.9998-8.9691-5.9998-12.894 0-5.7772 5.0039-8.4531 8.9798-8.8638 0.10266-0.0107 0.19066-0.0613 0.25199-0.14266 0.62666-0.81465 1.5173-1.5306 2.204-1.996 0.16399-0.112 0.20666-0.32799 0.108-0.49999-2.1373-3.7466-2.6266-8.5678-0.39599-13.168 0.11866-0.24266-0.04-0.52665-0.31066-0.55065m-0.43066-25.151c0.99464-0.57466 2.0586-0.92265 3.0786-1.2813 0.22266-0.0773 0.32266-0.33732 0.21066-0.54398-0.25332-0.47732-0.44932-0.97064-0.48799-1.4933-0.016-0.22399-0.21866-0.38266-0.43998-0.34799-0.48933 0.0747-1.0333 0.16666-1.6013 0.30266-1.4146 0.34132-2.8053 1.1333-3.2279 1.9186-0.44399 0.82531-0.71198 1.9026-1.0026 2.9173-0.10133 0.35466 0.29999 0.63732 0.59599 0.41999 0.91064-0.66799 1.8626-1.3093 2.8746-1.892m5.1759-5.1519c0.0613 0.0333 0.12267 0.0693 0.18133 0.108 0.17333 0.112 0.39466 0.0613 0.52132-0.1 1.2093-1.5626 3.2812-2.0973 4.3746-1.4746 2.2213 1.2653 1.668 3.5946 0.76931 4.8106 0.064 0.052 0.172 0.14666 0.25866 0.24932 1.824-0.82131 4.1932-0.65598 5.9998 0.14667 2.2226 0.99197 3.6052 2.3666 4.7266 3.9799 0.22133 0.31599 0.70932 0.16133 0.70932-0.22533 1e-3 -3.5519-1.716-7.4492-5.6399-9.4438-3.8812-1.9733-9.0531-2.1093-12.024 1.364-0.15733 0.18666-0.0907 0.46666 0.12266 0.58532" fill="#ed1c24"/>
    <g fill="#231f20">
      <path d="m470.03 300.51-5.0599 21.277h-0.0867l-5.2759-21.277h-6.3558l-5.3625 21.018h-0.088l-4.8852-21.018h-6.7892l8.1731 30.877h6.8758l5.1465-21.018h0.0853l5.2332 21.018h6.7452l8.3024-30.877h-6.6585"/>
      <path d="m474.14 315.91c0.34666-5.7529 5.4919-7.4826 10.508-7.4826 4.4546 0 9.8171 0.99584 9.8171 6.3572v11.635c0 2.0317 0.21733 4.0639 0.77865 4.9717h-6.2265c-0.21733-0.69224-0.39066-1.4266-0.43199-2.1614-1.9466 2.0322-4.8012 2.7666-7.5265 2.7666-4.2372 0-7.6105-2.1198-7.6105-6.7025 0-5.0581 3.8052-6.2701 7.6105-6.7889 3.7639-0.56292 7.2652-0.43332 7.2652-2.9415 0-2.637-1.816-3.0265-3.9772-3.0265-2.3359 0-3.8492 0.95038-4.0652 3.3732zm14.184 4.54c-1.0373 0.90931-3.1986 0.95211-5.1012 1.2974-1.904 0.39053-3.6332 1.0385-3.6332 3.2879 0 2.2915 1.772 2.853 3.7626 2.853 4.7999 0 4.9719-3.8051 4.9719-5.1452v-2.2931"/>
      <path d="m496.08 331.39h6.1398v-30.878h-6.1398v30.878"/>
      <path d="m503.83 331.39h6.1412v-30.878h-6.1412v30.878"/>
      <path d="m522.18 308.42c7.0492 0 11.59 4.6707 11.59 11.806 0 7.092-4.5412 11.762-11.59 11.762-7.0052 0-11.546-4.6703-11.546-11.762 0-7.1358 4.5412-11.806 11.546-11.806m0 18.942c4.1946 0 5.4492-3.589 5.4492-7.1358 0-3.5879-1.2546-7.1785-5.4492-7.1785-4.1519 0-5.4065 3.5906-5.4065 7.1785 0 3.5468 1.2546 7.1358 5.4065 7.1358"/>
      <path d="m534.38 309.03h5.8372v3.1135h0.13066c1.556-2.5083 4.2372-3.7203 6.8318-3.7203 6.5305 0 8.1731 3.676 8.1731 9.2118v13.753h-6.1412v-12.629c0-3.6744-1.08-5.4916-3.9346-5.4916-3.3306 0-4.7572 1.8598-4.7572 6.3998v11.721h-6.1398v-22.358"/>
      <path d="m556.9 305.57h6.1412v-5.0597h-6.1412zm0 25.818h6.1412v-22.357h-6.1412v22.357"/>
      <path d="m569.67 321.7c0.172 3.892 2.076 5.6665 5.4919 5.6665 2.4653 0 4.4546-1.513 4.8439-2.8974h5.4052c-1.7293 5.2759-5.4052 7.5238-10.465 7.5238-7.0492 0-11.417-4.8427-11.417-11.762 0-6.7025 4.6279-11.806 11.417-11.806 7.6105 0 11.286 6.3998 10.854 13.276zm9.9891-3.8906c-0.56266-3.1135-1.9026-4.7572-4.8866-4.7572-3.8906 0-5.0159 3.0281-5.1025 4.7572h9.9891"/>
    </g>
  </g>
</svg>
