<?xml version="1.0" encoding="UTF-8"?>
<svg width="1067.3" height="293.23" version="1.1" viewBox="0 0 1067.3 293.23" xml:space="preserve" xmlns="http://www.w3.org/2000/svg"><defs><clipPath id="clipPath216"><path d="m6021.6 689.78h1160.3v1502.4h-1160.3z"/></clipPath><clipPath id="clipPath228"><path d="m6021.6 689.78h1160.3v1502.4h-1160.3z"/></clipPath><clipPath id="clipPath242"><path d="m6021.6 689.78h1160.3v1502.4h-1160.3z"/></clipPath><clipPath id="clipPath256"><path d="m6021.6 689.78h1160.3v1502.4h-1160.3z"/></clipPath></defs><g transform="matrix(1.3333 0 0 -1.3333 0 293.23)"><g transform="scale(.1)"><path d="m5183.6 853.68h-1656v1082h1656v-1082" fill="#234f9f"/><g fill="#f5f021"><path d="m4368.9 1804 47.87 0.16-38.41-28.94 15.11-45.82-38.53 28.38-38.13-28.38 14.99 45.7-38.81 28.78 47.59 0.12 14.3 44.56 14.02-44.56"/><path d="m4370.5 1027.2 47.76 0.18-38.36-28.839 14.94-45.66-38.42 27.988-38.12-28.207 14.98 45.637-38.75 28.901h47.65l14.07 44.63 14.25-44.63"/><path d="m3981.5 1414.8 47.64 0.46-38.53-29.01 14.99-45.71-38.29 27.93-38.19-28.15 15.16 45.82-38.98 28.61 47.64 0.16 14.25 44.57 14.31-44.68"/><path d="m4758.1 1416.5h47.76l-38.42-28.9 15.16-45.54-38.47 28.16-38.29-28.33 15.1 45.71-38.87 28.72 47.7 0.18 14.31 44.44 14.02-44.44"/><path d="m4177.4 1753.2 47.59 0.05-38.24-28.89 15.16-45.72-38.42 28.28-38.18-28.33 14.93 45.77-38.64 28.66 47.3 0.18 14.37 44.68 14.13-44.68"/><path d="m4033.3 1609.6 47.59 0.18-38.13-28.78 14.87-45.54-38.29 27.92-38.13-28.38 14.93 45.82-38.75 28.78h47.42l14.13 44.69 14.36-44.69"/><path d="m4034.1 1220.3 47.7 0.05-38.3-28.89 14.88-45.6-38.24 27.93-38.24-28.04 14.93 45.71-38.59 28.6h47.31l14.25 44.63 14.3-44.39"/><path d="m4546.6 1798.4 14.42-44.57 47.64 0.24-38.75-28.9 15.05-45.76-38.36 28.09-37.96-28.15 14.82 45.82-38.69 28.66h47.87l13.96 44.57"/><path d="m4691.1 1655.5 14.59-44.57 47.64 0.17-38.75-29.06 15.16-45.37-38.3 27.98-38.19-28.26 14.82 45.65-38.46 28.72 47.7 0.17 13.79 44.57"/><path d="m4175.9 1079 47.93 0.17-38.42-28.84 14.93-45.77-38.24 28.22-38.29-28.33 14.99 45.71-38.7 28.67 47.47 0.17 14.31 44.57 14.02-44.57"/><path d="m4691.8 1266.2 14.59-44.69 47.47 0.22-38.8-29.12 15.15-45.48-38.35 28.1-38.07-28.1 14.87 45.48-38.47 28.9h47.65l13.96 44.69"/><path d="m4550.5 1124.3 14.53-44.4h47.48l-38.82-28.95 15.28-45.54-38.3 27.99-38.12-28.33 14.76 45.88-38.3 28.61 47.41 0.23 14.08 44.51"/></g><g fill="#323236"><path d="m3735.7 777.44v-48.953c-0.74-17.547-6.67-21.597-17.55-22.226-9.34 0.629-15.73 4.097-16.3 22.226v48.953h-17.49v-48.953c0-13.168 3.64-23.136 10.08-29.75 6.33-6.269 14.82-8.949 23.2-8.949h0.23c8.94 0 18.01 2.68 24.73 9.402 6.78 6.61 10.49 16.7 10.49 29.758v48.492h-17.39"/><path d="m3829.9 777.44v-53.113c-1.08 1.594-2.34 3.192-3.54 4.902l-35.44 48.211h-14.08v-86.39h17.32v53.23c1.6-2.172 3.2-4.281 4.85-6.562l34.19-46.668h14.02v86.39h-17.32"/><path d="m3882.2 777.45h-11.33v-86.39h17.43v86.39h-6.1"/><path d="m3949.8 706.24h-0.11c-15.73 0.063-25.14 12.383-25.31 27.25 0.46 16.184 8.21 28.442 25.71 28.602 17.15 0 25.13-13.442 25.47-27.231-0.4-17.39-9.57-28.437-25.76-28.621m0.57 72.442c-24.39-0.051-43.71-19.2-43.71-45.469 0-24.621 18.64-43.32 42.91-43.43h0.12c22.05 0.11 43.42 16.578 43.54 45.481-0.12 24.097-17.84 43.367-42.86 43.418"/><path d="m4064.5 777.44v-53.23c-1.14 1.598-2.39 3.309-3.59 5.019l-35.39 48.211h-14.14v-86.39h17.33v53.277c1.59-2.219 3.19-4.328 4.79-6.609l34.19-46.668h14.08v86.39h-17.27"/><path d="m4148.4 777.45v-86.39h54.09v16.582h-36.81v20.398h33.11v16.422h-33.11v16.348h34.99v16.64h-52.27"/><path d="m4272.3 777.44v-48.953c-0.68-17.547-6.67-21.597-17.49-22.226-9.29 0.566-15.73 4.097-16.36 22.226v48.953h-17.44v-48.953c0-13.168 3.59-23.136 10.03-29.75 6.33-6.269 14.88-8.949 23.2-8.949h0.23c8.94 0 18.06 2.68 24.73 9.402 6.78 6.61 10.54 16.7 10.54 29.758v48.492h-17.44"/><path d="m4330.9 761.24c1.77 0.172 3.99 0.293 6.44 0.293 11.23-0.633 15.5-2.679 15.56-10.031-0.17-5.809-3.42-9.469-13.79-9.918h-8.21zm35.85-42.058c-1.08 4.851-3.19 9.289-6.27 13 5.99 4.609 9.98 11.679 9.92 20.218-0.06 6.563-2.57 12.891-7.19 17.332-5.86 5.758-14.41 8.27-25.81 8.27-6.1 0-13.45-0.578-19.21-1.711l-4.84-0.98v-84.219h17.55v33.961h8.1c7.46-0.969 8.6-1.992 11.33-11.449 2.4-9.52 3.66-15.391 5.65-19.321l1.77-3.191h19.6l-5.13 9c-1.08 1.711-2.79 7.519-5.47 19.09"/><path d="m4429 706.24h-0.06c-15.73 0-25.19 12.383-25.36 27.25 0.4 16.184 8.32 28.442 25.71 28.602 17.26 0 25.18-13.442 25.47-27.231-0.34-17.39-9.58-28.437-25.76-28.621m0.51 72.442c-24.28-0.051-43.54-19.2-43.54-45.469 0-24.621 18.64-43.32 42.86-43.43h0.11c22.05 0.11 43.54 16.578 43.54 45.481 0 24.218-17.95 43.367-42.97 43.418"/><path d="m4513.2 738.12c-1.88 0-3.7 0.109-5.24 0.231v22.91c1.77 0.168 3.82 0.226 6.22 0.226 10.99-0.75 15.72-2.738 15.95-11.179-0.4-7.911-3.7-11.387-16.93-12.188m0.98 39.891c-7.19 0-13.51-0.684-18.64-1.473l-4.96-1.027v-84.461h17.38v30.66c1.54-0.063 2.96-0.063 4.56-0.063 10.83 0.063 20.92 2.852 27.64 9.813 4.96 4.891 7.41 11.84 7.41 19.539 0 7.52-2.91 14.141-7.87 18.75-5.98 5.641-14.76 8.148-25.52 8.262"/><path d="m4567.4 777.45v-86.39h54.14v16.582h-36.82v20.398h33.17v16.422h-33.17v16.348h34.94v16.64h-52.26"/><path d="m4640 777.45v-86.39h54.14v16.582h-36.82v20.398h33v16.422h-33v16.348h34.94v16.64h-52.26"/><path d="m4765.7 777.44v-53.113c-1.13 1.594-2.33 3.192-3.64 4.902l-35.45 48.211h-14.02v-86.39h17.32v53.277c1.54-2.219 3.14-4.328 4.79-6.609l34.2-46.668h14.07v86.39h-17.27"/><path d="m4859.8 777.44v-53.23c-1.09 1.598-2.34 3.309-3.59 5.019l-35.34 48.211h-14.08v-86.39h17.33v45.758c0 2.511 0 5.019-0.11 7.293 1.53-1.993 3.13-4.161 4.79-6.383l34.19-46.668h14.13v86.39h-17.32"/><path d="m4900.8 777.45v-86.39h54.08v16.582h-36.75v20.398h33.11v16.422h-33.05v16.348h34.93v16.64h-52.32"/></g><path d="m2827.3 2199.2v-2176.1" fill="none" stroke="#231f20" stroke-width="17.097"/><g><path d="m0.0039062 1246h142.27v427.71l183.66-278.84h3.773l185.58 281.66v-430.53h144.12v659.41h-156.35l-173.36-278.84-173.29 278.84h-156.41v-659.41" fill="#ef2671"/><path d="m516.53 543.86h145.09v659.41h-145.09v-659.41" fill="#f68712"/><path d="m1365.5 422v502.11h-129.03v-357.97h-138.5v310.89h-129.09v-310.89h-133.76v353.24h-129.03v-497.38h659.41" fill="#fcd01b"/><path d="m2078 1207.8c0 177.07-98.01 289.2-297.66 289.2h-372.12v-145.08h377.75c104.59 0 158.26-53.67 158.26-142.27 0-88.54-55.59-142.21-162.99-142.21h-373.02v-145.08h376.79c194.09 0 292.99 108.3 292.99 285.44" fill="#00adef"/><path d="m1408.2 1539.8h164.86l148.86 226.06 147.9-226.06h169.58l-229.91 337.25 220.44 322.15h-164.85l-139.39-213.85-138.5 213.85h-169.59l220.45-324.07-229.85-335.33" fill="#bde261"/><path d="m659.43 1948.2v107.34h-36.785v-71.07h-24.692v63.52h-34.094v-63.52h-23.609v70.17h-36.781v-106.44zm0 126.08v36.28h-85.532l85.532 56.55v32.11h-155.96v-36.27h82.457l-82.457-54.44v-34.23h155.96" fill="#231f20"/><path d="m32.008 3h12.027l24.758 72.172 24.562-72.172h11.902l32.176 92.121h-14.137l-24.051-73.371-24.762 73.762h-11.316l-24.629-73.762-24.055 73.371h-14.457zm150.52 0h12.028l24.761 72.172 24.559-72.172h11.836l32.18 92.121h-14.137l-24.055-73.371-24.754 73.762h-11.324l-24.566-73.762-24.051 73.371h-14.524zm150.46 0h12.031l24.754 72.172 24.629-72.172h11.832l32.176 92.121h-14.133l-24.054-73.371-24.754 73.762h-11.325l-24.566-73.762-24.051 73.371h-14.523zm114.06 0.69922h16.25v18.562h-16.25zm130.24-3.7109c30.258 0 52.715 11.84 68.32 31.16l-27.125 24.062c-13.113-12.16-24.629-17.152-40.554-17.152-21.243 0-36.208 11.203-40.879 32.75h116.37c0.316 4.3633 0.633 8.7695 0.633 12.473 0 47.469-25.586 90.84-81.43 90.84-48.68 0-82.715-39.332-82.715-87.062v-0.6367c0-51.172 37.106-86.434 87.383-86.434m-40.879 100.44c3.711 21.558 16.508 35.64 36.211 35.64 19.957 0 32.434-14.398 35.242-35.64zm152.89-96.731h47.464v93.34c0 22.449 11.582 34.043 29.622 34.043 18.105 0 28.722-11.594 28.722-34.043v-93.34h47.469v108.31c0 38.379-20.918 62.109-56.809 62.109-24.05 0-38.058-12.793-49.004-26.859v23.726h-47.464zm194.47 0h47.403v93.34c0 22.449 10.937 34.043 28.722 34.043s27.824-11.594 27.824-34.043v-93.34h47.4v93.34c0 22.449 10.95 34.043 28.73 34.043s27.76-11.594 27.76-34.043v-93.34h47.47v108.95c0 40.231-21.24 61.473-56.49 61.473-22.77 0-40.3-9.332-54.95-26.543-8.76 16.891-25.26 26.543-47.146 26.543-23.988 0-38.383-12.793-49.32-26.859v23.726h-47.403zm297.4 185.72h49.96v42.148h-49.96zm1.28-185.72h47.47v167.29h-47.47zm171.32-3.7109c30.32 0 52.77 11.84 68.38 31.16l-27.19 24.062c-13.05-12.16-24.63-17.152-40.55-17.152-21.24 0-36.21 11.203-40.88 32.75h116.42c0.33 4.3633 0.64 8.7695 0.64 12.473 0 47.469-25.58 90.84-81.5 90.84-48.68 0-82.71-39.332-82.71-87.062v-0.6367c0-51.172 37.17-86.434 87.39-86.434m-40.88 100.44c3.77 21.558 16.57 35.64 36.2 35.64 20.03 0 32.5-14.398 35.32-35.64zm208.48-99.86c24.05 0 38.12 12.801 49 26.871v-23.742h47.47v167.29h-47.47v-93.328c0-22.449-11.52-33.969-29.62-33.969s-28.72 11.52-28.72 33.969v93.328h-47.47v-108.3c0-38.383 20.92-62.121 56.81-62.121m124.87 3.1289h49.64l33.71 52.141 33.65-52.141h50.92l-58.98 85.852 56.49 81.437h-49.64l-31.54-48.679-31.22 48.679h-50.85l56.48-82.386zm188.71 0h16.25v18.562h-16.25zm93.53-1.9102c22.13 0 43.69 17.66 43.69 47.531v0.3789c0 30.07-21.75 47.402-43.69 47.402-16.76 0-27.57-9.4024-34.99-20.34v56.047h-13.63v-129.11h13.63v17.531c7.03-10.289 18.04-19.441 34.99-19.441m-2.43 12.16c-17.02 0-33.07 14.199-33.07 35.371v0.3789c0 20.859 16.05 35.191 33.07 35.191 17.34 0 32.17-13.82 32.17-35.379v-0.3203c0-22.141-14.52-35.242-32.17-35.242m79.39 29.93h72.47c0.2 2.1094 0.2 3.5195 0.2 4.7422 0 26.93-15.55 48.48-42.61 48.48-25.27 0-43.88-21.242-43.88-47.781 0-28.469 20.53-47.73 45.67-47.73 17.34 0 28.47 6.9219 37.62 17.148l-8.45 7.6133c-7.41-7.8008-16.31-12.922-28.85-12.922-16.06 0-30.25 11.129-32.17 30.449m0 10.941c1.92 17.719 13.94 30.77 29.68 30.77 18.04 0 27.63-14.141 29.23-30.77h-58.91" fill="#231f20"/></g><g fill="#234f9f"><path d="m3559.8 2167.4v-70.57h81.48v-14.17h-81.48v-87.69h-14.94v187.14h116.59v-14.71h-101.65"/><path d="m3794.3 2132.1c-3.93 24.86-24.1 39.84-49.78 39.84-26.98 0-46.63-13.1-46.63-35.02 0-22.73 27.24-29.94 52.13-36.9 25.42-7.22 61.83-17.63 61.83-55.33 0-30.74-26.19-53.47-65.75-53.47-39.57 0-63.67 24.06-67.6 54.81l14.41 4c2.1-24.06 20.96-44.64 53.71-44.64 30.39 0 49.52 16.57 49.52 39.03 0 31.01-34.59 36.89-60.26 44.65-20.96 6.15-53.45 15.23-53.45 47.31 0 29.14 26.46 49.46 62.62 49.46 32.75 0 58.42-19.52 63.92-49.72l-14.67-4.02"/><path d="m3966.9 2009.7v-14.71h-120.79v187.14h119.21v-14.71h-104.27v-65.23h84.1v-14.16h-84.1v-78.33h105.85"/></g><g fill="#231f20"><path d="m3639.7 276.45v-10.969h-86.98v139.6h11.14v-128.63h75.84"/><path d="m3752.9 276.45v-10.969h-90.11v139.6h88.94v-10.969h-77.8v-48.66h62.75v-10.558h-62.75v-58.442h78.97"/><path d="m3843.8 394.11v-52.64h60.79v-10.578h-60.79v-65.411h-11.15v139.6h86.99v-10.969h-75.84"/><path d="m4002.7 273.86c33.23 0 59.62 25.129 59.62 61.43 0 36.691-26.39 61.422-59.62 61.422-33.43 0-59.42-24.731-59.42-61.422 0-36.301 25.99-61.43 59.42-61.43zm0 134.01c39.29 0 71.15-30.5 71.15-72.582 0-42.078-31.86-72.598-71.15-72.598-39.28 0-70.95 30.52-70.95 72.598 0 42.082 31.67 72.582 70.95 72.582"/><path d="m4209.3 405.08v-139.6h-10.55l-69.78 95.93c-11.73 16.36-17.59 25.328-17.79 25.328h-0.19c-0.2 0 0.39-16.359 0.39-36.297v-84.961h-11.14v139.6h10.55l69.59-95.527c10.75-14.75 17.79-24.723 17.98-24.723h0.2c0.19 0-0.59 16.742-0.59 35.492v84.758h11.33"/><path d="m4305.9 276.45c30.89 0 57.67 21.942 57.67 58.031 0 36.7-26.78 59.629-59.23 59.629h-45.74v-117.66zm-1.56 128.63c39.09 0 70.76-28.707 70.76-70.598 0-41.082-31.28-69-69.2-69h-58.44v139.6h56.88"/><path d="m4478.3 367.79c-2.93 18.551-17.98 29.711-37.14 29.711-20.13 0-34.79-9.762-34.79-26.121 0-16.949 20.33-22.328 38.9-27.52 18.96-5.39 46.13-13.16 46.13-41.289 0-22.929-19.55-39.879-49.06-39.879-29.52 0-47.5 17.95-50.43 40.887l10.75 2.981c1.56-17.938 15.63-33.309 40.07-33.309 22.67 0 36.94 12.379 36.94 29.129 0 23.133-25.8 27.519-44.96 33.312-15.63 4.579-39.87 11.36-39.87 35.289 0 21.739 19.74 36.891 46.72 36.891 24.43 0 43.58-14.562 47.69-37.09l-10.95-2.992"/><path d="m4642.7 367.79c-2.93 18.551-17.98 29.711-37.14 29.711-20.13 0-34.79-9.762-34.79-26.121 0-16.949 20.33-22.328 38.9-27.52 18.96-5.39 46.13-13.16 46.13-41.289 0-22.929-19.55-39.879-49.06-39.879-29.52 0-47.5 17.95-50.43 40.887l10.75 2.981c1.56-17.938 15.63-33.309 40.07-33.309 22.67 0 36.94 12.379 36.94 29.129 0 23.133-25.8 27.519-44.96 33.312-15.63 4.579-39.87 11.36-39.87 35.289 0 21.739 19.74 36.891 46.72 36.891 24.43 0 43.58-14.562 47.69-37.09l-10.95-2.992"/><path d="m4743.9 273.86c33.23 0 59.62 25.129 59.62 61.43 0 36.691-26.39 61.422-59.62 61.422-33.42 0-59.42-24.731-59.42-61.422 0-36.301 26-61.43 59.42-61.43zm0 134.01c39.29 0 71.15-30.5 71.15-72.582 0-42.078-31.86-72.598-71.15-72.598-39.28 0-70.95 30.52-70.95 72.598 0 42.082 31.67 72.582 70.95 72.582"/><path d="m4957.8 368.39c-10.17 17.55-29.32 28.32-50.82 28.32-33.62 0-59.42-24.731-59.42-61.422 0-36.301 26.19-61.23 59.42-61.23 23.26 0 43.2 12.761 52.97 32.3l11.14-3.179c-11.34-24.739-35.57-40.489-64.11-40.489-39.29 0-70.96 30.52-70.96 72.598 0 42.082 31.67 72.582 70.96 72.582 26.78 0 49.84-14.351 62.16-36.492l-11.34-2.988"/><path d="m4993.6 265.48v139.6h11.14v-139.6h-11.14"/><path d="m5124.3 316.34-25.22 58.832c-2.93 7.18-6.06 16.148-6.25 16.148h-0.2c-0.19 0-3.32-8.968-6.25-16.148l-25.22-58.832zm4.5-10.18h-72.13l-17.4-40.68h-12.31l60.79 139.6h9.97l60.79-139.6h-12.32l-17.39 40.68"/><path d="m5267.6 276.45v-10.969h-86.98v139.6h11.14v-128.63h75.84"/><path d="m5429.7 276.45v-10.969h-90.11v139.6h88.94v-10.969h-77.79v-48.66h62.74v-10.558h-62.74v-58.442h78.96"/><path d="m5564.3 405.08v-82.957c0-38.691-19.55-59.633-54.93-59.633-35.77 0-54.93 20.942-54.93 59.633v82.957h11.15v-83.359c0-32.11 14.86-48.258 43.78-48.258 28.93 0 43.59 16.148 43.59 48.258v83.359h11.34"/><path d="m5636.1 329.49c24.83 0 38.12 13.371 38.12 32.512 0 20.551-14.66 32.109-38.12 32.109h-28.34v-64.621zm41.25-64.008-32.64 54.442c-2.94-0.402-6.06-0.594-9.19-0.594h-27.76v-53.848h-11.14v139.6h38.9c31.27 0 50.23-16.547 50.23-43.078 0-20.34-10.94-34.289-29.71-39.879l34.01-56.641h-12.7"/><path d="m5775.1 273.86c33.22 0 59.61 25.129 59.61 61.43 0 36.691-26.39 61.422-59.61 61.422-33.43 0-59.43-24.731-59.43-61.422 0-36.301 26-61.43 59.43-61.43zm0 134.01c39.28 0 71.14-30.5 71.14-72.582 0-42.078-31.86-72.598-71.14-72.598-39.29 0-70.96 30.52-70.96 72.598 0 42.082 31.67 72.582 70.96 72.582"/><path d="m5911.5 328.7c25.02 0 38.7 12.563 38.7 32.711 0 21.34-15.05 32.699-38.7 32.699h-27.76v-65.41zm0 76.379c31.47 0 50.23-16.348 50.23-43.668 0-27.121-18.76-43.672-50.23-43.672h-27.76v-52.258h-11.14v139.6h38.9"/><path d="m6017.1 413.26-3.91 6.976 40.46 22.34 4.49-8.578zm59.81-136.81v-10.969h-90.11v139.6h88.94v-10.969h-77.8v-48.66h62.75v-10.558h-62.75v-58.442h78.97"/><path d="m6197.9 276.45v-10.969h-90.1v139.6h88.93v-10.969h-77.79v-48.66h62.74v-10.558h-62.74v-58.442h78.96"/><path d="m6337.8 405.08v-139.6h-10.55l-69.78 95.93c-11.73 16.36-17.6 25.328-17.79 25.328h-0.2c-0.19 0 0.39-16.359 0.39-36.297v-84.961h-11.14v139.6h10.56l69.58-95.527c10.76-14.75 17.79-24.723 17.99-24.723h0.19c0.2 0-0.58 16.742-0.58 35.492v84.758h11.33"/><path d="m6514.9 276.45v-10.969h-90.11v139.6h88.94v-10.969h-77.8v-48.66h62.75v-10.558h-62.75v-58.442h78.97"/><path d="m6636.7 405.08v-10.969h-46.91v-128.63h-11.34v128.63h-46.71v10.969h104.96"/><path d="m6796.8 276.45v-10.969h-86.98v139.6h11.14v-128.63h75.84"/><path d="m6902.6 316.34-25.21 58.832c-2.93 7.18-6.06 16.148-6.26 16.148h-0.19c-0.2 0-3.32-8.968-6.26-16.148l-25.21-58.832zm4.5-10.18h-72.13l-17.39-40.68h-12.32l60.79 139.6h9.97l60.79-139.6h-12.31l-17.4 40.68"/><path d="m7172.3 405.08-47.49-139.6h-9.39l-23.45 75.989c-6.65 21.133-7.63 28.109-7.82 28.109h-0.2c-0.19 0-1.56-6.976-8.01-28.109l-23.26-75.989h-9.58l-47.5 139.6h11.54l34.79-102.11c3.71-11.77 5.67-19.739 5.86-19.739h0.2c0.19 0 1.76 7.969 5.47 19.739l25.8 81.769h9.39l25.8-81.769c3.71-11.77 5.27-19.739 5.47-19.739h0.19c0.2 0 2.15 7.969 6.06 19.739l34.6 102.11h11.53"/><path d="m7279.6 316.34-25.21 58.832c-2.93 7.18-6.06 16.148-6.26 16.148h-0.19c-0.2 0-3.32-8.968-6.26-16.148l-25.21-58.832zm4.5-10.18h-72.13l-17.39-40.68h-12.32l60.79 139.6h9.97l60.79-139.6h-12.31l-17.4 40.68"/><path d="m7424.5 276.45v-10.969h-86.98v139.6h11.14v-128.63h75.84"/><path d="m7534.5 276.45v-10.969h-86.98v139.6h11.14v-128.63h75.84"/><path d="m7618.4 273.86c33.22 0 59.61 25.129 59.61 61.43 0 36.691-26.39 61.422-59.61 61.422-33.43 0-59.43-24.731-59.43-61.422 0-36.301 26-61.43 59.43-61.43zm0 134.01c39.28 0 71.14-30.5 71.14-72.582 0-42.078-31.86-72.598-71.14-72.598-39.29 0-70.96 30.52-70.96 72.598 0 42.082 31.67 72.582 70.96 72.582"/><path d="m7826.8 405.08v-139.6h-10.56l-69.78 95.93c-11.73 16.36-17.59 25.328-17.78 25.328h-0.2c-0.2 0 0.39-16.359 0.39-36.297v-84.961h-11.14v139.6h10.55l69.59-95.527c10.75-14.75 17.79-24.723 17.98-24.723h0.2c0.19 0-0.59 16.742-0.59 35.492v84.758h11.34"/><path d="m7864.9 265.48v139.6h11.14v-139.6h-11.14"/><path d="m8004.4 276.45v-10.969h-90.11v139.6h88.94v-10.969h-77.79v-48.66h62.74v-10.558h-62.74v-58.442h78.96"/><path d="m3552.7 30.91v139.6h11.14v-139.6h-11.14"/><path d="m3711.2 170.51v-139.6h-10.55l-69.78 95.93c-11.73 16.359-17.6 25.332-17.79 25.332h-0.2c-0.19 0 0.39-16.363 0.39-36.301v-84.961h-11.14v139.6h10.56l69.58-95.532c10.75-14.75 17.79-24.719 17.99-24.719h0.19c0.2 0-0.59 16.738-0.59 35.488v84.762h11.34"/><path d="m3865.9 170.51-60.01-139.6h-10.95l-60.2 139.6h12.12l45.55-106.3c3.52-8.3711 7.62-20.141 7.81-20.141h0.2c0.19 0 4.5 11.77 7.82 20.141l45.54 106.3h12.12"/><path d="m3979.6 41.879v-10.969h-90.11v139.6h88.93v-10.973h-77.79v-48.66h62.75v-10.57h-62.75v-58.43h78.97"/><path d="m4085.6 133.22c-2.93 18.551-17.98 29.711-37.14 29.711-20.13 0-34.79-9.758-34.79-26.121 0-16.95 20.33-22.329 38.9-27.52 18.96-5.391 46.13-13.16 46.13-41.289 0-22.93-19.55-39.879-49.06-39.879-29.52 0-47.5 17.949-50.43 40.891l10.75 2.9766c1.56-17.938 15.63-33.309 40.07-33.309 22.67 0 36.94 12.379 36.94 29.129 0 23.133-25.8 27.512-44.96 33.312-15.63 4.578-39.87 11.359-39.87 35.289 0 21.738 19.74 36.891 46.72 36.891 24.43 0 43.58-14.563 47.69-37.09l-10.95-2.992"/><path d="m4216.9 170.51v-10.973h-46.91v-128.63h-11.34v128.63h-46.71v10.973h104.96"/><path d="m4241.2 30.91v139.6h11.14v-139.6h-11.14"/><path d="m4365.7 133.22c-2.93 18.551-17.98 29.711-37.14 29.711-20.13 0-34.79-9.758-34.79-26.121 0-16.95 20.33-22.329 38.9-27.52 18.96-5.391 46.13-13.16 46.13-41.289 0-22.93-19.55-39.879-49.07-39.879-29.51 0-47.49 17.949-50.43 40.891l10.76 2.9766c1.56-17.938 15.63-33.309 40.06-33.309 22.68 0 36.95 12.379 36.95 29.129 0 23.133-25.8 27.512-44.96 33.312-15.63 4.578-39.87 11.359-39.87 35.289 0 21.738 19.74 36.891 46.71 36.891 24.44 0 43.59-14.563 47.7-37.09l-10.95-2.992"/><path d="m4481.2 133.22c-2.93 18.551-17.98 29.711-37.14 29.711-20.13 0-34.79-9.758-34.79-26.121 0-16.95 20.33-22.329 38.9-27.52 18.96-5.391 46.13-13.16 46.13-41.289 0-22.93-19.55-39.879-49.06-39.879-29.52 0-47.5 17.949-50.43 40.891l10.75 2.9766c1.56-17.938 15.63-33.309 40.07-33.309 22.67 0 36.94 12.379 36.94 29.129 0 23.133-25.8 27.512-44.96 33.312-15.63 4.578-39.87 11.359-39.87 35.289 0 21.738 19.74 36.891 46.72 36.891 24.43 0 43.58-14.563 47.69-37.09l-10.95-2.992"/><path d="m4611.8 41.879v-10.969h-90.11v139.6h88.94v-10.973h-77.8v-48.66h62.75v-10.57h-62.75v-58.43h78.97"/><path d="m4751.8 170.51v-139.6h-10.56l-69.78 95.93c-11.72 16.359-17.59 25.332-17.78 25.332h-0.2c-0.2 0 0.39-16.363 0.39-36.301v-84.961h-11.14v139.6h10.55l69.59-95.532c10.75-14.75 17.79-24.719 17.98-24.719h0.2c0.19 0-0.59 16.738-0.59 35.488v84.762h11.34"/><path d="m4880.8 170.51v-10.973h-46.91v-128.63h-11.34v128.63h-46.71v10.973h104.96"/><path d="m5012.3 41.879c30.89 0 57.67 21.941 57.67 58.031 0 36.699-26.78 59.629-59.23 59.629h-45.74v-117.66zm-1.56 128.63c39.09 0 70.76-28.711 70.76-70.602 0-41.082-31.28-69-69.2-69h-58.44v139.6h56.88"/><path d="m5192.4 81.77-25.22 58.832c-2.93 7.179-6.06 16.148-6.25 16.148h-0.2c-0.19 0-3.32-8.969-6.25-16.148l-25.22-58.832zm4.49-10.18h-72.13l-17.39-40.68h-12.31l60.78 139.6h9.97l60.8-139.6h-12.32l-17.4 40.68"/><path d="m5359.3 170.51v-139.6h-10.55l-69.78 95.93c-11.73 16.359-17.6 25.332-17.79 25.332h-0.2c-0.19 0 0.39-16.363 0.39-36.301v-84.961h-11.14v139.6h10.56l69.58-95.532c10.76-14.75 17.79-24.719 17.99-24.719h0.19c0.2 0-0.58 16.738-0.58 35.488v84.762h11.33"/><path d="m5472.5 133.22c-2.93 18.551-17.98 29.711-37.14 29.711-20.13 0-34.79-9.758-34.79-26.121 0-16.95 20.33-22.329 38.9-27.52 18.96-5.391 46.13-13.16 46.13-41.289 0-22.93-19.55-39.879-49.06-39.879-29.52 0-47.5 17.949-50.43 40.891l10.75 2.9766c1.56-17.938 15.63-33.309 40.07-33.309 22.67 0 36.94 12.379 36.94 29.129 0 23.133-25.8 27.512-44.96 33.312-15.63 4.578-39.87 11.359-39.87 35.289 0 21.738 19.74 36.891 46.72 36.891 24.43 0 43.58-14.563 47.69-37.09l-10.95-2.992"/><path d="m5678.3 170.51-60.01-139.6h-10.95l-60.2 139.6h12.12l45.54-106.3c3.52-8.3711 7.62-20.141 7.82-20.141h0.19c0.2 0 4.5 11.77 7.82 20.141l45.55 106.3h12.12"/><path d="m5762.8 39.289c33.22 0 59.61 25.133 59.61 61.43 0 36.679-26.39 61.422-59.61 61.422-33.43 0-59.43-24.743-59.43-61.422 0-36.297 26-61.43 59.43-61.43zm0 134.01c39.28 0 71.14-30.5 71.14-72.582 0-42.078-31.86-72.598-71.14-72.598-39.3 0-70.96 30.52-70.96 72.598 0 42.082 31.66 72.582 70.96 72.582"/><path d="m5952.9 170.51v-10.973h-46.91v-128.63h-11.34v128.63h-46.71v10.973h104.96"/><path d="m6016.7 94.922c24.83 0 38.12 13.367 38.12 32.508 0 20.55-14.66 32.109-38.12 32.109h-28.34v-64.617zm41.25-64.012-32.64 54.441c-2.94-0.4024-6.06-0.5899-9.19-0.5899h-27.76v-53.852h-11.14v139.6h38.9c31.27 0 50.23-16.551 50.23-43.082 0-20.34-10.94-34.289-29.71-39.879l34.01-56.641h-12.7"/><path d="m6189.3 41.879v-10.969h-90.11v139.6h88.93v-10.973h-77.79v-48.66h62.74v-10.57h-62.74v-58.43h78.97"/><path d="m6351.7 81.77-25.21 58.832c-2.93 7.179-6.06 16.148-6.26 16.148h-0.19c-0.2 0-3.32-8.969-6.26-16.148l-25.21-58.832zm4.5-10.18h-72.13l-17.39-40.68h-12.32l60.79 139.6h9.97l60.79-139.6h-12.31l-17.4 40.68"/><path d="m6526.1 170.51-60.01-139.6h-10.95l-60.2 139.6h12.12l45.54-106.3c3.52-8.3711 7.62-20.141 7.82-20.141h0.19c0.2 0 4.5 11.77 7.82 20.141l45.55 106.3h12.12"/><path d="m6639.8 41.879v-10.969h-90.11v139.6h88.94v-10.973h-77.79v-48.66h62.74v-10.57h-62.74v-58.43h78.96"/><path d="m6779.8 170.51v-139.6h-10.55l-69.78 95.93c-11.73 16.359-17.6 25.332-17.79 25.332h-0.2c-0.19 0 0.39-16.363 0.39-36.301v-84.961h-11.14v139.6h10.56l69.58-95.532c10.75-14.75 17.79-24.719 17.99-24.719h0.19c0.2 0-0.59 16.738-0.59 35.488v84.762h11.34"/><path d="m6817.9 30.91v139.6h11.15v-139.6h-11.15"/><path d="m6906.8 94.922c24.82 0 38.11 13.367 38.11 32.508 0 20.55-14.65 32.109-38.11 32.109h-28.34v-64.617zm41.24-64.012-32.64 54.441c-2.93-0.4024-6.06-0.5899-9.19-0.5899h-27.75v-53.852h-11.14v139.6h38.89c31.28 0 50.24-16.551 50.24-43.082 0-20.34-10.95-34.289-29.71-39.879l34.01-56.641h-12.71"/></g><g clip-path="url(#clipPath216)"><path d="m6568.2 1044.5c6.27-12.44 35.13-28.34 39.9-40.04 0.22-0.55 0.58-1 1.08-1.31 10.75-6.849 14.2-19.841 8.61-30.048-1.44-2.614-5.43-1.582-5.41 1.398 0.05 6.719-0.83 13.23-6.68 13.852-5.64 0.617-12.62-1.543-19.44 0.418-7.79 2.242-13.95 9.859-16.96 17.38-0.47 1.18-1.61 1.92-2.87 1.82-19.62-1.41-39.14 3.6-58.74 0.58-0.89-0.14-1.69-0.71-2.11-1.52-9.7-18.401-22.24-42.069-46.69-40.37-1.2 0.09-2.4-0.512-2.86-1.609-2.52-6.071-1.48-11.61-0.35-17.563 0.4-2.097-1.58-3.879-3.63-3.297-3.89 1.118-7.33 3.52-9.3 6.489-2.8 4.218-2.98 6.98-2.74 11.09 1.11 19.269 15.45 30.921 28.87 43.43 1.41 1.32 1.15 3.69-0.56 4.59-7.69 4.02-12.71 1.29-22.77 2.57-3.7 0.45-9.15-1.61-13.27-0.72-1.29 0.27-2.65-0.15-3.26-1.32-3.5-6.79-11.19-10.27-18.64-8.27-4.09 1.1-6-2.249-6.9-4.019-2.05-4.101-0.32-8.703 0.62-13.34 0.5-2.453-2.13-4.351-4.28-3.043-2.59 1.571-5.07 2.391-6.9 5.883-2.23 4.258-5.21 12.199-6.36 15.319-0.31 0.85-0.2 1.76 0.29 2.52 1.95 3.03 7.18 10.95 9.81 13.44 10.67 10.1 23.19 13.46 38.63 13.46 23.43 0 48.55 2.71 72.1 4 3.91 0 25.32 32.23 32.36 44.54 19.38 30.17 34.87 56.49 47.94 89.63 3.2 8.11 5.27 20.14 4.38 31.81-0.11 1.54 0.98 2.96 2.52 3.11 11.39 1.04 13.17-14.59 20.81-18.38 7.16-3.54 18.32 2.92 27.41 0.56 2.2-0.56 2.83-3.4 1.12-4.9-33.53-29.67-67.42-68.39-76.99-109.41-2.08-8.92-3.93-18.4 1.26-28.73m45.25 54.48c-6.65 0.12-14.17 0.01-19.87 0.79-1.18 0.17-2.35-0.33-2.92-1.36-1.31-2.35-2.52-5.07-3.68-7.65-0.87-1.96 0.62-4.16 2.75-4.04 8.33 0.44 17.54 2.68 25.1 6.89 2.54 1.42 1.52 5.32-1.38 5.37m-240.5 214.54c-3.86 14.46-18.33 18.78-22.12 32.23-0.33 1.18-1.29 2.07-2.49 2.18-14.95 1.44-29.24 3.86-45.63 8.09-28.89 7.45-53.82 16.44-78.98 30.14-12.46 6.79-26.3 9.29-40.21 10.84-11.08 1.21-23.97 0.66-31.81 1.53-7.84 0.86-12.52-2.66-18.07-5.63-5.56-2.97-58.07-32.48-85.9-34.16-12.4-0.73-24.67-13.61-25.09-24.63-0.42-11.01 5.78-27.64 16.7-27.64-2.59 5.38-7.75 13.48-6.97 15.08 2.01 3.83 63.1 30.14 80.88 44.11 0.79 0.61 1.81 0.78 2.74 0.45 0.54-0.19 1.06-0.38 1.59-0.56 1.48-0.51 2.32-2.08 1.82-3.57-4.46-13.25-26.19-37.79-30.08-52.87-3.63-14.16 0.04-27.37 9.11-32.32 2.12-1.16 4.71 0.67 4.22 3.04-0.71 3.44-1.88 6.03-0.87 8.83 2.81 5.49 10.33 8.16 12.42 15.1 5.8 19.24 4.41 43.13 21.51 55.93 0.62 0.47 1.43 0.65 2.21 0.51 6.48-1.09 12.39-1.41 18.47-1.34 11.01 0.14 21.2 3.84 26.66 4.84 1.39 0.25 2.8-0.5 3.27-1.84 6.41-18.2 2.62-37.87 8.21-56.88 2.79-9.43 7.77-17.12 15.46-23.14 1.19-0.94 1.46-2.26 1.34-3.8-0.25-3.11 4.04-4.38 5.4-1.55 11.52 23.95-6.12 55.92-10.23 84.74-0.25 1.76 1.2 3.34 2.99 3.23 16.24-1.08 35.76-7.21 44.71-19.58 4.1-5.68 4.97-14.91 7.09-23.33 1.36-5.41 0.24-10.34-0.2-15.43-0.26-2.94 3.65-4.4 5.22-1.9 5.96 9.52 5.96 22.53 5.96 33.7 0 2.87 4.06 2.97 5.63 2.87 12.52-0.77 24.76-4.28 36.14-8.4 21.23-7.69 38.93-14.26 54.21-29.94 1.67-1.74 4.61-0.76 4.87 1.64 0.33 3.06 0.56 6.37-0.18 9.43m409.3 189.48c-6.67 10.37-25.33 19.19-40.64 7.89-1.05-0.77-1.39-2.23-0.85-3.43 4.07-9.04 9.35-18.83 13.74-26.51 1-1.77 3.5-1.92 4.72-0.29 6.88 9.13 14.61 14.47 21.87 18.25 1.5 0.79 2.08 2.66 1.16 4.09m147.12-123.5c-1.14-2.43 1.29-5.02 3.73-3.89 33.77 15.45 61.86 50.61 61.86 106.61 0 66.53-52.41 139.39-129.23 139.39-69.03 0-123.57-46.35-144.56-67.86-0.84-0.85-1.04-2.1-0.52-3.18 3.99-8.39 8.62-18.71 12.6-27.06 0.72-1.53 2.59-2.03 4.06-1.18 22.23 12.71 41.96 1.12 47.65-4.45 22.07-21.64 14.96-48.47 5.47-64.33-1.25-2.06 0.35-4.7 2.72-4.4 20.39 2.57 45.53 16.28 57.94 43.53 1.07 2.36 4.44 2.25 5.29-0.19 7.77-22.11 13.37-45.54 4.14-72.63-0.62-1.82 0.62-3.78 2.53-3.85 27.46-1.08 48.61 9.38 64.95 30.07 1.47 1.86 4.46 1.18 5.01-1.13 5.05-21.03 4.53-48-3.64-65.45m5.97 264.06c2.77-0.39 4.41 3.03 2.35 4.92-19.97 18.25-44.91 31.17-80.45 31.17-49.66 0-106.75-39.78-153.56-92.56-0.81-0.91-0.96-2.22-0.38-3.29 1.98-3.59 4.1-7.33 6.13-11.07 0.91-1.66 3.14-1.98 4.49-0.66 61.9 60.04 137.07 74.2 181.19 74.2 13.86 0 27.05-0.82 40.23-2.71m19.39 78.51c10.35 0.06 21.89-0.4 34.16-1.71 3.27-0.36 4.43 4.24 1.39 5.5-31.49 13.11-65.66 19.67-99.9 18.86-47.14-1.12-95.31-16.61-135.63-43.62-30.38-20.35-57.09-49.63-74.15-81.04-0.54-1.01-0.42-2.24 0.3-3.15 2.45-3.06 4.86-6.2 7.21-9.44l2.26-3.21c1.05-1.48 3.18-1.62 4.41-0.28 30.62 33.08 67.55 60.93 107.79 80.93 48.1 23.9 100.72 36.75 152.16 37.16m-45.75 52.04c-6.32 0.33-12.65 0.37-18.98 0.15-0.68-0.03-1.3-0.27-1.8-0.72-1.94-1.74-4.39-3.87-6.88-6-2.06-1.77-0.74-5.16 1.99-5.03 5.73 0.29 11.87 0.39 16.67 0.28 0.52 0 1.02 0.11 1.48 0.38 3.11 1.76 6.12 3.67 9.05 5.69 2.26 1.56 1.2 5.09-1.53 5.25m39.99 37.07c6.05 12.95 10.53 28.17 12.16 41.25 0.22 1.7-1.17 3.21-2.91 3.19-5.75-0.08-11.53-0.34-17.34-0.77-1.24-0.1-2.27-1-2.55-2.2-2.79-11.77-7.15-23.21-12.92-33.86-0.9-1.66 0-3.68 1.83-4.12 6.15-1.46 12.25-3.1 18.31-4.97 1.35-0.42 2.82 0.19 3.42 1.48m-209.4-47.41c-24.23-26.91-39.92-59.55-49.06-90.97-0.87-3.02 3.06-5 5.03-2.54 11.8 14.69 25.18 28.38 40.33 39.59 0.73 0.53 1.16 1.39 1.13 2.31-0.53 15.03 1.74 31.81 7.42 48.84 1 2.96-2.76 5.09-4.85 2.77m131.02 207.43c45.14 7.87 82.05 7.71 120.08 0.14 0.54-0.11 1.11-0.06 1.62 0.16 30.74 12.67 68.72 30.79 99.79 59.88 2.32 2.17-0.03 5.96-2.98 4.76-24.71-9.96-51.51-16.96-86.68-15.28-2.67 0.12-3.78 3.47-1.68 5.11 17.95 13.98 58.05 48.83 74.89 112.71 0.78 2.93-2.96 4.87-4.94 2.59-68.12-77.98-139.38-129.46-201.97-164.77-2.79-1.59-1.28-5.86 1.87-5.3m91.13-97.31c52.35 0 101.49-13.45 136.29-50.05 27.59-29.01 39.96-73.29 38.04-108.14-0.18-3.25 4.28-4.29 5.51-1.29 25.27 62.05 8.97 118.9-20.23 158.94-41.35 56.67-113 86.09-190.65 86.09-116.85 0-202.65-63.85-244.98-120.72-37.46-50.32-53.87-115.41-47.2-177.8 0.08-0.74 0.44-1.42 1.01-1.89 6.56-5.52 12.91-11.3 19.01-17.36 1.68-1.66 4.48-0.72 4.82 1.62 20.73 139.69 149.72 230.6 298.38 230.6m-498.67-403.79c47.92 0 82.07 21.43 104.88 50.87 1.64 2.12-0.27 5.14-2.9 4.57-9.53-2.04-23.68-3.7-35.73-3.16-2.66 0.11-3.71 3.41-1.65 5.09 19.25 15.78 32.81 42.2 32.81 71.33 0 62.34-60.56 113.07-120.38 113.07-40.44 0-63.29-24.82-75.69-41.57-0.54-0.75-1.41-1.15-2.34-1.12-33.8 0.98-60.51-18.58-60.51-49.42 0-42.66 64.09-149.66 161.51-149.66m105.5 25.26c8.88-0.86 18.19-1.23 25.8-0.75 1.54 0.09 2.71 1.45 2.66 2.99-0.39 10.14-1.68 19.59-3.64 29.73-0.5 2.58-3.93 3.21-5.27 0.94-5.92-10.12-13.11-19.57-21.29-28.02-1.68-1.74-0.67-4.66 1.74-4.89m99.22-98.65c-32.31-1.91-86.31-1.68-141.78 10.59-3.11 0.68-4.86-3.46-2.21-5.2 39.99-26.19 98.13-30.16 142.28-28.31 1.31 0.05 2.39 0.98 2.68 2.26 1.04 4.7 1.83 11.72 2.03 17.68 0.06 1.7-1.3 3.09-3 2.98m-130.47 74.28c22.19-3.99 38.87-10.54 54.56-18.17 1.77-0.86 3.83 0.25 4.11 2.19 0.91 6.33 1.14 12.48 1.12 19.49 0 1.54-1.19 2.81-2.73 2.87-10.3 0.38-30.77 2.36-45.12 6.13-0.86-0.18-1.54-0.31-2.39-0.49-3.03-2.3-6.81-4.65-10.49-6.75-2.32-1.31-1.67-4.8 0.94-5.27m-83.22-20.22c47.65-22.48 89.89-30.88 130.44-34.85 1.33-0.13 2.58 0.67 3.02 1.92 1.51 4.31 2.82 8.73 3.97 13.19-0.54 1.2-0.91 2.07-1.44 3.27-45.92 24.99-85.31 26.82-100.99 24.25-8.29-1.35-20.39-2.82-33.69-2.34-3.08 0.11-4.1-4.14-1.31-5.44m184.76-37.29c9.27-0.13 20.81-0.14 29.8 0.65 1.47 0.13 2.57 1.35 2.58 2.82 0.03 7.05-0.9 17.71-2.82 27.16-0.49 2.42-3.62 3.1-5.09 1.11-6.65-9.02-14.71-18.26-26.06-26.56-2.23-1.62-1.18-5.14 1.59-5.18m-137.1-15.72c-9.28 7.48-17.6 16.68-22.68 23.03-0.32 0.39-0.72 0.68-1.2 0.85-39.95 14.84-73.83 34.35-110.29 63.64-0.28 0.22-0.6 0.39-0.95 0.49-31.72 9.38-62.73 23.15-101.78 53.02-2.26 1.73-5.38-0.56-4.44-3.25 32.35-92.62 123.08-145.12 239.67-142.89 2.68 0.05 3.76 3.43 1.67 5.11m-18.55-95.95c-18.45 15.89-43.05 39.32-56.03 78.05-0.32 0.94-1.12 1.67-2.11 1.87-19.11 3.88-38.19 9.51-56.05 17.48-1.98 0.88-4.22-0.61-4.04-2.76 0.84-9.34 5.51-20.41 6.56-31.25 0.86-8.84-2.85-9.4-6.73-10.1-4.66-0.84 1.25-15.3 25.39-30.25 1.04-0.66 1.61-1.88 1.31-3.07-2.4-9.8-3.5-28.35 13.31-39.23 10.66-6.89 25.55-6.66 46.06 4.04 10.26 5.34 19.25 8.15 30.93 10.27 2.36 0.43 3.22 3.39 1.4 4.95m193.02-81.8c4.81 17.23-0.24 32.83 0 48.45 0.14 9.34 3.24 20.02 6.74 30.38 0.87 2.59-2.03 4.8-4.29 3.27-15.11-10.17-33.01-19.46-49.95-26.64-2.7-1.14-5.17 2.1-3.36 4.4 15.78 20.02 30.71 46.13 37.91 72.44 0.5 1.82-0.89 3.59-2.77 3.59-35.29-0.05-87.84 3.97-129.24 21.16-0.45 0.19-0.91 0.25-1.4 0.19-18.56-2.53-47.75-4.64-77.84-0.21-2.21 0.32-3.99-1.9-3.08-3.95 15.37-34.43 43.97-61.85 89.65-90.13 20.86-12.92 45.32-30.46 51.38-56.64 0.39-1.68 2.11-2.7 3.74-2.13 9.34 3.26 13.45 1.08 17.48-6.54 3.62-6.82 8.2-13.74 13.21-13.8 4.09-0.05 5.48 1.1 11.66 2.37 3.82 0.67 7.51 0.43 10.1-0.74 4.7-2.12 7.91-2.9 10.64-2.47 10.5 1.68 16.56 6.74 19.42 17m117.67 75.66c-26.35 30.97-33.74 61.44-36.25 92.06-0.2 2.4 2.45 3.99 4.43 2.61 15.9-10.95 34.71-19.24 54.88-20 2.69-0.11 3.97 3.26 1.94 5.04-42 36.67-76.2 83.97-103.47 146.96-22.29 51.49-49.72 96.15-98.75 132.98-22.82 17.13-52.98 34.16-86.95 44.4-2.99 0.9-4.98-3-2.56-4.98 58.66-47.9 54.53-111.51 36.11-146.92-1.21-2.33 1.02-4.94 3.47-4.05 13.17 4.82 22.78 11.34 29.24 16.98 1.55 1.35 4 0.66 4.62-1.31 17.51-55.61 13.73-108.41 3.84-138.71-0.79-2.44 1.9-4.61 4.15-3.36 29.86 16.57 50.67 45.25 59.12 71.26 0.85 2.61 4.47 2.68 5.42 0.08 23.91-65.13 15.61-121.97-7.48-171.46-1.22-2.6 1.72-5.16 4.12-3.61 9.03 5.84 18.95 13.38 27.52 21.23 1.88 1.72 4.9 0.3 4.77-2.24-2.57-47.27 10.91-85.04 31.67-117.21 1.58-2.43 5.37-1.24 5.26 1.65-1.34 38.38 3.02 75.7 7.32 103.91 0.4 2.68 4.03 3.38 5.34 1 10.43-18.97 24.65-27.48 39.39-30.96 2.71-0.64 4.66 2.53 2.85 4.65m212.77 42.08c-42.06-25.43-84.19-25.43-115.63-16.82-0.99 0.28-2.03 0-2.75-0.75-16.7-17.28-38.14-35.98-72.01-42.25-2.9-0.54-3.14-4.66-0.32-5.54 17.13-5.43 32.76-4.02 46.31 1.51 2.39 0.98 4.74-1.65 3.59-3.97-11.26-22.83-29.04-36.62-45.9-47.5-2.54-1.64-1.17-5.56 1.84-5.28 25.77 2.44 49.41 14.73 65.93 27.37 2.07 1.59 4.96-0.16 4.53-2.74-7.77-48.07-8.32-89.4-2.01-125.09 0.6-3.35 5.47-3.07 5.68 0.32 3.6 57.56 26.28 94.68 49.72 121.3 1.56 1.78 4.44 0.93 4.93-1.38 3.65-17.09 9.99-31.13 16.76-42.81 1.42-2.44 5.09-1.63 5.35 1.18 5.72 62.65 23.22 107.29 38.07 138.83 1.22 2.56-1.65 5.08-4.09 3.62m87.44 109.11c3.44 51.99-13.72 103.38-40.99 145.96-24.02 37.52-73 81.6-131.59 92.09-3.15 0.56-4.68-3.81-1.85-5.33 26.49-14.19 48.39-36.26 62.14-60.17 1.36-2.35-1.03-5.08-3.54-4.07-13.62 5.39-27.32 8.61-41.52 10.48-3.09 0.41-4.54-3.7-1.85-5.28 52.37-30.92 78.37-87.49 78.37-139.68 0-80.18-56.95-115.19-87.08-124.2-17.34-5.18-35.98-6.15-53.93-3.17-2.93 0.5-4.56-3.41-2.12-5.12 27.28-19.17 71.89-20.66 106.64-6.5 22.48 9.14 42.53 26.45 54.7 44.82 1.5 2.26 5 1.43 5.26-1.26 2.02-20.85-1.08-41.14-5.67-57.76-0.76-2.76 2.6-4.76 4.72-2.82 26.7 24.37 54.62 66.28 58.31 122.01m-83.47-303.84c-1.33-2.99-5.87-1.84-5.48 1.42 5.02 42.18 26.08 84.53 48.98 122.88 34.23 57.33 54.57 120.95 58.62 182.05 7.63 115.35-82.71 230.21-185 251.97-3.25 0.68-3.03 5.41 0.28 5.68 55.62 4.49 119.21-11.18 161.34-41.93 46.66-34.07 92.5-111.11 92.5-207.35 0-93.56-27.51-148.37-48.74-204.24-23.1-60.79-38.44-125.09-37.83-186.06 0.03-3.03-4.14-4.01-5.43-1.25-23.87 50.78-20.56 105.04-16.05 142.2 0.29 2.4-2.33 4-4.38 2.74-23.75-14.69-43.57-33.9-58.81-68.11m-625.09 583.79c0.9-2.35 4.25-2.38 5.25-0.08 12.1 27.84 32.12 46.68 51.18 66.04 13.33 13.52 23.58 25.38 32.1 39.73 1.26 2.14 4.45 1.7 5.18-0.65 4.93-16.08 8.3-32.85 8.03-50.5-0.22-14.71-0.45-26.25 1.27-35.83 0.56-3.17 5.16-3.06 5.63 0.12 4.79 32.61 19.95 58.52 28.29 80.29 12.84 33.45 16.8 56.62 16.8 77.15 0 61.9-35.34 93.71-68.14 93.71-22.88 0-33.98-15.31-37.24-34.2-2.82-16.46-3.14-36.97-16.77-63.89-9.72-19.22-28.11-45.27-65.89-63.11-2.5-1.18-2.06-4.88 0.66-5.41 21.36-4.19 40.06-2.71 56.12-0.11 2.86 0.46 4.47-3.12 2.26-5-20.4-17.19-27.85-36.97-30.59-58.96-1.58-12.61 1.34-27.53 5.86-39.3m79.33 60.6c-14.6-15.34-40.81-39.05-51.01-58.54-1.12-2.12 0.83-4.56 3.16-4.03 17.84 3.99 39.77 2.73 57.12-2.29 2.36-0.67 4.48 1.68 3.42 3.9-8.02 16.67-6.61 39.12-7.77 59.12-0.15 2.5-3.19 3.64-4.92 1.84m535.72-19.02c-23.3 17.72-52.13 30.45-95.3 39.2-2.05 0.41-2.98 2.79-1.74 4.49 8 11 14.3 23.03 18.24 36.62 0.58 1.98-1.13 3.93-3.17 3.62-35.31-5.34-80.04-19.53-110.72-36.87-26.31-14.88-47.66-45.75-52.29-87.14-0.26-2.36 2.22-4 4.28-2.81 25.7 14.88 53.8 25.66 82.55 31.68 0.37 0.08 0.73 0.23 1.04 0.45 13.38 9.39 26.05 18.96 37.29 29.28 0.5 0.46 1.15 0.72 1.84 0.75 44.54 1.54 82.17-9.99 115.13-24.19 3.11-1.34 5.54 2.87 2.85 4.92m-639.8 213.96c-2.33-1.25-1.93-4.76 0.65-5.39 8.44-2.07 18.75-2.66 25.65-1.89 4.76 0.54 13.64 2.87 18.85 4.23 1.75 0.46 2.69 2.38 1.91 4.01-1 2.14-2.24 4.37-3.84 6.57-1.92 2.6-3.73 5.01-5.37 7.35-0.78 1.1-2.17 1.54-3.43 1.06-7.91-3.04-15.73-6.55-23.34-10.28-2.98-1.46-7.11-3.55-11.08-5.66m-41.2-52.79c0-9.4 6.2-13.21 12.62-13.21 9.3 0 13.31 5.99 19.6 18.92 4.25 8.7 9.4 15.2 16.04 20.42 2.28 1.77 0.9 5.37-1.98 5.19-17.33-1.04-30.92-6.93-39.89-16.31-4.05-4.23-6.12-10.03-6.39-15.01m93.78 28.73c-0.21 2.5-3.25 3.54-5.02 1.76-7.78-7.83-16.97-11.88-27.69-17.23-12.03-6.01-21.07-13.5-21.07-25.61 0-7.75 6.56-14.98 17.16-14.98 10.59 0 19.69 4.19 27.42 15.98 8.36 12.76 10.45 25.4 9.2 40.08m19.86 50.06c-1.37 1.11-1.35 3.09-0.1 4.35 1.35 1.35 2.51 3.01 3.36 4.95 3.06 7 0.93 14.68-4.74 17.16s-12.74-1.18-15.8-8.18c-0.77-1.77-1.21-3.59-1.33-5.34s-1.82-2.96-3.52-2.53c-1.58 0.4-3.04 0.14-4.29-1.65-1.4-2-1.28-5.62 1.21-9.82 1.73-2.93 4.41-6.11 7.67-8.58 2.8-2.12 5.56-4.32 7.99-6.75 1.25-1.25 3.3-1.08 4.33 0.36 2.33 3.2 5.25 6.32 8.16 8.82 1.17 1 1.32 2.81 0.32 4-1.02 1.2-2.16 2.31-3.26 3.21m122.53 177.72c-16.26-1.53-34.11-8.6-47.9-23.1-1.63-1.71-4.54-0.85-4.94 1.48-1.29 7.76-0.48 17.89-0.87 24.96-0.12 2.18-2.53 3.45-4.39 2.31-16.36-9.99-32.52-22.92-44.39-46.24-1.15-2.27-4.59-2.05-5.31 0.39-2.02 6.84-1.61 15.01-1.97 20.98-0.14 2.46-3.09 3.63-4.9 1.94-12.92-12.07-24.5-30.59-30.53-48.67-0.84-2.49-4.3-2.66-5.38-0.26-2.27 4.98-3.42 11.17-5.16 15.78-0.69 1.81-3.05 2.39-4.54 1.13-28.19-23.89-41.01-64.08-35.86-97.68 0.24-1.54 1.69-2.6 3.23-2.43 7.37 0.8 16.46 4.5 25.77 3.64 1.02-0.08 2.01 0.34 2.61 1.17 29.46 40.63 82.49 43.87 118.99 20.37 0.59-0.38 1.29-0.54 1.98-0.45 30.06 4.15 49.87 19.42 57.16 39.94 8.19 23.09 3.5 60.58-10.85 83.39-0.59 0.94-1.65 1.46-2.75 1.35m-187.91-377.15c-32.5 2.79-50.26 12.82-61.27 25.56-1.41 1.63-0.57 4.2 1.55 4.65 16.53 3.62 45.53 15.41 58.82 25.37 6.55 4.94 12.56 10.55 17.97 16.68 1.76 2.03 0.07 5.09-2.58 4.81-13.1-1.4-28.42 3.14-34.4 15.21-0.91 1.83-3.23 2.3-4.68 0.86-10.36-10.17-31.14-20.56-54.81-26.7-3.44-0.9-10.24-4.05-13.08-6.27-36.14-28.36-62.28-83.38-64.09-119.54-0.02-0.41-0.12-0.77-0.3-1.12-8.83-16.45-20.18-46.5-9.71-92.84 13.46-59.56 45.47-86.52 79.58-111.54 14.36-10.55 30.38-18.53 47.43-25.44 2.72-1.12 5.12 2.14 3.29 4.44-27.71 34.68-45 67.27-45 96.71 0 43.33 37.53 63.4 67.35 66.48 0.77 0.08 1.43 0.46 1.89 1.07 4.7 6.11 11.38 11.48 16.53 14.97 1.23 0.84 1.55 2.46 0.81 3.75-16.03 28.1-19.7 64.26-2.97 98.76 0.89 1.82-0.3 3.95-2.33 4.13m-3.23 188.64c7.46 4.31 15.44 6.92 23.09 9.61 1.67 0.58 2.42 2.53 1.58 4.08-1.9 3.58-3.37 7.28-3.66 11.2-0.12 1.68-1.64 2.87-3.3 2.61-3.67-0.56-7.75-1.25-12.01-2.27-10.61-2.56-21.04-8.5-24.21-14.39-3.33-6.19-5.34-14.27-7.52-21.88-0.76-2.66 2.25-4.78 4.47-3.15 6.83 5.01 13.97 9.82 21.56 14.19m38.82 38.64c0.46-0.25 0.92-0.52 1.36-0.81 1.3-0.84 2.96-0.46 3.91 0.75 9.07 11.72 24.61 15.73 32.81 11.06 16.66-9.49 12.51-26.96 5.77-36.08 0.48-0.39 1.29-1.1 1.94-1.87 13.68 6.16 31.45 4.92 45-1.1 16.67-7.44 27.04-17.75 35.45-29.85 1.66-2.37 5.32-1.21 5.32 1.69 0.01 26.64-12.87 55.87-42.3 70.83-29.11 14.8-67.9 15.82-90.18-10.23-1.18-1.4-0.68-3.5 0.92-4.39" fill="#ed1c24"/></g><path d="m6275.8 925.9-37.95-159.58h-0.65l-39.57 159.58h-47.67l-40.22-157.64h-0.66l-36.64 157.64h-50.92l61.3-231.58h51.57l38.6 157.64h0.64l39.25-157.64h50.59l62.27 231.58h-49.94" fill="#231f20"/><g clip-path="url(#clipPath228)"><path d="m6306.6 810.43c2.6 43.148 41.19 56.121 78.81 56.121 33.41 0 73.63-7.469 73.63-47.68v-87.262c0-15.238 1.63-30.48 5.84-37.289h-46.7c-1.63 5.192-2.93 10.7-3.24 16.211-14.6-15.242-36.01-20.75-56.45-20.75-31.78 0-57.08 15.899-57.08 50.27 0 37.937 28.54 47.027 57.08 50.918 28.23 4.222 54.49 3.25 54.49 22.062 0 19.778-13.62 22.699-29.83 22.699-17.52 0-28.87-7.128-30.49-25.3zm106.38-34.051c-7.78-6.82-23.99-7.141-38.26-9.731-14.28-2.929-27.25-7.789-27.25-24.66 0-17.187 13.29-21.398 28.22-21.398 36 0 37.29 28.539 37.29 38.59v17.199" fill="#231f20"/></g><path d="m6471.2 694.32h46.05v231.59h-46.05v-231.59" fill="#231f20"/><path d="m6529.3 694.32h46.06v231.59h-46.06v-231.59" fill="#231f20"/><g clip-path="url(#clipPath242)" fill="#231f20"><path d="m6666.9 866.55c52.87 0 86.93-35.031 86.93-88.551 0-53.191-34.06-88.219-86.93-88.219-52.54 0-86.6 35.028-86.6 88.219 0 53.52 34.06 88.551 86.6 88.551m0-142.07c31.46 0 40.87 26.918 40.87 53.52 0 26.91-9.41 53.84-40.87 53.84-31.14 0-40.55-26.93-40.55-53.84 0-26.602 9.41-53.52 40.55-53.52"/><path d="m6758.4 862h43.78v-23.352h0.98c11.67 18.813 31.78 27.903 51.24 27.903 48.98 0 61.3-27.571 61.3-69.09v-103.15h-46.06v94.722c0 27.559-8.1 41.188-29.51 41.188-24.98 0-35.68-13.949-35.68-48v-87.91h-46.05v167.69"/></g><path d="m6927.3 887.96h46.06v37.949h-46.06zm0-193.64h46.06v167.68h-46.06v-167.68" fill="#231f20"/><g clip-path="url(#clipPath256)"><path d="m7023.1 766.98c1.29-29.191 15.57-42.5 41.19-42.5 18.49 0 33.41 11.348 36.33 21.731h40.54c-12.97-39.57-40.54-56.43-78.49-56.43-52.87 0-85.63 36.321-85.63 88.219 0 50.27 34.71 88.551 85.63 88.551 57.08 0 84.65-48 81.41-99.571zm74.92 29.18c-4.22 23.352-14.27 35.68-36.65 35.68-29.18 0-37.62-22.711-38.27-35.68h74.92" fill="#231f20"/></g></g></g></svg>
