<?xml version="1.0" encoding="UTF-8"?>
<svg width="304.74pt" height="76.758pt" version="1.2" viewBox="0 0 304.74 76.758" xmlns="http://www.w3.org/2000/svg">
  <g transform="translate(-54.867 -50.395)">
    <g fill="#cc1e26">
      <path d="m168.04 120.73v-0.16406c0-3.8164 2.375-6.4102 5.707-6.4102 1.8711 0 3.0781 0.6875 4.0508 1.6758l-1.5664 2.0195c-0.75391-0.77735-1.5469-1.2617-2.5742-1.2617-1.6914 0-2.9336 1.5664-2.9336 4.0156v0.0508c0 2.5039 1.2969 4.0352 2.9688 4.0352 1.0078 0 1.7461-0.46875 2.5938-1.3125l1.5664 1.8516c-1.1328 1.1719-2.3398 1.8906-4.2656 1.8906-3.3164 0-5.5469-2.5352-5.5469-6.3906"/>
      <path d="m184.05 120.49c1.332 0 2.0508-0.75781 2.0508-1.8906v-0.0156c0-1.2617-0.77344-1.8945-2.1055-1.8945h-1.8711v3.8008zm-4.5391-6.1562h4.7344c1.4609 0 2.6328 0.41406 3.4258 1.207 0.6836 0.68359 1.0586 1.6719 1.0586 2.9141v0.0742c0 1.9062-0.95313 3.1133-2.3398 3.7266l2.6836 4.6797h-2.9883l-2.3242-4.1406h-1.6367v4.1406h-2.6133v-12.602"/>
      <path d="m195.89 110.79 2.1953 0.98828-2.25 1.6758h-1.9453zm-5.0078 3.5469h8.1211v2.3555h-5.5274v2.7188h4.8633v2.3594h-4.8633v2.8125h5.5977v2.3555h-8.1914v-12.602"/>
      <path d="m207.48 121.89-1.3672-4.1016-1.3867 4.1016zm-2.5742-7.6328h2.4844l4.5195 12.676h-2.6992l-0.9375-2.7383h-4.3398l-0.91797 2.7383h-2.6289l4.5195-12.676"/>
      <path d="m214.66 116.75h-3.1719v-2.4102h8.9336v2.4102h-3.1719v10.191h-2.5898v-10.191"/>
      <path d="m222.11 114.34h2.6133v12.602h-2.6133v-12.602"/>
      <path d="m235.58 120.71v-0.12891c0-2.4844-1.2578-4.0508-3.0039-4.0508-1.7656 0-3.0078 1.5508-3.0078 4.0312v0.12891c0 2.4844 1.2773 4.0508 3.0234 4.0508 1.7461 0 2.9883-1.5508 2.9883-4.0312zm-8.6953 0.0508v-0.21484c0-3.7812 2.3789-6.4297 5.707-6.4297 3.3477 0 5.6914 2.6289 5.6914 6.3945v0.21484c0 3.7617-2.3789 6.4258-5.707 6.4258-3.3516 0-5.6914-2.6289-5.6914-6.3906"/>
      <path d="m240.4 114.34h2.3984l4.8242 7.3438v-7.3438h2.5547v12.602h-2.2305l-4.9883-7.6172v7.6172h-2.5586v-12.602"/>
    </g>
    <g fill="#26282b">
      <path d="m96.25 84.988c0 7.2227 5.8516 13.074 13.074 13.074 7.2266 0 13.074-5.8516 13.074-13.074 0-7.2227-5.8477-13.074-13.074-13.074-7.2227 0-13.074 5.8516-13.074 13.074zm34.746 0c0 11.938-9.7305 21.668-21.672 21.668-11.938 0-21.668-9.7305-21.668-21.668 0-11.941 9.7305-21.672 21.668-21.672 11.941 0 21.672 9.7305 21.672 21.672"/>
      <path d="m70.465 80.449c-0.35547-0.11719-0.71484-0.23828-1.1914-0.35547-3.8203-0.95703-5.3125-2.1523-5.375-4.3008-0.05859-1.375 0.35937-2.0273 0.71875-2.3867 1.0742-1.1328 3.1641-1.5547 3.6992-1.5547 3.6406 0 5.375 1.1367 8.0625 2.8672l1.2656 0.80859 3.8086-7.4609-0.59766-0.39453c-3.0469-1.9688-6.4492-4.1758-12.539-4.1758-2.1484 0-6.625 0.89453-9.7305 4.1172-2.1484 2.2695-3.2227 5.1953-3.043 8.5391 0.17969 4 2.0273 7.2227 5.3711 9.4336 2.3906 1.6094 4.957 2.2656 6.3281 2.625l0.30078 0.05859 0.17578 0.0625c4.3594 1.4922 6.9258 3.582 6.9258 5.8477 0 1.0781-1.1328 4.2383-4.5938 4.2383-1.8516 0-6.8086 0-11.227-4.7148l-3.957 7.7422c2.3516 1.9766 4.9727 3.4062 7.8398 4.3164 2.9844 0.89453 5.4922 1.0156 7.3438 1.0156 3.7578 0 7.1602-1.5508 9.6094-4.2969 2.0898-2.3281 3.3438-5.375 3.3438-8.3008 0-2.9844-1.1367-5.7891-3.2852-8.1758-2.1484-2.332-5.25-4.1797-9.2539-5.5547"/>
      <path d="m248.6 97.523h15.582v8.418h-23.941v-41.879h8.3594v33.461"/>
      <path d="m300.38 72.422h-19.52v8.3672h16.117v8.3594h-16.117v16.793h-8.3594v-41.879h27.879v8.3594"/>
      <path d="m308.79 105.94v-41.887h8.3594v41.887h-8.3594"/>
      <path d="m357.4 105.94-23.52-24.418v24.418h-8.3594v-41.875h2.625l23.105 23.426v-23.426h8.3555v41.875h-2.207"/>
      <path d="m183.11 64.059-13.039 25.52-13.039-25.527h-9.3984l9.7148 18.996-3.3359 6.5312-13.039-25.527h-9.3984l21.422 41.891h2.0312l7.0117-13.715 7.0156 13.715h2.0312l21.422-41.883h-9.3984"/>
    </g>
    <path d="m205.67 105.94v-16.813h8.3555v16.813h-8.3555" fill="#cc1e26"/>
    <path d="m210.91 50.395h-2.0781l-24.117 47.121h9.3633l15.793-30.848 15.746 30.848h9.3594l-24.066-47.121" fill="#26282b"/>
  </g>
</svg>
