<?xml version="1.0" encoding="UTF-8"?>
<svg width="277.08" height="293.22" version="1.1" viewBox="0 0 277.08 293.22" xmlns="http://www.w3.org/2000/svg">
  <g transform="translate(-45.691 14.257)" stroke-width=".13333">
    <path d="m45.692 112.84h18.969v-57.027l24.487 37.178h0.50305l24.743-37.554v57.403h19.216v-87.919h-20.846l-23.114 37.178-23.105-37.178h-20.854v87.919" fill="#ef2671"/>
    <path d="m114.56 206.45h19.345v-87.919h-19.345v87.919" fill="#f68712"/>
    <path d="m227.75 222.7v-66.946h-17.204v47.728h-18.466v-41.451h-17.212v41.451h-17.834v-47.097h-17.204v66.316h87.919" fill="#fcd01b"/>
    <path d="m322.75 117.93c0-23.609-13.068-38.559-39.687-38.559h-49.615v19.344h50.365c13.945 0 21.101 7.1558 21.101 18.969 0 11.805-7.4118 18.961-21.731 18.961h-49.735v19.344h50.237c25.878 0 39.064-14.44 39.064-38.058" fill="#00adef"/>
    <path d="m233.45 73.664h21.981l19.848-30.141 19.72 30.141h22.61l-30.654-44.966 29.391-42.952h-21.979l-18.585 28.513-18.466-28.513h-22.611l29.393 43.208-30.646 44.71" fill="#bde261"/>
    <path d="m133.61 19.212v-14.312h-4.9045v9.4758h-3.2922v-8.4691h-4.5458v8.4691h-3.1478v-9.3558h-4.904v14.192zm0-16.81v-4.8372h-11.404l11.404-7.5398v-4.2812h-20.794v4.8359h10.994l-10.994 7.2585v4.5639h20.794" fill="#231f20"/>
    <path d="m49.959 278.57h1.6036l3.301-9.6227 3.2749 9.6227h1.5869l4.29-12.282h-1.8849l-3.2067 9.7826-3.3015-9.8347h-1.5088l-3.2838 9.8347-3.2073-9.7826h-1.9276zm20.069 0h1.6037l3.3014-9.6227 3.2745 9.6227h1.5781l4.2906-12.282h-1.8849l-3.2073 9.7826-3.3005-9.8347h-1.5098l-3.2754 9.8347-3.2067-9.7826h-1.9365zm20.061 0h1.6041l3.3005-9.6227 3.2838 9.6227h1.5776l4.29-12.282h-1.8844l-3.2071 9.7826-3.3005-9.8347h-1.51l-3.2754 9.8347-3.2067-9.7826h-1.9364zm15.208-0.0932h2.1666v-2.4749h-2.1666zm17.365 0.49478c4.0343 0 7.0285-1.5786 9.1091-4.1546l-3.6166-3.2082c-1.7484 1.6213-3.2838 2.2869-5.4071 2.2869-2.8323 0-4.8276-1.4937-5.4504-4.3666h15.516c0.0421-0.58176 0.0844-1.1692 0.0844-1.663 0-6.329-3.4114-12.112-10.857-12.112-6.4905 0-11.028 5.2441-11.028 11.608v0.0849c0 6.8228 4.9473 11.524 11.651 11.524m-5.4504-13.392c0.49478-2.8743 2.201-4.7519 4.828-4.7519 2.6609 0 4.3244 1.9197 4.6988 4.7519zm20.385 12.897h6.3284v-12.445c0-2.9931 1.5442-4.539 3.9495-4.539 2.4139 0 3.8295 1.5458 3.8295 4.539v12.445h6.329v-14.441c0-5.1171-2.789-8.281-7.5744-8.281-3.2066 0-5.0743 1.7057-6.5337 3.5811v-3.1634h-6.3284zm25.929 0h6.3202v-12.445c0-2.9931 1.4582-4.539 3.8295-4.539 2.3713 0 3.7098 1.5458 3.7098 4.539v12.445h6.3198v-12.445c0-2.9931 1.46-4.539 3.8306-4.539 2.3706 0 3.7012 1.5458 3.7012 4.539v12.445h6.3292v-14.526c0-5.364-2.8319-8.1962-7.5318-8.1962-3.0359 0-5.3732 1.2442-7.3265 3.539-1.168-2.2521-3.3679-3.539-6.286-3.539-3.1983 0-5.1176 1.7057-6.5758 3.5811v-3.1634h-6.3202zm39.652-24.762h6.6612v-5.6196h-6.6612zm0.17067 24.762h6.3292v-22.305h-6.3292zm22.842 0.49477c4.0426 0 7.0358-1.5786 9.1171-4.1546l-3.6252-3.2082c-1.74 1.6213-3.2839 2.2869-5.4065 2.2869-2.8319 0-4.8279-1.4937-5.4505-4.3666h15.522c0.044-0.58176 0.0853-1.1692 0.0853-1.663 0-6.329-3.4106-12.112-10.866-12.112-6.4905 0-11.028 5.2441-11.028 11.608v0.0849c0 6.8228 4.9559 11.524 11.652 11.524m-5.4505-13.392c0.50265-2.8743 2.2093-4.7519 4.8266-4.7519 2.6706 0 4.3332 1.9197 4.7092 4.7519zm27.797 13.314c3.2066 0 5.0825-1.7068 6.5332-3.5827v3.1655h6.3292v-22.305h-6.3292v12.443c0 2.9931-1.536 4.5291-3.9492 4.5291-2.4133 0-3.8292-1.536-3.8292-4.5291v-12.443h-6.3292v14.44c0 5.1176 2.7893 8.2826 7.5745 8.2826m16.649-0.41718h6.6185l4.4946-6.952 4.4866 6.952h6.7892l-7.8638-11.447 7.5318-10.858h-6.6185l-4.2052 6.4904-4.1626-6.4904h-6.7798l7.5305 10.985zm25.161 0h2.1666v-2.4749h-2.1666zm12.47 0.25469c2.9506 0 5.8252-2.3546 5.8252-6.3373v-0.0505c0-4.0092-2.8999-6.3201-5.8252-6.3201-2.2346 0-3.6759 1.2536-4.6652 2.7119v-7.4727h-1.8173v17.214h1.8173v-2.3374c0.93731 1.3718 2.4053 2.5921 4.6652 2.5921m-0.324-1.6213c-2.2693 0-4.4092-1.8932-4.4092-4.716v-0.0505c0-2.7811 2.14-4.692 4.4092-4.692 2.312 0 4.2892 1.8426 4.2892 4.7171v0.0427c0 2.9521-1.936 4.6988-4.2892 4.6988m10.585-3.9906h9.6624c0.0267-0.28125 0.0267-0.46926 0.0267-0.63228 0-3.5906-2.0733-6.4638-5.6812-6.4638-3.3692 0-5.8505 2.8322-5.8505 6.3706 0 3.7958 2.7373 6.3638 6.0892 6.3638 2.3119 0 3.7959-0.92289 5.0159-2.2863l-1.1266-1.0151c-0.98798 1.0401-2.1746 1.7229-3.8466 1.7229-2.1413 0-4.0332-1.4838-4.2892-4.0598m0-1.4588c0.256-2.3625 1.8586-4.1026 3.9572-4.1026 2.4053 0 3.6839 1.8854 3.8972 4.1026h-7.8545" fill="#231f20"/>
  </g>
</svg>
