<?xml version="1.0" encoding="UTF-8"?>
<svg width="697.74mm" height="130.71mm" version="1.1" viewBox="0 0 697.74 130.71" xmlns="http://www.w3.org/2000/svg">
  <defs>
    <clipPath id="clipPath45">
      <path d="M 0,965.908 H 2954.659 V 0 H 0 Z"/>
    </clipPath>
  </defs>
  <g transform="translate(287.95 -52.26)">
    <g transform="matrix(.35278 0 0 -.35278 -2.7632 55.835)">
      <path d="m0 0h24.586l30.028-86.519h1.313l34.533 86.519h13.7l34.345-86.519h1.313l30.029 86.519h24.773l-48.045-129.5h-11.823l-36.785 92.524h-1.313l-36.973-92.524h-11.636z"/>
    </g>
    <g transform="matrix(.35278 0 0 -.35278 -460.25 282.95)">
      <g clip-path="url(#clipPath45)">
        <g transform="translate(1569.5 561.58)">
          <path d="m0 0c0 16.141-12.762 29.841-29.84 29.841-16.329 0-29.091-12.012-29.091-29.841 0-17.454 12.95-29.653 29.278-29.653 17.266 0 29.653 14.263 29.653 29.653m-81.452-0.75c0 28.526 19.706 51.048 49.171 51.048 15.953 0 28.527-7.695 34.533-17.642h1.5l3.191 14.64h15.202v-94.402h-15.39l-3.19 14.638h-1.501c-6.006-9.947-18.392-17.453-34.345-17.453-29.465 0-49.171 21.77-49.171 49.171"/>
        </g>
        <path d="m1616.6 646.6h22.708v-132.12h-22.708z"/>
        <path d="m1664.1 646.6h22.708v-132.12h-22.708z"/>
        <g transform="translate(1786.1 561.77)">
          <path d="m0 0c0 16.892-12.575 29.277-28.902 29.277-16.14 0-28.715-12.385-28.715-29.277 0-17.078 12.575-29.277 28.715-29.277s28.902 12.199 28.902 29.277m-80.325 0c0 28.903 23.084 50.111 51.423 50.111 28.527 0 51.61-21.208 51.61-50.111 0-28.902-22.708-50.297-51.61-50.297-28.903 0-51.423 21.395-51.423 50.297"/>
        </g>
        <g transform="translate(1827.8 608.88)">
          <path d="m0 0h18.58l2.252-12.762h1.501c5.256 8.257 14.826 15.577 30.967 15.577 25.524 0 39.6-15.953 39.6-39.975v-57.242h-23.084v52.175c0 15.576-8.821 24.396-22.897 24.396-15.766 0-23.648-12.76-23.648-27.024v-49.547h-23.271z"/>
        </g>
        <path d="m1944.1 608.88h23.271v-94.402h-23.271zm-2.439 30.778c0 8.071 6.755 14.264 14.075 14.264 7.694 0 14.451-6.381 14.451-14.264 0-7.694-6.569-14.076-14.451-14.076-7.694 0-14.075 6.194-14.075 14.076"/>
        <g transform="translate(2062.2 571.91)">
          <path d="m0 0c-0.563 12.762-9.76 22.896-26.276 22.896-13.136 0-24.772-7.506-27.775-24.96h54.051zm17.266-17.641h-71.317c3.003-18.017 18.017-24.398 33.969-24.398 12.386 0 21.77 2.063 31.905 6.944h1.877v-16.704c-10.697-6.193-22.334-8.633-37.161-8.633-31.341 0-52.173 19.518-52.173 50.109 0 31.718 21.771 50.299 49.17 50.299 28.152 0 45.982-17.643 45.982-42.603 0-4.693-0.564-10.511-2.252-15.014"/>
        </g>
        <g transform="translate(1310.5 451.19)">
          <path d="m0 0h81.264v-18.58h-57.054v-36.973h50.861v-17.641h-50.861v-37.535h57.054v-18.58h-81.264z"/>
        </g>
        <g transform="translate(1411.1 416.28)">
          <path d="m0 0h18.58l2.252-12.762h1.501c5.256 8.257 14.827 15.577 30.967 15.577 25.524 0 39.6-15.953 39.6-39.975v-57.242h-23.084v52.175c0 15.576-8.821 24.396-22.897 24.396-15.764 0-23.648-12.761-23.648-27.024v-49.547h-23.271z"/>
        </g>
        <g transform="translate(1587.7 322.25)">
          <path d="m0 0c-5.63-2.252-12.949-3.191-18.954-3.191-23.46 0-36.973 12.763-36.973 42.04v36.034h-14.075v19.143h15.763l3.754 21.77h17.08v-21.77h29.653v-19.143h-29.465v-36.222c0-14.451 5.817-21.207 18.203-21.207 5.819 0 10.135 1.502 12.95 2.815h1.876z"/>
        </g>
        <g transform="translate(1602.7 416.28)">
          <path d="m0 0h17.829l2.44-12.762h1.314c5.442 8.633 15.764 15.389 28.526 15.577h3.191v-21.771h-3.191c-14.638 0-27.588-9.384-27.588-29.465v-45.981h-22.521z"/>
        </g>
        <g transform="translate(1738 379.31)">
          <path d="m0 0c-0.563 12.762-9.76 22.896-26.276 22.896-13.136 0-24.772-7.506-27.775-24.96h54.051zm17.266-17.641h-71.317c3.003-18.017 18.017-24.399 33.969-24.399 12.386 0 21.77 2.064 31.905 6.945h1.877v-16.704c-10.697-6.193-22.334-8.633-37.161-8.633-31.341 0-52.173 19.518-52.173 50.109 0 31.718 21.769 50.299 49.17 50.299 28.152 0 45.982-17.643 45.982-42.603 0-4.693-0.564-10.511-2.252-15.014"/>
        </g>
        <g transform="translate(1857.4 368.98)">
          <path d="m0 0c0 17.829-12.95 29.84-29.089 29.84-17.08 0-30.029-13.699-30.029-29.84 0-15.39 12.574-29.653 29.841-29.653 16.139 0 29.277 12.199 29.277 29.653m-81.264 47.296h16.89l2.252-13.702h1.502c4.692 8.258 16.891 16.704 34.72 16.704 28.903 0 48.233-21.771 48.233-50.11 0-28.526-20.832-50.109-48.607-50.109-14.64 0-26.276 7.694-30.78 15.014h-1.502v-50.673h-22.708z"/>
        </g>
        <g transform="translate(1898.9 416.28)">
          <path d="m0 0h17.829l2.44-12.762h1.314c5.442 8.633 15.764 15.389 28.526 15.577h3.191v-21.771h-3.191c-14.638 0-27.588-9.384-27.588-29.465v-45.981h-22.521z"/>
        </g>
        <g transform="translate(2034.2 379.31)">
          <path d="m0 0c-0.563 12.762-9.76 22.896-26.276 22.896-13.136 0-24.772-7.506-27.775-24.96h54.051zm17.266-17.641h-71.317c3.003-18.017 18.017-24.399 33.969-24.399 12.387 0 21.77 2.064 31.906 6.945h1.876v-16.704c-10.697-6.193-22.334-8.633-37.161-8.633-31.341 0-52.173 19.518-52.173 50.109 0 31.718 21.77 50.299 49.17 50.299 28.152 0 45.982-17.643 45.982-42.603 0-4.693-0.564-10.511-2.252-15.014"/>
        </g>
        <g transform="translate(2072.3 416.28)">
          <path d="m0 0h18.58l2.252-12.762h1.501c5.256 8.257 14.827 15.577 30.967 15.577 25.524 0 39.6-15.953 39.6-39.975v-57.242h-23.084v52.175c0 15.576-8.821 24.396-22.898 24.396-15.763 0-23.647-12.761-23.647-27.024v-49.547h-23.271z"/>
        </g>
        <g transform="translate(2264.3 368.98)">
          <path d="m0 0c0 16.141-12.762 29.84-29.84 29.84-16.329 0-29.091-12.011-29.091-29.84 0-17.454 12.95-29.653 29.278-29.653 17.266 0 29.653 14.263 29.653 29.653m-81.452-0.75c0 28.526 19.706 51.048 49.171 51.048 15.014 0 24.773-7.132 30.404-15.389h1.502v50.109h22.52v-132.12h-15.39l-3.19 14.638h-1.501c-6.006-9.947-18.392-17.453-34.345-17.453-29.465 0-49.171 21.77-49.171 49.171"/>
        </g>
        <g transform="translate(2311.4 416.28)">
          <path d="m0 0h17.829l2.44-12.762h1.314c5.442 8.633 15.764 15.389 28.526 15.577h3.191v-21.771h-3.191c-14.638 0-27.588-9.384-27.588-29.465v-45.981h-22.521z"/>
        </g>
        <g transform="translate(2446.7 379.31)">
          <path d="m0 0c-0.563 12.762-9.76 22.896-26.276 22.896-13.136 0-24.772-7.506-27.775-24.96h54.051zm17.266-17.641h-71.317c3.003-18.017 18.017-24.399 33.969-24.399 12.387 0 21.77 2.064 31.906 6.945h1.876v-16.704c-10.697-6.193-22.334-8.633-37.161-8.633-31.341 0-52.173 19.518-52.173 50.109 0 31.718 21.77 50.299 49.171 50.299 28.151 0 45.981-17.643 45.981-42.603 0-4.693-0.564-10.511-2.252-15.014"/>
        </g>
        <g transform="translate(871.08 643.94)">
          <path d="m0 0-50.529-141.28-57.404 141.28h-61.065l-57.404-141.28-50.529 141.28h-105.74l122.72-321.97h56.125l65.359 160 65.358-160h56.125l122.72 321.97z"/>
        </g>
        <g transform="translate(1213.1 559.03)">
          <path d="m0 0v84.911h-219.27v-321.97h219.27v84.76h-122.14v33.844h108.89v84.764h-108.89v33.691z"/>
        </g>
      </g>
    </g>
  </g>
</svg>
