<?xml version="1.0" encoding="UTF-8" standalone="no"?>
<svg
   xmlns:dc="http://purl.org/dc/elements/1.1/"
   xmlns:cc="http://creativecommons.org/ns#"
   xmlns:rdf="http://www.w3.org/1999/02/22-rdf-syntax-ns#"
   xmlns:svg="http://www.w3.org/2000/svg"
   xmlns="http://www.w3.org/2000/svg"
   width="111.55713"
   height="91.581085"
   viewBox="0 0 111.55713 91.581089"
   version="1.1"
   id="svg8">
  <defs
     id="defs2" />
  <metadata
     id="metadata5">
    <rdf:RDF>
      <cc:Work
         rdf:about="">
        <dc:format>image/svg+xml</dc:format>
        <dc:type
           rdf:resource="http://purl.org/dc/dcmitype/StillImage" />
        <dc:title></dc:title>
      </cc:Work>
    </rdf:RDF>
  </metadata>
  <g
     id="layer1"
     transform="translate(-15.746861,28.214342)">
    <path
       style="fill:none;stroke:#800000;stroke-width:2.64583;stroke-linecap:round;stroke-linejoin:round;stroke-miterlimit:4;stroke-dasharray:none;stroke-dashoffset:5;stroke-opacity:1"
       id="path16"
       d="M 84.137701,62.179836 C 81.982877,64.387638 58.865677,74.293647 55.780835,74.331108 52.695993,74.368569 29.345058,65.026846 27.137256,62.872022 24.929455,60.717199 15.023446,37.599999 14.985985,34.515157 14.948524,31.430315 24.290247,8.0793794 26.44507,5.8715781 28.599894,3.6637767 51.717094,-6.2422327 54.801936,-6.2796935 57.886778,-6.3171544 81.237713,3.0245682 83.445515,5.179392 85.653316,7.3342158 95.559326,30.451416 95.596786,33.536258 95.634247,36.6211 86.292525,59.972035 84.137701,62.179836 Z"
       transform="rotate(1.2022924,817.50025,677.24738)" />
    <path
       style="fill:none;stroke:#ffabab;stroke-width:1.00709;stroke-linecap:round;stroke-linejoin:round;stroke-miterlimit:4;stroke-dasharray:none;stroke-dashoffset:5;stroke-opacity:1"
       id="path16-3"
       transform="matrix(0.78798677,0.01653751,-0.01653751,0.78798677,25.949358,-9.5518604)"
       d="M 84.137701,62.179836 C 81.982877,64.387638 58.865677,74.293647 55.780835,74.331108 52.695993,74.368569 29.345058,65.026846 27.137256,62.872022 24.929455,60.717199 15.023446,37.599999 14.985985,34.515157 14.948524,31.430315 24.290247,8.0793794 26.44507,5.8715781 28.599894,3.6637767 51.717094,-6.2422327 54.801936,-6.2796935 57.886778,-6.3171544 81.237713,3.0245682 83.445515,5.179392 85.653316,7.3342158 95.559326,30.451416 95.596786,33.536258 95.634247,36.6211 86.292525,59.972035 84.137701,62.179836 Z" />
    <path
       style="fill:none;stroke:#ffabab;stroke-width:1.61264;stroke-linecap:round;stroke-linejoin:round;stroke-miterlimit:4;stroke-dasharray:none;stroke-dashoffset:5;stroke-opacity:1"
       id="path16-6"
       transform="matrix(0.49209827,0.01032769,-0.01032769,0.49209827,42.09815,0.8593046)"
       d="M 84.137701,62.179836 C 81.982877,64.387638 58.865677,74.293647 55.780835,74.331108 52.695993,74.368569 29.345058,65.026846 27.137256,62.872022 24.929455,60.717199 15.023446,37.599999 14.985985,34.515157 14.948524,31.430315 24.290247,8.0793794 26.44507,5.8715781 28.599894,3.6637767 51.717094,-6.2422327 54.801936,-6.2796935 57.886778,-6.3171544 81.237713,3.0245682 83.445515,5.179392 85.653316,7.3342158 95.559326,30.451416 95.596786,33.536258 95.634247,36.6211 86.292525,59.972035 84.137701,62.179836 Z" />
    <path
       style="fill:none;stroke:#ffabab;stroke-width:2.40422;stroke-linecap:round;stroke-linejoin:round;stroke-miterlimit:4;stroke-dasharray:none;stroke-dashoffset:5;stroke-opacity:1"
       id="path16-7"
       transform="matrix(0.33007544,0.00692731,-0.00692731,0.33007544,50.940916,6.5602577)"
       d="M 84.137701,62.179836 C 81.982877,64.387638 58.865677,74.293647 55.780835,74.331108 52.695993,74.368569 29.345058,65.026846 27.137256,62.872022 24.929455,60.717199 15.023446,37.599999 14.985985,34.515157 14.948524,31.430315 24.290247,8.0793794 26.44507,5.8715781 28.599894,3.6637767 51.717094,-6.2422327 54.801936,-6.2796935 57.886778,-6.3171544 81.237713,3.0245682 83.445515,5.179392 85.653316,7.3342158 95.559326,30.451416 95.596786,33.536258 95.634247,36.6211 86.292525,59.972035 84.137701,62.179836 Z" />
    <path
       style="fill:none;stroke:#ffabab;stroke-width:1.31784;stroke-linecap:round;stroke-linejoin:round;stroke-miterlimit:4;stroke-dasharray:none;stroke-dashoffset:5;stroke-opacity:1"
       id="path16-6-5"
       transform="matrix(0.60218017,0.01263798,-0.01263798,0.60218017,36.090178,-3.014049)"
       d="M 84.137701,62.179836 C 81.982877,64.387638 58.865677,74.293647 55.780835,74.331108 52.695993,74.368569 29.345058,65.026846 27.137256,62.872022 24.929455,60.717199 15.023446,37.599999 14.985985,34.515157 14.948524,31.430315 24.290247,8.0793794 26.44507,5.8715781 28.599894,3.6637767 51.717094,-6.2422327 54.801936,-6.2796935 57.886778,-6.3171544 81.237713,3.0245682 83.445515,5.179392 85.653316,7.3342158 95.559326,30.451416 95.596786,33.536258 95.634247,36.6211 86.292525,59.972035 84.137701,62.179836 Z" />
    <path
       style="fill:#ff5050;fill-opacity:1;fill-rule:evenodd;stroke:#800000;stroke-width:0.264583px;stroke-linecap:butt;stroke-linejoin:miter;stroke-opacity:1"
       d="M 49.012636,18.165454 59.604758,8.6011717 68.944574,-6.4442231 82.721233,4.3925252 82.213554,18.133186 78.281966,27.667143 68.883207,49.990858 59.356103,27.496661 Z"
       id="path899" />
    <text
       xml:space="preserve"
       style="font-style:normal;font-weight:normal;font-size:2.99861px;line-height:791.3%;font-family:sans-serif;letter-spacing:0px;word-spacing:0px;fill:#000000;fill-opacity:1;stroke:none;stroke-width:0.264583px;stroke-linecap:butt;stroke-linejoin:miter;stroke-opacity:1"
       x="15.452564"
       y="19.292219"
       id="text921"><tspan
         id="tspan919"
         x="15.452564"
         y="19.292219"
         style="font-size:2.99861px;stroke-width:0.264583px">Leader</tspan></text>
    <text
       xml:space="preserve"
       style="font-style:normal;font-weight:normal;font-size:2.99861px;line-height:791.3%;font-family:sans-serif;letter-spacing:0px;word-spacing:0px;fill:#000000;fill-opacity:1;stroke:none;stroke-width:0.264583px;stroke-linecap:butt;stroke-linejoin:miter;stroke-opacity:1"
       x="25.509106"
       y="51.09494"
       id="text925"><tspan
         id="tspan923"
         x="25.509106"
         y="51.09494"
         style="font-size:2.99861px;stroke-width:0.264583px">Bricoleur</tspan></text>
    <text
       xml:space="preserve"
       style="font-style:normal;font-weight:normal;font-size:2.99861px;line-height:791.3%;font-family:sans-serif;letter-spacing:0px;word-spacing:0px;fill:#000000;fill-opacity:1;stroke:none;stroke-width:0.264583px;stroke-linecap:butt;stroke-linejoin:miter;stroke-opacity:1"
       x="22.329014"
       y="-11.754117"
       id="text929"><tspan
         id="tspan927"
         x="22.329014"
         y="-11.754117"
         style="font-size:2.99861px;stroke-width:0.264583px">Coequipier</tspan></text>
    <text
       xml:space="preserve"
       style="font-style:normal;font-weight:normal;font-size:2.91196px;line-height:791.3%;font-family:sans-serif;letter-spacing:0px;word-spacing:0px;fill:#000000;fill-opacity:1;stroke:none;stroke-width:0.0873587px;stroke-linecap:butt;stroke-linejoin:miter;stroke-opacity:1"
       x="59.437733"
       y="63.32428"
       id="text933"><tspan
         id="tspan931"
         x="59.437733"
         y="63.32428"
         style="font-size:2.99861px;stroke-width:0.0873587px">Planificateur</tspan></text>
    <text
       xml:space="preserve"
       style="font-style:normal;font-weight:normal;font-size:8.81944px;line-height:791.3%;font-family:sans-serif;letter-spacing:0px;word-spacing:0px;fill:#000000;fill-opacity:1;stroke:none;stroke-width:0.264583px;stroke-linecap:butt;stroke-linejoin:miter;stroke-opacity:1"
       x="62.528587"
       y="-25.81604"
       id="text937"><tspan
         id="tspan935"
         x="62.528587"
         y="-25.81604"
         style="font-size:2.99861px;stroke-width:0.264583px">Idéaliste</tspan></text>
    <text
       xml:space="preserve"
       style="font-style:normal;font-weight:normal;font-size:2.99861px;line-height:791.3%;font-family:sans-serif;letter-spacing:0px;word-spacing:0px;fill:#000000;fill-opacity:1;stroke:none;stroke-width:0.264583px;stroke-linecap:butt;stroke-linejoin:miter;stroke-opacity:1"
       x="100.05381"
       y="-11.0896"
       id="text941"><tspan
         id="tspan939"
         x="100.05381"
         y="-11.0896"
         style="font-size:2.99861px;stroke-width:0.264583px">Créatif</tspan></text>
    <text
       xml:space="preserve"
       style="font-style:normal;font-weight:normal;font-size:2.99861px;line-height:791.3%;font-family:sans-serif;letter-spacing:0px;word-spacing:0px;fill:#000000;fill-opacity:1;stroke:none;stroke-width:0.264583px;stroke-linecap:butt;stroke-linejoin:miter;stroke-opacity:1"
       x="111.7077"
       y="19.292219"
       id="text945"><tspan
         id="tspan943"
         x="111.7077"
         y="19.292219"
         style="font-size:2.99861px;stroke-width:0.264583px">Audacieux</tspan></text>
    <text
       xml:space="preserve"
       style="font-style:normal;font-weight:normal;font-size:2.99861px;line-height:791.3%;font-family:sans-serif;letter-spacing:0px;word-spacing:0px;fill:#000000;fill-opacity:1;stroke:none;stroke-width:0.264583px;stroke-linecap:butt;stroke-linejoin:miter;stroke-opacity:1"
       x="98.725288"
       y="50.674194"
       id="text949"><tspan
         id="tspan947"
         x="98.725288"
         y="50.674194"
         style="font-size:2.99861px;stroke-width:0.264583px">Explorateur</tspan></text>
  </g>
</svg>
