<svg xmlns="http://www.w3.org/2000/svg" xmlns:xlink="http://www.w3.org/1999/xlink">
  <!-- To add a new symbol to this sprite:
   - Create a new symbol markup
   - Paste the content of the svg
   - Paste the viewBox content of the svg in the symbol markup
   - assign an id to symbol
   - call this svg via:
    <svg class="icon">
      <use href='assets/sprite_icons.svg#mynewid' />
    </svg>
  
  -->
  <symbol id="award" viewBox="0 0 448 512">
    <path d="M446.34 433.21l-62.35-137.6c4.44-11.43 8.32-14.17 22.34-28.19a44.715 44.715 0 0 0 11.57-43.18c-8.29-30.95-8.3-26.65 0-57.62a44.721 44.721 0 0 0-11.57-43.18c-22.68-22.7-20.52-18.94-28.82-49.92a44.68 44.68 0 0 0-31.61-31.61c-30.96-8.29-27.22-6.13-49.9-28.81a44.714 44.714 0 0 0-43.19-11.58c-30.87 8.27-26.69 8.29-57.62 0A44.72 44.72 0 0 0 152 13.1c-22.66 22.66-18.93 20.51-49.9 28.81a44.68 44.68 0 0 0-31.61 31.61c-8.29 30.96-6.13 27.22-28.81 49.9-11.29 11.29-15.71 27.76-11.57 43.18 8.29 30.95 8.3 26.65 0 57.62a44.715 44.715 0 0 0 11.57 43.18c15.1 15.11 18.02 17.06 22.34 28.19L1.66 433.21c-5.96 13.15 4.85 27.44 20.45 27.44.29 0 .59-.01.88-.02l72.86-2.51 50.13 47.65C150.45 510 156.26 512 162 512c8.53 0 16.92-4.39 20.55-12.4L224 408.13l41.45 91.47c3.63 8.01 12.02 12.4 20.55 12.4 5.75 0 11.56-2 16.01-6.23l50.13-47.65 72.86 2.51c.3.01.59.02.88.02 15.6-.01 26.42-14.29 20.46-27.44zM153.73 446.9l-39.4-37.44-49.99 1.72 29.72-65.59c2.59 1.28 5.18 2.57 8.04 3.34 25.14 6.74 26.79 5.7 43.06 21.97 8.63 8.63 20.07 13.1 31.63 13.1 1.95 0 3.87-.55 5.81-.8l-28.87 63.7zm23.55-111.76c-22.02-22.08-33.74-24.8-60.92-32.09-11.34-42.3-17.04-45.88-39.4-68.24 11.51-42.93 7.89-49.38 0-78.79 30.96-30.96 31.22-37.69 39.41-68.24 29.09-7.78 37.07-8.22 68.25-39.4 42.62 11.42 49.19 7.94 78.79 0 21.29 21.29 25.65 27.98 68.24 39.4 11.34 42.3 17.04 45.88 39.4 68.25-11.33 42.3-8.19 48.26 0 78.81-21.29 21.29-27.98 25.66-39.4 68.25-26.27 7.04-38.28 9.44-60.93 32.09-31.14-18.18-67.02-15.45-93.44-.04zm176.51 75.01l-20.12-.69-39.4 37.44-28.87-63.7c1.94.26 3.86.8 5.81.8 11.55 0 23-4.47 31.63-13.1 16.41-16.41 17.81-15.2 43.06-21.97 2.85-.76 5.44-2.06 8.04-3.34l29.72 65.58-29.87-1.02zM320 192c0-53.02-42.98-96-96-96s-96 42.98-96 96 42.98 96 96 96 96-42.98 96-96zm-96 48c-26.47 0-48-21.53-48-48s21.53-48 48-48 48 21.53 48 48-21.53 48-48 48z"></path>
  </symbol>


  <symbol id="calendar-alt" class="fontawesome regular" viewBox="0 0 448 512">
    <path d="M148 288h-40c-6.6 0-12-5.4-12-12v-40c0-6.6 5.4-12 12-12h40c6.6 0 12 5.4 12 12v40c0 6.6-5.4 12-12 12zm108-12v-40c0-6.6-5.4-12-12-12h-40c-6.6 0-12 5.4-12 12v40c0 6.6 5.4 12 12 12h40c6.6 0 12-5.4 12-12zm96 0v-40c0-6.6-5.4-12-12-12h-40c-6.6 0-12 5.4-12 12v40c0 6.6 5.4 12 12 12h40c6.6 0 12-5.4 12-12zm-96 96v-40c0-6.6-5.4-12-12-12h-40c-6.6 0-12 5.4-12 12v40c0 6.6 5.4 12 12 12h40c6.6 0 12-5.4 12-12zm-96 0v-40c0-6.6-5.4-12-12-12h-40c-6.6 0-12 5.4-12 12v40c0 6.6 5.4 12 12 12h40c6.6 0 12-5.4 12-12zm192 0v-40c0-6.6-5.4-12-12-12h-40c-6.6 0-12 5.4-12 12v40c0 6.6 5.4 12 12 12h40c6.6 0 12-5.4 12-12zm96-260v352c0 26.5-21.5 48-48 48H48c-26.5 0-48-21.5-48-48V112c0-26.5 21.5-48 48-48h48V12c0-6.6 5.4-12 12-12h40c6.6 0 12 5.4 12 12v52h128V12c0-6.6 5.4-12 12-12h40c6.6 0 12 5.4 12 12v52h48c26.5 0 48 21.5 48 48zm-48 346V160H48v298c0 3.3 2.7 6 6 6h340c3.3 0 6-2.7 6-6z"></path>
  </symbol>


  <symbol id="home" viewBox="0 0 576 512">
    <path d="M570.24 247.41L512 199.52V104a8 8 0 0 0-8-8h-32a8 8 0 0 0-7.95 7.88v56.22L323.87 45a56.06 56.06 0 0 0-71.74 0L5.76 247.41a16 16 0 0 0-2 22.54L14 282.25a16 16 0 0 0 22.53 2L64 261.69V448a32.09 32.09 0 0 0 32 32h128a32.09 32.09 0 0 0 32-32V344h64v104a32.09 32.09 0 0 0 32 32h128a32.07 32.07 0 0 0 32-31.76V261.67l27.53 22.62a16 16 0 0 0 22.53-2L572.29 270a16 16 0 0 0-2.05-22.59zM463.85 432H368V328a32.09 32.09 0 0 0-32-32h-96a32.09 32.09 0 0 0-32 32v104h-96V222.27L288 77.65l176 144.56z"></path>
  </symbol>


  <symbol id="lightbulb" viewBox="0 0 352 512">
    <path d="M96.06 454.35c.01 6.29 1.87 12.45 5.36 17.69l17.09 25.69a31.99 31.99 0 0 0 26.64 14.28h61.71a31.99 31.99 0 0 0 26.64-14.28l17.09-25.69a31.989 31.989 0 0 0 5.36-17.69l.04-38.35H96.01l.05 38.35zM0 176c0 44.37 16.45 84.85 43.56 115.78 16.52 18.85 42.36 58.23 52.21 91.45.04.26.07.52.11.78h160.24c.04-.26.07-.51.11-.78 9.85-33.22 35.69-72.6 52.21-91.45C335.55 260.85 352 220.37 352 176 352 78.61 272.91-.3 175.45 0 73.44.31 0 82.97 0 176zm176-80c-44.11 0-80 35.89-80 80 0 8.84-7.16 16-16 16s-16-7.16-16-16c0-61.76 50.24-112 112-112 8.84 0 16 7.16 16 16s-7.16 16-16 16z"></path>
  </symbol>


  <symbol id="map-marked-alt" viewBox="0 0 576 512">
    <path d="M344 126c0-13.3-10.7-24-24-24s-24 10.7-24 24c0 13.2 10.7 24 24 24s24-10.8 24-24zm-24 226c5 0 10-2 13.5-6.1 35.3-40 127.3-150.1 127.3-210.6C460.8 60.6 397.8 0 320 0S179.2 60.6 179.2 135.3c0 60.4 92 170.6 127.3 210.6C310 350 315 352 320 352zm0-304c51.2 0 92.8 39.2 92.8 87.3 0 21.4-31.8 79.1-92.8 152.6-61-73.5-92.8-131.2-92.8-152.6 0-48.1 41.6-87.3 92.8-87.3zm240 112c-2 0-4 .4-6 1.2l-73.5 27.2c-8.2 20.4-20.2 42-34.2 63.8L528 222v193l-128 44.5V316.3c-13.7 17.3-27.9 34.3-42.5 50.8-1.7 1.9-3.6 3.5-5.5 5.1v81.4l-128-45.2v-113c-18.1-24.1-34.8-48.8-48-72.8v180.2l-.6.2L48 450V257l123.6-43c-8-15.4-14.1-30.3-18.3-44.5L20.1 216C8 220.8 0 232.6 0 245.7V496c0 9.2 7.5 16 16 16 2 0 4-.4 6-1.2L192 448l172 60.7c13 4.3 27 4.4 40 .2L555.9 456c12.2-4.9 20.1-16.6 20.1-29.7V176c0-9.2-7.5-16-16-16z"></path>
  </symbol>


  <symbol id="mars" viewBox="0 0 384 512">
    <path d="M372 64h-63c-10.7 0-16 12.9-8.5 20.5L315 99l-87.6 87.6C203.9 169.9 175.1 160 144 160 64.5 160 0 224.5 0 304s64.5 144 144 144 144-64.5 144-144c0-31.1-9.9-59.9-26.6-83.4L349 133l14.5 14.5c7.6 7.6 20.5 2.2 20.5-8.5V76c0-6.6-5.4-12-12-12zM144 400c-52.9 0-96-43.1-96-96s43.1-96 96-96 96 43.1 96 96-43.1 96-96 96z"></path>
  </symbol>


  <symbol id="music" viewBox="0 0 512 512">
    <path d="M470.38 1.51L150.41 96A32 32 0 0 0 128 126.51v261.41A139 139 0 0 0 96 384c-53 0-96 28.66-96 64s43 64 96 64 96-28.66 96-64V214.32l256-75v184.61a138.4 138.4 0 0 0-32-3.93c-53 0-96 28.66-96 64s43 64 96 64 96-28.65 96-64V32a32 32 0 0 0-41.62-30.49z"/>
  </symbol>


  <symbol id="music-slash" viewBox="0 0 640 512">
    <path d="M192 387.92a139 139 0 0 0-32-3.92c-53 0-96 28.66-96 64s43 64 96 64 96-28.66 96-64V327.88l-64-49.46zm441.82 70.18l-65.06-50.28c4.51-7.37 7.24-15.35 7.24-23.82V32a32 32 0 0 0-41.62-30.49L214.41 96a31.85 31.85 0 0 0-21 21.73L45.47 3.39A16 16 0 0 0 23 6.2L3.37 31.47a16 16 0 0 0 2.81 22.45l588.35 454.71a16 16 0 0 0 22.47-2.81l19.63-25.27a16 16 0 0 0-2.81-22.45zM512 323.92a139 139 0 0 0-32-3.92 137 137 0 0 0-22.15 2.11l-156.61-121L512 139.3z"/>
  </symbol>


  <symbol id="scroll" viewBox="0 0 640 512">
    <path d="M48 0C21.53 0 0 21.53 0 48v64c0 8.84 7.16 16 16 16h80V48C96 21.53 74.47 0 48 0zm208 412.57V352h288V96c0-52.94-43.06-96-96-96H111.59C121.74 13.41 128 29.92 128 48v368c0 38.87 34.65 69.65 74.75 63.12C234.22 474 256 444.46 256 412.57zM288 384v32c0 52.93-43.06 96-96 96h336c61.86 0 112-50.14 112-112 0-8.84-7.16-16-16-16H288z"></path>
  </symbol>


  <symbol id="search" viewBox="0 0 512 512">
    <path d="M505 442.7L405.3 343c-4.5-4.5-10.6-7-17-7H372c27.6-35.3 44-79.7 44-128C416 93.1 322.9 0 208 0S0 93.1 0 208s93.1 208 208 208c48.3 0 92.7-16.4 128-44v16.3c0 6.4 2.5 12.5 7 17l99.7 99.7c9.4 9.4 24.6 9.4 33.9 0l28.3-28.3c9.4-9.4 9.4-24.6.1-34zM208 336c-70.7 0-128-57.2-128-128 0-70.7 57.2-128 128-128 70.7 0 128 57.2 128 128 0 70.7-57.2 128-128 128z"></path>
  </symbol>


  <symbol id="square" viewBox="0 0 448 512">
    <path d="M400 32H48C21.5 32 0 53.5 0 80v352c0 26.5 21.5 48 48 48h352c26.5 0 48-21.5 48-48V80c0-26.5-21.5-48-48-48zm-6 400H54c-3.3 0-6-2.7-6-6V86c0-3.3 2.7-6 6-6h340c3.3 0 6 2.7 6 6v340c0 3.3-2.7 6-6 6z"></path>
  </symbol>


  <symbol id="thumbtack" viewBox="0 0 463.28 515.71">
    <path d="m328.74 203.77-69.729-96.305 36.552-21.103c11.479-6.6275 15.412-21.305 8.7846-32.785l-24-41.569c-6.6275-11.479-21.305-15.412-32.785-8.7846l-235.56 136c-11.479 6.6275-15.412 21.305-8.7846 32.785l24 41.569c6.6275 11.479 21.305 15.412 32.785 8.7846l36.552-21.104 48.538 108.54c-30.732 43.785-42.957 97.54-17.587 141.48 6.6275 11.479 21.305 15.412 32.785 8.7846l117.78-68 52.004 90.073c0.621 1.0756 1.4838 1.992 2.5208 2.6761l44.785 29.569c5.488 3.6235 12.788-0.57851 12.394-7.1555l-3.2154-53.569a8.008 8.008 0 0 0-1.0572-3.5211l-52.004-90.073 117.78-68c11.479-6.6275 15.412-21.305 8.7846-32.785-25.592-44.325-78.604-60.181-131.32-55.509z"/>
  </symbol>


  <symbol id="trophy" viewBox="0 0 576 512">
    <path d="M552 64H448V24c0-13.3-10.7-24-24-24H152c-13.3 0-24 10.7-24 24v40H24C10.7 64 0 74.7 0 88v56c0 35.7 22.5 72.4 61.9 100.7 31.5 22.7 69.8 37.1 110 41.7C203.3 338.5 240 360 240 360v72h-48c-35.3 0-64 20.7-64 56v12c0 6.6 5.4 12 12 12h296c6.6 0 12-5.4 12-12v-12c0-35.3-28.7-56-64-56h-48v-72s36.7-21.5 68.1-73.6c40.3-4.6 78.6-19 110-41.7 39.3-28.3 61.9-65 61.9-100.7V88c0-13.3-10.7-24-24-24zM99.3 192.8C74.9 175.2 64 155.6 64 144v-16h64.2c1 32.6 5.8 61.2 12.8 86.2-15.1-5.2-29.2-12.4-41.7-21.4zM512 144c0 16.1-17.7 36.1-35.3 48.8-12.5 9-26.7 16.2-41.8 21.4 7-25 11.8-53.6 12.8-86.2H512v16z"></path>
  </symbol>


  <symbol id="venus" viewBox="0 0 288 512">
    <path d="M288 176c0-79.5-64.5-144-144-144S0 96.5 0 176c0 71.4 51.9 130.6 120 142v58H76c-6.6 0-12 5.4-12 12v24c0 6.6 5.4 12 12 12h44v44c0 6.6 5.4 12 12 12h24c6.6 0 12-5.4 12-12v-44h44c6.6 0 12-5.4 12-12v-24c0-6.6-5.4-12-12-12h-44v-58c68.1-11.4 120-70.6 120-142zm-240 0c0-52.9 43.1-96 96-96s96 43.1 96 96-43.1 96-96 96-96-43.1-96-96z"></path>
  </symbol>


  <symbol id="volume" viewBox="0 0 480 512">
    <path d="M394.23 100.85c-11.19-7.09-26.03-3.8-33.12 7.41s-3.78 26.03 7.41 33.12C408.27 166.6 432 209.44 432 256s-23.73 89.41-63.48 114.62c-11.19 7.09-14.5 21.92-7.41 33.12 6.51 10.28 21.12 15.03 33.12 7.41C447.94 377.09 480 319.09 480 256s-32.06-121.09-85.77-155.15zm-56 78.28c-11.58-6.33-26.19-2.16-32.61 9.45-6.39 11.61-2.16 26.2 9.45 32.61C327.98 228.28 336 241.63 336 256c0 14.37-8.02 27.72-20.92 34.81-11.61 6.41-15.84 21-9.45 32.61 6.43 11.66 21.05 15.8 32.61 9.45 28.23-15.55 45.77-45 45.77-76.87s-17.54-61.33-45.78-76.87zM231.81 64c-5.91 0-11.92 2.18-16.78 7.05L126.06 160H24c-13.26 0-24 10.74-24 24v144c0 13.25 10.74 24 24 24h102.06l88.97 88.95c4.87 4.87 10.88 7.05 16.78 7.05 12.33 0 24.19-9.52 24.19-24.02V88.02C256 73.51 244.13 64 231.81 64zM208 366.05L145.94 304H48v-96h97.94L208 145.95v220.1z"></path>
  </symbol>


  <symbol id="volume-slash" viewBox="0 0 640 512">
    <path d="M633.99 471.02L36 3.51C29.1-2.01 19.03-.9 13.51 6l-10 12.49C-2.02 25.39-.9 35.46 6 40.98l598 467.51c6.9 5.52 16.96 4.4 22.49-2.49l10-12.49c5.52-6.9 4.41-16.97-2.5-22.49zM370.23 179.13c-9.14-5-20.01-3.25-27.41 3.33l70.67 55.25c-5.31-24.49-20.57-46.09-43.26-58.58zm30.29-37.75C440.27 166.6 464 209.44 464 256c0 6.75-.64 13.38-1.61 19.93l41.66 32.57c5.03-16.82 7.95-34.39 7.95-52.5 0-63.09-32.06-121.09-85.77-155.16-11.19-7.09-26.03-3.8-33.12 7.41-7.09 11.21-3.78 26.03 7.41 33.13zm53.27-80.96c66.27 43.49 105.82 116.6 105.82 195.58 0 29.13-5.46 57.42-15.57 83.76l39.23 30.67C599.07 334.91 608 296.19 608 256c0-95.33-47.73-183.58-127.65-236.03-11.17-7.33-26.18-4.24-33.51 6.95-7.34 11.17-4.22 26.18 6.95 33.5zM288 88.02C288 73.51 276.13 64 263.81 64c-5.91 0-11.92 2.18-16.78 7.05l-20.5 20.49L288 139.59V88.02zm-48 278.03L177.94 304H80v-96h61.71l-61.4-48H56c-13.26 0-24 10.74-24 24v144c0 13.25 10.74 24 24 24h102.06l88.97 88.95c4.87 4.87 10.88 7.05 16.78 7.05 12.33 0 24.19-9.52 24.19-24.02V322.37l-48-37.53v81.21z"></path>
  </symbol>
</svg>
