<svg xmlns="http://www.w3.org/2000/svg" xmlns:xlink="http://www.w3.org/1999/xlink">
  <!-- To add a new symbol to this sprite:
   - Create a new symbol markup
   - Paste the content of the svg
   - Paste the viewBox content of the svg in the symbol markup
   - assign an id to symbol
   - call this svg via:
    <svg class="icon">
      <use href='assets/sprite_icons.svg#mynewid' />
    </svg>
  
  -->
  <symbol id="award" viewBox="0 0 448 512">
    <path d="M446.34 433.21l-62.35-137.6c4.44-11.43 8.32-14.17 22.34-28.19a44.715 44.715 0 0 0 11.57-43.18c-8.29-30.95-8.3-26.65 0-57.62a44.721 44.721 0 0 0-11.57-43.18c-22.68-22.7-20.52-18.94-28.82-49.92a44.68 44.68 0 0 0-31.61-31.61c-30.96-8.29-27.22-6.13-49.9-28.81a44.714 44.714 0 0 0-43.19-11.58c-30.87 8.27-26.69 8.29-57.62 0A44.72 44.72 0 0 0 152 13.1c-22.66 22.66-18.93 20.51-49.9 28.81a44.68 44.68 0 0 0-31.61 31.61c-8.29 30.96-6.13 27.22-28.81 49.9-11.29 11.29-15.71 27.76-11.57 43.18 8.29 30.95 8.3 26.65 0 57.62a44.715 44.715 0 0 0 11.57 43.18c15.1 15.11 18.02 17.06 22.34 28.19L1.66 433.21c-5.96 13.15 4.85 27.44 20.45 27.44.29 0 .59-.01.88-.02l72.86-2.51 50.13 47.65C150.45 510 156.26 512 162 512c8.53 0 16.92-4.39 20.55-12.4L224 408.13l41.45 91.47c3.63 8.01 12.02 12.4 20.55 12.4 5.75 0 11.56-2 16.01-6.23l50.13-47.65 72.86 2.51c.3.01.59.02.88.02 15.6-.01 26.42-14.29 20.46-27.44zM153.73 446.9l-39.4-37.44-49.99 1.72 29.72-65.59c2.59 1.28 5.18 2.57 8.04 3.34 25.14 6.74 26.79 5.7 43.06 21.97 8.63 8.63 20.07 13.1 31.63 13.1 1.95 0 3.87-.55 5.81-.8l-28.87 63.7zm23.55-111.76c-22.02-22.08-33.74-24.8-60.92-32.09-11.34-42.3-17.04-45.88-39.4-68.24 11.51-42.93 7.89-49.38 0-78.79 30.96-30.96 31.22-37.69 39.41-68.24 29.09-7.78 37.07-8.22 68.25-39.4 42.62 11.42 49.19 7.94 78.79 0 21.29 21.29 25.65 27.98 68.24 39.4 11.34 42.3 17.04 45.88 39.4 68.25-11.33 42.3-8.19 48.26 0 78.81-21.29 21.29-27.98 25.66-39.4 68.25-26.27 7.04-38.28 9.44-60.93 32.09-31.14-18.18-67.02-15.45-93.44-.04zm176.51 75.01l-20.12-.69-39.4 37.44-28.87-63.7c1.94.26 3.86.8 5.81.8 11.55 0 23-4.47 31.63-13.1 16.41-16.41 17.81-15.2 43.06-21.97 2.85-.76 5.44-2.06 8.04-3.34l29.72 65.58-29.87-1.02zM320 192c0-53.02-42.98-96-96-96s-96 42.98-96 96 42.98 96 96 96 96-42.98 96-96zm-96 48c-26.47 0-48-21.53-48-48s21.53-48 48-48 48 21.53 48 48-21.53 48-48 48z"></path>
  </symbol>


  <symbol id="home" viewBox="0 0 576 512">
    <path d="M570.24 247.41L512 199.52V104a8 8 0 0 0-8-8h-32a8 8 0 0 0-7.95 7.88v56.22L323.87 45a56.06 56.06 0 0 0-71.74 0L5.76 247.41a16 16 0 0 0-2 22.54L14 282.25a16 16 0 0 0 22.53 2L64 261.69V448a32.09 32.09 0 0 0 32 32h128a32.09 32.09 0 0 0 32-32V344h64v104a32.09 32.09 0 0 0 32 32h128a32.07 32.07 0 0 0 32-31.76V261.67l27.53 22.62a16 16 0 0 0 22.53-2L572.29 270a16 16 0 0 0-2.05-22.59zM463.85 432H368V328a32.09 32.09 0 0 0-32-32h-96a32.09 32.09 0 0 0-32 32v104h-96V222.27L288 77.65l176 144.56z"></path>
  </symbol>


  <symbol id="map-marked-alt" viewBox="0 0 576 512">
    <path d="M344 126c0-13.3-10.7-24-24-24s-24 10.7-24 24c0 13.2 10.7 24 24 24s24-10.8 24-24zm-24 226c5 0 10-2 13.5-6.1 35.3-40 127.3-150.1 127.3-210.6C460.8 60.6 397.8 0 320 0S179.2 60.6 179.2 135.3c0 60.4 92 170.6 127.3 210.6C310 350 315 352 320 352zm0-304c51.2 0 92.8 39.2 92.8 87.3 0 21.4-31.8 79.1-92.8 152.6-61-73.5-92.8-131.2-92.8-152.6 0-48.1 41.6-87.3 92.8-87.3zm240 112c-2 0-4 .4-6 1.2l-73.5 27.2c-8.2 20.4-20.2 42-34.2 63.8L528 222v193l-128 44.5V316.3c-13.7 17.3-27.9 34.3-42.5 50.8-1.7 1.9-3.6 3.5-5.5 5.1v81.4l-128-45.2v-113c-18.1-24.1-34.8-48.8-48-72.8v180.2l-.6.2L48 450V257l123.6-43c-8-15.4-14.1-30.3-18.3-44.5L20.1 216C8 220.8 0 232.6 0 245.7V496c0 9.2 7.5 16 16 16 2 0 4-.4 6-1.2L192 448l172 60.7c13 4.3 27 4.4 40 .2L555.9 456c12.2-4.9 20.1-16.6 20.1-29.7V176c0-9.2-7.5-16-16-16z"></path>
  </symbol>


  <symbol id="mars" viewBox="0 0 384 512">
    <path d="M372 64h-63c-10.7 0-16 12.9-8.5 20.5L315 99l-87.6 87.6C203.9 169.9 175.1 160 144 160 64.5 160 0 224.5 0 304s64.5 144 144 144 144-64.5 144-144c0-31.1-9.9-59.9-26.6-83.4L349 133l14.5 14.5c7.6 7.6 20.5 2.2 20.5-8.5V76c0-6.6-5.4-12-12-12zM144 400c-52.9 0-96-43.1-96-96s43.1-96 96-96 96 43.1 96 96-43.1 96-96 96z"></path>
  </symbol>


  <symbol id="square" viewBox="0 0 448 512">
    <path d="M400 32H48C21.5 32 0 53.5 0 80v352c0 26.5 21.5 48 48 48h352c26.5 0 48-21.5 48-48V80c0-26.5-21.5-48-48-48zm-6 400H54c-3.3 0-6-2.7-6-6V86c0-3.3 2.7-6 6-6h340c3.3 0 6 2.7 6 6v340c0 3.3-2.7 6-6 6z"></path>
  </symbol>


  <symbol id="venus" viewBox="0 0 288 512">
    <path d="M288 176c0-79.5-64.5-144-144-144S0 96.5 0 176c0 71.4 51.9 130.6 120 142v58H76c-6.6 0-12 5.4-12 12v24c0 6.6 5.4 12 12 12h44v44c0 6.6 5.4 12 12 12h24c6.6 0 12-5.4 12-12v-44h44c6.6 0 12-5.4 12-12v-24c0-6.6-5.4-12-12-12h-44v-58c68.1-11.4 120-70.6 120-142zm-240 0c0-52.9 43.1-96 96-96s96 43.1 96 96-43.1 96-96 96-96-43.1-96-96z"></path>
  </symbol>
</svg>
